M48
;Layer_Color=9474304
;FILE_FORMAT=2:5
INCH,LZ
;TYPE=PLATED
T1F00S00C0.01181
T2F00S00C0.02559
T3F00S00C0.03248
T4F00S00C0.03543
T5F00S00C0.04000
%
T01
X0178Y0143
X0174823Y0150352
X0210983Y0141684
X0239Y0142
Y0134
Y015
Y0158
X0214Y0176
Y0182
X0212Y0185
X0214Y0188
X0216Y0191
X022Y0192
X0223Y0194
X0226Y0196
X0213Y0201
X021Y0205
X0216Y0209
X0184Y0197
X0187Y0182
X0189Y0179
X0194Y0176
X0196Y016
X0178Y0159
T02
X0210925Y0133563
X023002
T03
X0206644Y0121752
X0234301
T04
X0161417Y012685
Y013685
Y014685
X0279528
Y013685
Y012685
Y015685
Y016685
Y017685
Y018685
Y019685
Y020685
Y021685
X0264724Y0228346
X0254724
X0244724
X0234724
X0224724
X0214724
X0204724
X0194724
X0184724
X0174724
X0161417Y021685
Y020685
Y019685
Y018685
Y017685
Y016685
Y015685
T05
X0245905Y0180787
X0255906
Y0190787
Y0200787
X0245905
Y0190787
M30
