G04*
G04 #@! TF.GenerationSoftware,Altium Limited,Altium Designer,20.2.4 (192)*
G04*
G04 Layer_Physical_Order=1*
G04 Layer_Color=255*
%FSLAX25Y25*%
%MOIN*%
G70*
G04*
G04 #@! TF.SameCoordinates,10D436F5-3F1F-4B74-8332-D6DC9BA31C1D*
G04*
G04*
G04 #@! TF.FilePolarity,Positive*
G04*
G01*
G75*
%ADD11C,0.01000*%
%ADD14C,0.00800*%
%ADD15R,0.05591X0.02284*%
%ADD16R,0.03300X0.03150*%
%ADD17R,0.07087X0.07480*%
%ADD18R,0.01575X0.05315*%
%ADD19R,0.03000X0.01100*%
%ADD20R,0.02800X0.01100*%
%ADD21R,0.01100X0.02800*%
%ADD22R,0.01100X0.03000*%
%ADD23R,0.09400X0.09400*%
%ADD36C,0.06000*%
%ADD40C,0.05906*%
%ADD41R,0.05906X0.05906*%
%ADD42R,0.05906X0.05906*%
%ADD43O,0.03740X0.07480*%
%ADD44C,0.04134*%
%ADD45C,0.02362*%
G36*
X210236Y121752D02*
Y118012D01*
X203886D01*
X203783Y118017D01*
X203680Y118028D01*
X203578Y118044D01*
X203477Y118066D01*
X203378Y118092D01*
X203280Y118124D01*
X203184Y118161D01*
X203089Y118203D01*
X202997Y118250D01*
X202908Y118301D01*
X202822Y118357D01*
X202738Y118418D01*
X202658Y118483D01*
X202582Y118552D01*
X202509Y118625D01*
X202440Y118701D01*
X202375Y118781D01*
X202314Y118865D01*
X202258Y118951D01*
X202206Y119041D01*
X202160Y119132D01*
X202118Y119227D01*
X202081Y119323D01*
X202049Y119421D01*
X202022Y119521D01*
X202001Y119621D01*
X201985Y119723D01*
X201974Y119826D01*
X201969Y119929D01*
Y119980D01*
Y121752D01*
Y123524D01*
Y123575D01*
X201974Y123678D01*
X201985Y123781D01*
X202001Y123882D01*
X202022Y123983D01*
X202049Y124083D01*
X202081Y124181D01*
X202118Y124277D01*
X202160Y124371D01*
X202206Y124463D01*
X202258Y124553D01*
X202314Y124639D01*
X202375Y124722D01*
X202440Y124802D01*
X202509Y124879D01*
X202582Y124952D01*
X202658Y125021D01*
X202738Y125086D01*
X202822Y125146D01*
X202908Y125203D01*
X202997Y125254D01*
X203089Y125301D01*
X203184Y125343D01*
X203280Y125380D01*
X203378Y125412D01*
X203477Y125438D01*
X203578Y125460D01*
X203680Y125476D01*
X203783Y125487D01*
X203886Y125492D01*
X210236D01*
Y121752D01*
D02*
G37*
G36*
X211087Y136018D02*
X211195Y136007D01*
X211302Y135990D01*
X211408Y135967D01*
X211512Y135939D01*
X211615Y135906D01*
X211716Y135867D01*
X211815Y135823D01*
X211912Y135774D01*
X212005Y135720D01*
X212096Y135661D01*
X212184Y135597D01*
X212268Y135529D01*
X212349Y135457D01*
X212425Y135380D01*
X212497Y135300D01*
X212565Y135215D01*
X212629Y135128D01*
X212688Y135037D01*
X212742Y134943D01*
X212791Y134847D01*
X212835Y134748D01*
X212874Y134647D01*
X212908Y134544D01*
X212936Y134439D01*
X212958Y134334D01*
X212975Y134227D01*
X212986Y134119D01*
X212992Y134011D01*
Y133957D01*
Y133169D01*
Y133115D01*
X212986Y133007D01*
X212975Y132899D01*
X212958Y132792D01*
X212936Y132687D01*
X212908Y132582D01*
X212874Y132479D01*
X212835Y132378D01*
X212791Y132279D01*
X212742Y132183D01*
X212688Y132089D01*
X212629Y131998D01*
X212566Y131911D01*
X212497Y131826D01*
X212425Y131746D01*
X212349Y131669D01*
X212268Y131597D01*
X212184Y131529D01*
X212096Y131465D01*
X212005Y131406D01*
X211912Y131352D01*
X211815Y131303D01*
X211717Y131259D01*
X211615Y131220D01*
X211512Y131187D01*
X211408Y131159D01*
X211302Y131136D01*
X211195Y131119D01*
X211087Y131108D01*
X210979Y131102D01*
X210871D01*
X210763Y131108D01*
X210655Y131119D01*
X210548Y131136D01*
X210442Y131159D01*
X210338Y131187D01*
X210235Y131220D01*
X210134Y131259D01*
X210035Y131303D01*
X209939Y131352D01*
X209845Y131406D01*
X209754Y131465D01*
X209666Y131529D01*
X209582Y131597D01*
X209502Y131669D01*
X209425Y131746D01*
X209353Y131826D01*
X209285Y131911D01*
X209221Y131998D01*
X209162Y132089D01*
X209108Y132183D01*
X209059Y132279D01*
X209015Y132378D01*
X208976Y132479D01*
X208943Y132582D01*
X208915Y132687D01*
X208892Y132792D01*
X208875Y132899D01*
X208864Y133007D01*
X208858Y133115D01*
Y133169D01*
Y133957D01*
Y134011D01*
X208864Y134119D01*
X208875Y134227D01*
X208892Y134334D01*
X208915Y134439D01*
X208943Y134544D01*
X208976Y134647D01*
X209015Y134748D01*
X209059Y134847D01*
X209108Y134943D01*
X209162Y135037D01*
X209221Y135128D01*
X209285Y135215D01*
X209353Y135300D01*
X209425Y135380D01*
X209502Y135457D01*
X209582Y135529D01*
X209666Y135597D01*
X209754Y135661D01*
X209845Y135720D01*
X209939Y135774D01*
X210035Y135823D01*
X210134Y135867D01*
X210235Y135906D01*
X210338Y135939D01*
X210442Y135967D01*
X210548Y135990D01*
X210655Y136007D01*
X210763Y136018D01*
X210871Y136024D01*
X210979D01*
X211087Y136018D01*
D02*
G37*
G36*
X237162Y125487D02*
X237265Y125476D01*
X237367Y125460D01*
X237468Y125438D01*
X237567Y125412D01*
X237665Y125380D01*
X237761Y125343D01*
X237856Y125301D01*
X237948Y125254D01*
X238037Y125203D01*
X238123Y125146D01*
X238207Y125086D01*
X238287Y125021D01*
X238363Y124952D01*
X238436Y124879D01*
X238505Y124802D01*
X238570Y124722D01*
X238631Y124639D01*
X238687Y124553D01*
X238738Y124463D01*
X238785Y124371D01*
X238827Y124277D01*
X238864Y124181D01*
X238896Y124083D01*
X238923Y123983D01*
X238944Y123882D01*
X238960Y123781D01*
X238971Y123678D01*
X238976Y123575D01*
Y123524D01*
Y121752D01*
Y119980D01*
Y119929D01*
X238971Y119826D01*
X238960Y119723D01*
X238944Y119621D01*
X238923Y119521D01*
X238896Y119421D01*
X238864Y119323D01*
X238827Y119227D01*
X238785Y119132D01*
X238738Y119041D01*
X238687Y118951D01*
X238631Y118865D01*
X238570Y118781D01*
X238505Y118701D01*
X238436Y118625D01*
X238363Y118552D01*
X238287Y118483D01*
X238207Y118418D01*
X238123Y118357D01*
X238037Y118301D01*
X237948Y118250D01*
X237856Y118203D01*
X237761Y118161D01*
X237665Y118124D01*
X237567Y118092D01*
X237468Y118066D01*
X237367Y118044D01*
X237265Y118028D01*
X237162Y118017D01*
X237059Y118012D01*
X230709D01*
Y121752D01*
Y125492D01*
X237059D01*
X237162Y125487D01*
D02*
G37*
G36*
X230182Y136018D02*
X230290Y136007D01*
X230397Y135990D01*
X230502Y135967D01*
X230607Y135939D01*
X230710Y135906D01*
X230811Y135867D01*
X230910Y135823D01*
X231006Y135774D01*
X231100Y135720D01*
X231191Y135661D01*
X231278Y135597D01*
X231363Y135529D01*
X231443Y135457D01*
X231520Y135380D01*
X231592Y135300D01*
X231660Y135215D01*
X231724Y135128D01*
X231783Y135037D01*
X231837Y134943D01*
X231886Y134847D01*
X231930Y134748D01*
X231969Y134647D01*
X232002Y134544D01*
X232030Y134439D01*
X232053Y134334D01*
X232070Y134227D01*
X232081Y134119D01*
X232087Y134011D01*
Y133957D01*
Y133169D01*
Y133115D01*
X232081Y133007D01*
X232070Y132899D01*
X232053Y132792D01*
X232030Y132687D01*
X232002Y132582D01*
X231969Y132479D01*
X231930Y132378D01*
X231886Y132279D01*
X231837Y132183D01*
X231783Y132089D01*
X231724Y131998D01*
X231660Y131911D01*
X231592Y131826D01*
X231520Y131746D01*
X231443Y131669D01*
X231363Y131597D01*
X231278Y131529D01*
X231191Y131465D01*
X231100Y131406D01*
X231006Y131352D01*
X230910Y131303D01*
X230811Y131259D01*
X230710Y131220D01*
X230607Y131187D01*
X230502Y131159D01*
X230397Y131136D01*
X230290Y131119D01*
X230182Y131108D01*
X230074Y131102D01*
X229966D01*
X229857Y131108D01*
X229750Y131119D01*
X229643Y131136D01*
X229537Y131159D01*
X229432Y131187D01*
X229329Y131220D01*
X229228Y131259D01*
X229130Y131303D01*
X229033Y131352D01*
X228939Y131406D01*
X228849Y131465D01*
X228761Y131529D01*
X228677Y131597D01*
X228596Y131669D01*
X228520Y131746D01*
X228447Y131826D01*
X228379Y131911D01*
X228316Y131998D01*
X228257Y132089D01*
X228203Y132183D01*
X228153Y132279D01*
X228110Y132378D01*
X228071Y132479D01*
X228037Y132582D01*
X228009Y132687D01*
X227987Y132792D01*
X227970Y132899D01*
X227958Y133007D01*
X227953Y133115D01*
Y133169D01*
Y133957D01*
Y134011D01*
X227958Y134119D01*
X227970Y134227D01*
X227987Y134334D01*
X228009Y134439D01*
X228037Y134544D01*
X228071Y134647D01*
X228110Y134748D01*
X228153Y134847D01*
X228203Y134943D01*
X228257Y135037D01*
X228316Y135128D01*
X228379Y135215D01*
X228447Y135300D01*
X228520Y135380D01*
X228596Y135457D01*
X228677Y135529D01*
X228761Y135597D01*
X228849Y135661D01*
X228939Y135720D01*
X229033Y135774D01*
X229130Y135823D01*
X229228Y135867D01*
X229329Y135906D01*
X229432Y135939D01*
X229537Y135967D01*
X229643Y135990D01*
X229750Y136007D01*
X229857Y136018D01*
X229965Y136024D01*
X230074D01*
X230182Y136018D01*
D02*
G37*
%LPC*%
G36*
X207118Y124705D02*
X206170D01*
X206108Y124701D01*
X206047Y124695D01*
X205985Y124685D01*
X205925Y124672D01*
X205865Y124656D01*
X205806Y124637D01*
X205749Y124615D01*
X205692Y124590D01*
X205637Y124562D01*
X205584Y124531D01*
X205532Y124497D01*
X205482Y124461D01*
X205434Y124422D01*
X205387Y124381D01*
X205344Y124337D01*
X205302Y124291D01*
X205263Y124243D01*
X205227Y124193D01*
X205193Y124141D01*
X205162Y124087D01*
X205134Y124032D01*
X205109Y123976D01*
X205087Y123918D01*
X205068Y123859D01*
X205052Y123799D01*
X205039Y123739D01*
X205029Y123678D01*
X205023Y123616D01*
X205020Y123555D01*
Y123524D01*
Y121752D01*
Y119882D01*
Y119853D01*
X205023Y119797D01*
X205029Y119740D01*
X205037Y119685D01*
X205049Y119629D01*
X205064Y119574D01*
X205081Y119520D01*
X205102Y119467D01*
X205125Y119416D01*
X205151Y119365D01*
X205179Y119316D01*
X205210Y119268D01*
X205243Y119223D01*
X205279Y119178D01*
X205317Y119136D01*
X205357Y119096D01*
X205399Y119058D01*
X205443Y119023D01*
X205489Y118989D01*
X205537Y118958D01*
X205586Y118930D01*
X205636Y118904D01*
X205688Y118881D01*
X205741Y118861D01*
X205795Y118843D01*
X205850Y118829D01*
X205905Y118817D01*
X205961Y118808D01*
X206017Y118802D01*
X206074Y118799D01*
X207118D01*
X207179Y118802D01*
X207241Y118809D01*
X207302Y118819D01*
X207362Y118831D01*
X207422Y118848D01*
X207481Y118867D01*
X207539Y118889D01*
X207595Y118914D01*
X207650Y118942D01*
X207704Y118973D01*
X207756Y119007D01*
X207806Y119043D01*
X207854Y119082D01*
X207900Y119123D01*
X207944Y119167D01*
X207985Y119213D01*
X208024Y119261D01*
X208060Y119311D01*
X208094Y119363D01*
X208125Y119416D01*
X208153Y119472D01*
X208178Y119528D01*
X208200Y119586D01*
X208220Y119645D01*
X208236Y119704D01*
X208248Y119765D01*
X208258Y119826D01*
X208264Y119888D01*
X208268Y119949D01*
Y119980D01*
Y121752D01*
Y123524D01*
Y123555D01*
X208264Y123616D01*
X208258Y123678D01*
X208248Y123739D01*
X208236Y123799D01*
X208220Y123859D01*
X208200Y123918D01*
X208178Y123976D01*
X208153Y124032D01*
X208125Y124087D01*
X208094Y124141D01*
X208060Y124193D01*
X208024Y124243D01*
X207985Y124291D01*
X207944Y124337D01*
X207900Y124381D01*
X207854Y124422D01*
X207806Y124461D01*
X207756Y124497D01*
X207704Y124531D01*
X207650Y124562D01*
X207595Y124590D01*
X207539Y124615D01*
X207481Y124637D01*
X207422Y124656D01*
X207362Y124672D01*
X207302Y124685D01*
X207241Y124695D01*
X207179Y124701D01*
X207118Y124705D01*
D02*
G37*
G36*
X210959Y135236D02*
X210892D01*
X210825Y135233D01*
X210758Y135226D01*
X210692Y135215D01*
X210626Y135201D01*
X210562Y135184D01*
X210498Y135163D01*
X210435Y135139D01*
X210374Y135112D01*
X210314Y135082D01*
X210256Y135048D01*
X210200Y135011D01*
X210146Y134972D01*
X210094Y134930D01*
X210044Y134885D01*
X209997Y134838D01*
X209952Y134788D01*
X209910Y134736D01*
X209870Y134682D01*
X209834Y134625D01*
X209800Y134567D01*
X209770Y134508D01*
X209743Y134447D01*
X209719Y134384D01*
X209698Y134320D01*
X209681Y134256D01*
X209667Y134190D01*
X209656Y134124D01*
X209649Y134057D01*
X209646Y133990D01*
Y133957D01*
Y133169D01*
Y133136D01*
X209649Y133069D01*
X209656Y133002D01*
X209667Y132936D01*
X209681Y132870D01*
X209698Y132806D01*
X209719Y132742D01*
X209743Y132679D01*
X209770Y132618D01*
X209800Y132559D01*
X209834Y132501D01*
X209870Y132444D01*
X209910Y132390D01*
X209952Y132338D01*
X209997Y132288D01*
X210044Y132241D01*
X210094Y132196D01*
X210146Y132154D01*
X210200Y132114D01*
X210256Y132078D01*
X210314Y132044D01*
X210374Y132014D01*
X210435Y131987D01*
X210498Y131963D01*
X210562Y131942D01*
X210626Y131925D01*
X210692Y131911D01*
X210758Y131900D01*
X210825Y131893D01*
X210892Y131890D01*
X210959D01*
X211026Y131893D01*
X211092Y131900D01*
X211158Y131911D01*
X211224Y131925D01*
X211289Y131942D01*
X211352Y131963D01*
X211415Y131987D01*
X211476Y132014D01*
X211536Y132044D01*
X211594Y132078D01*
X211650Y132114D01*
X211704Y132154D01*
X211756Y132196D01*
X211806Y132241D01*
X211854Y132288D01*
X211898Y132338D01*
X211941Y132390D01*
X211980Y132444D01*
X212017Y132501D01*
X212050Y132559D01*
X212081Y132618D01*
X212108Y132679D01*
X212132Y132742D01*
X212152Y132806D01*
X212170Y132870D01*
X212184Y132936D01*
X212194Y133002D01*
X212201Y133069D01*
X212205Y133136D01*
Y133169D01*
Y133957D01*
Y133990D01*
X212201Y134057D01*
X212194Y134124D01*
X212184Y134190D01*
X212170Y134256D01*
X212152Y134320D01*
X212132Y134384D01*
X212108Y134447D01*
X212081Y134508D01*
X212050Y134567D01*
X212017Y134625D01*
X211980Y134682D01*
X211941Y134736D01*
X211898Y134788D01*
X211854Y134838D01*
X211806Y134885D01*
X211756Y134930D01*
X211704Y134972D01*
X211650Y135011D01*
X211594Y135048D01*
X211536Y135082D01*
X211476Y135112D01*
X211415Y135139D01*
X211352Y135163D01*
X211289Y135184D01*
X211224Y135201D01*
X211158Y135215D01*
X211092Y135226D01*
X211026Y135233D01*
X210959Y135236D01*
D02*
G37*
G36*
X234871Y124705D02*
X233827D01*
X233766Y124701D01*
X233704Y124695D01*
X233643Y124685D01*
X233582Y124672D01*
X233523Y124656D01*
X233464Y124637D01*
X233406Y124615D01*
X233350Y124590D01*
X233295Y124562D01*
X233241Y124531D01*
X233189Y124497D01*
X233139Y124461D01*
X233091Y124422D01*
X233045Y124381D01*
X233001Y124337D01*
X232960Y124291D01*
X232921Y124243D01*
X232885Y124193D01*
X232851Y124141D01*
X232820Y124087D01*
X232792Y124032D01*
X232767Y123976D01*
X232745Y123918D01*
X232725Y123859D01*
X232709Y123799D01*
X232697Y123739D01*
X232687Y123678D01*
X232680Y123616D01*
X232677Y123555D01*
Y123524D01*
Y121752D01*
Y119980D01*
Y119949D01*
X232680Y119888D01*
X232687Y119826D01*
X232697Y119765D01*
X232709Y119704D01*
X232725Y119645D01*
X232745Y119586D01*
X232767Y119528D01*
X232792Y119472D01*
X232820Y119416D01*
X232851Y119363D01*
X232885Y119311D01*
X232921Y119261D01*
X232960Y119213D01*
X233001Y119167D01*
X233045Y119123D01*
X233091Y119082D01*
X233139Y119043D01*
X233189Y119007D01*
X233241Y118973D01*
X233295Y118942D01*
X233350Y118914D01*
X233406Y118889D01*
X233464Y118867D01*
X233523Y118848D01*
X233582Y118831D01*
X233643Y118819D01*
X233704Y118809D01*
X233766Y118802D01*
X233827Y118799D01*
X234775D01*
X234837Y118802D01*
X234898Y118809D01*
X234959Y118819D01*
X235020Y118831D01*
X235080Y118848D01*
X235139Y118867D01*
X235196Y118889D01*
X235253Y118914D01*
X235308Y118942D01*
X235361Y118973D01*
X235413Y119007D01*
X235463Y119043D01*
X235511Y119082D01*
X235557Y119123D01*
X235601Y119167D01*
X235643Y119213D01*
X235682Y119261D01*
X235718Y119311D01*
X235752Y119363D01*
X235782Y119417D01*
X235810Y119472D01*
X235836Y119528D01*
X235858Y119586D01*
X235877Y119645D01*
X235893Y119704D01*
X235906Y119765D01*
X235915Y119826D01*
X235922Y119888D01*
X235925Y119949D01*
Y119980D01*
Y121752D01*
Y123622D01*
Y123650D01*
X235922Y123707D01*
X235916Y123763D01*
X235907Y123819D01*
X235896Y123875D01*
X235881Y123930D01*
X235863Y123984D01*
X235843Y124037D01*
X235820Y124088D01*
X235794Y124139D01*
X235766Y124188D01*
X235735Y124235D01*
X235702Y124281D01*
X235666Y124325D01*
X235628Y124368D01*
X235588Y124408D01*
X235546Y124446D01*
X235502Y124481D01*
X235456Y124515D01*
X235408Y124546D01*
X235359Y124574D01*
X235309Y124600D01*
X235257Y124623D01*
X235204Y124643D01*
X235150Y124661D01*
X235095Y124675D01*
X235040Y124687D01*
X234984Y124696D01*
X234928Y124702D01*
X234871Y124705D01*
D02*
G37*
G36*
X230053Y135236D02*
X229986D01*
X229919Y135233D01*
X229853Y135226D01*
X229786Y135215D01*
X229721Y135201D01*
X229656Y135184D01*
X229592Y135163D01*
X229530Y135139D01*
X229469Y135112D01*
X229409Y135082D01*
X229351Y135048D01*
X229295Y135011D01*
X229240Y134972D01*
X229188Y134930D01*
X229139Y134885D01*
X229091Y134838D01*
X229046Y134788D01*
X229004Y134736D01*
X228965Y134682D01*
X228928Y134625D01*
X228895Y134567D01*
X228864Y134508D01*
X228837Y134447D01*
X228813Y134384D01*
X228792Y134320D01*
X228775Y134256D01*
X228761Y134190D01*
X228751Y134124D01*
X228744Y134057D01*
X228740Y133990D01*
Y133957D01*
Y133169D01*
Y133136D01*
X228744Y133069D01*
X228751Y133002D01*
X228761Y132936D01*
X228775Y132870D01*
X228792Y132806D01*
X228813Y132742D01*
X228837Y132679D01*
X228864Y132618D01*
X228895Y132559D01*
X228928Y132501D01*
X228965Y132444D01*
X229004Y132390D01*
X229046Y132338D01*
X229091Y132288D01*
X229139Y132241D01*
X229188Y132196D01*
X229240Y132154D01*
X229295Y132114D01*
X229351Y132078D01*
X229409Y132044D01*
X229469Y132014D01*
X229530Y131987D01*
X229592Y131963D01*
X229656Y131942D01*
X229721Y131925D01*
X229786Y131911D01*
X229853Y131900D01*
X229919Y131893D01*
X229986Y131890D01*
X230053D01*
X230120Y131893D01*
X230187Y131900D01*
X230253Y131911D01*
X230318Y131925D01*
X230383Y131942D01*
X230447Y131963D01*
X230509Y131987D01*
X230571Y132014D01*
X230630Y132044D01*
X230689Y132078D01*
X230745Y132114D01*
X230799Y132154D01*
X230851Y132196D01*
X230901Y132241D01*
X230948Y132288D01*
X230993Y132338D01*
X231035Y132390D01*
X231075Y132444D01*
X231111Y132501D01*
X231144Y132559D01*
X231175Y132618D01*
X231202Y132679D01*
X231226Y132742D01*
X231247Y132806D01*
X231264Y132870D01*
X231278Y132936D01*
X231289Y133002D01*
X231296Y133069D01*
X231299Y133136D01*
Y133169D01*
Y133957D01*
Y133990D01*
X231296Y134057D01*
X231289Y134124D01*
X231278Y134190D01*
X231264Y134256D01*
X231247Y134320D01*
X231226Y134384D01*
X231202Y134447D01*
X231175Y134508D01*
X231144Y134567D01*
X231111Y134625D01*
X231075Y134682D01*
X231035Y134736D01*
X230993Y134788D01*
X230948Y134838D01*
X230901Y134885D01*
X230851Y134930D01*
X230799Y134972D01*
X230745Y135011D01*
X230689Y135048D01*
X230630Y135082D01*
X230571Y135112D01*
X230509Y135139D01*
X230447Y135163D01*
X230383Y135184D01*
X230318Y135201D01*
X230253Y135215D01*
X230187Y135226D01*
X230120Y135233D01*
X230053Y135236D01*
D02*
G37*
%LPD*%
D11*
X188937Y191800D02*
X192300D01*
X184000Y196737D02*
X188937Y191800D01*
X184000Y196737D02*
Y197000D01*
X207700Y188200D02*
X237200D01*
X214690Y191942D02*
X215631Y191000D01*
X216000D01*
X223573Y155573D02*
X241000Y173000D01*
X223573Y138422D02*
Y155573D01*
X248118Y173000D02*
X255906Y180787D01*
X241000Y173000D02*
X248118D01*
X207700Y184700D02*
X239818D01*
X205550Y182300D02*
X240300D01*
X243500Y185500D01*
X239818Y184700D02*
X245905Y190787D01*
X192000Y160000D02*
Y161176D01*
Y154000D02*
Y160000D01*
X196000D01*
X188000Y195000D02*
X189450Y193550D01*
X192250D01*
X188000Y195000D02*
Y211622D01*
X157456Y194456D02*
X157456D01*
X158725Y195485D02*
X160090Y196850D01*
X158485Y195485D02*
X158725D01*
X157456Y194456D02*
X158485Y195485D01*
X160090Y196850D02*
X161417D01*
X156000Y193000D02*
X157456Y194456D01*
X156000Y184000D02*
Y193000D01*
Y184000D02*
X158000Y182000D01*
X180000D01*
X161417Y186850D02*
X174798D01*
X176147Y188200D01*
X184500Y186500D02*
X192300D01*
X180000Y182000D02*
X184500Y186500D01*
X176147Y188200D02*
X192300D01*
X187261Y182261D02*
X188261D01*
X190650Y184650D02*
X192250D01*
X192300Y184700D01*
X188261Y182261D02*
X190650Y184650D01*
X187000Y182000D02*
X187261Y182261D01*
X216535Y140896D02*
X217323Y141684D01*
X217372Y141732D01*
X210983Y141684D02*
X217323D01*
X201800Y139800D02*
Y182300D01*
X199000Y137000D02*
X201800Y139800D01*
X178000Y137000D02*
X199000D01*
X175000Y150000D02*
X175260Y150260D01*
X196500Y178500D02*
Y182300D01*
X194000Y176000D02*
X196500Y178500D01*
X192300Y182300D02*
X194700D01*
X189000Y179000D02*
X192300Y182300D01*
X207000Y209000D02*
X216000D01*
X200000Y197700D02*
Y202000D01*
X207000Y209000D01*
X201800Y197700D02*
X201850Y197750D01*
Y200113D01*
X206737Y205000D01*
X210000D01*
X205000Y201000D02*
X213000D01*
X203550Y199550D02*
X205000Y201000D01*
X203500Y197700D02*
X203550Y197750D01*
Y199550D01*
X198200Y197700D02*
Y203200D01*
X208000Y213000D01*
X229378D02*
X244724Y228346D01*
X208000Y213000D02*
X229378D01*
X221378Y215000D02*
X234724Y228346D01*
X206700Y215000D02*
X221378D01*
X196500Y204800D02*
X206700Y215000D01*
X196500Y197700D02*
Y204800D01*
X194700Y197700D02*
Y207700D01*
X204000Y217000D01*
X213378D02*
X224724Y228346D01*
X204000Y217000D02*
X213378D01*
X214724Y222724D02*
Y228346D01*
X212000Y220000D02*
X214724Y222724D01*
X202000Y220000D02*
X212000D01*
X192300Y210300D02*
X202000Y220000D01*
X192300Y195300D02*
Y210300D01*
X192250Y193550D02*
X192300Y193500D01*
X188000Y211622D02*
X204724Y228346D01*
X161417Y206850D02*
Y216850D01*
X200000Y190000D02*
X207700D01*
X192300D02*
X200000D01*
X161417Y206850D02*
X168150D01*
X185000Y190000D02*
X192300D01*
X168150Y206850D02*
X185000Y190000D01*
X153000Y135268D02*
X161417Y126850D01*
X153000Y157000D02*
X158000Y162000D01*
X153000Y135268D02*
Y157000D01*
X158000Y162000D02*
X166000D01*
X173000Y169000D02*
X195000D01*
X166000Y162000D02*
X173000Y169000D01*
X170000Y163000D02*
X174000Y167000D01*
X196000D01*
X170000Y155000D02*
Y163000D01*
X198200Y172200D02*
Y182300D01*
X195000Y169000D02*
X198200Y172200D01*
X200000Y171000D02*
Y182300D01*
X196000Y167000D02*
X200000Y171000D01*
X167000Y152000D02*
X170000Y155000D01*
X158000Y152000D02*
X167000D01*
X155000Y149000D02*
X158000Y152000D01*
X155000Y143268D02*
X161417Y136850D01*
X155000Y143268D02*
Y149000D01*
X161417Y146850D02*
X162268Y146000D01*
X169000D01*
X178000Y137000D01*
X190176Y163000D02*
X192000Y161176D01*
X190100Y163000D02*
X190176D01*
X181331Y146520D02*
X182984D01*
X178000Y143189D02*
X181331Y146520D01*
X178000Y143000D02*
Y143189D01*
X181331Y154000D02*
X182984D01*
X178000Y157331D02*
X181331Y154000D01*
X178000Y157331D02*
Y159000D01*
X174823Y150352D02*
Y154177D01*
X173000Y156000D02*
X174823Y154177D01*
X173586Y163000D02*
X183900D01*
X173000Y162414D02*
X173586Y163000D01*
X173000Y156000D02*
Y162414D01*
X175260Y150260D02*
X182984D01*
X216193Y122000D02*
X225248D01*
X206644Y121752D02*
X215945D01*
X216193Y122000D01*
X225590Y122343D02*
Y126672D01*
X225590D02*
Y133276D01*
X225878Y133563D01*
X225000Y121752D02*
X225590Y122343D01*
X225554Y133276D02*
Y136441D01*
X206644Y121752D02*
Y129281D01*
X210925Y133563D01*
X225000Y121752D02*
X234301D01*
X225878Y133563D02*
X230020D01*
X239888Y157480D02*
X252805D01*
X239369Y158000D02*
X239888Y157480D01*
X239000Y158000D02*
X239369D01*
X252411Y150000D02*
X252805Y149606D01*
X239000Y150000D02*
X252411D01*
X252537Y142000D02*
X252805Y141732D01*
X239000Y142000D02*
X252537D01*
X252663Y134000D02*
X252805Y133858D01*
X239000Y134000D02*
X252663D01*
X211741Y191942D02*
X214690D01*
X207700Y191800D02*
X207750Y191850D01*
X211649D01*
X211741Y191942D01*
X207742Y193542D02*
X218458D01*
X220000Y192000D01*
X207700Y193500D02*
X207742Y193542D01*
X207700Y195300D02*
X221450D01*
X222750Y194000D02*
X223000D01*
X221450Y195300D02*
X222750Y194000D01*
X224300Y197700D02*
X226000Y196000D01*
X205300Y197700D02*
X224300D01*
X259006Y133858D02*
X272520D01*
X279528Y126850D01*
X259006Y141732D02*
X274646D01*
X279528Y136850D01*
X259006Y149606D02*
X275986D01*
X278742Y146850D01*
X279528D01*
X259006Y157480D02*
X259636Y156850D01*
X279528D01*
X273465Y200787D02*
X273465D01*
X278589Y197789D02*
X279528Y196850D01*
X276463Y197789D02*
X278589D01*
X273465Y200787D02*
X276463Y197789D01*
X273465Y200787D02*
X279528Y206850D01*
X255906Y200787D02*
X273465D01*
X254949Y201744D02*
X255906Y200787D01*
X254949Y201744D02*
Y204051D01*
X253000Y206000D02*
X254949Y204051D01*
X254724Y228346D02*
X264724D01*
X254724Y207724D02*
Y228346D01*
X253000Y206000D02*
X254724Y207724D01*
X241000Y206000D02*
X253000D01*
X240000Y191000D02*
Y205000D01*
X241000Y206000D01*
X237200Y188200D02*
X240000Y191000D01*
X207700Y186750D02*
Y188200D01*
X243500Y185500D02*
X247500D01*
X250406Y188406D01*
X245905Y200787D02*
X246862Y199831D01*
Y196478D02*
Y199831D01*
Y196478D02*
X250406Y192934D01*
Y188406D02*
Y192934D01*
X223573Y138422D02*
X225554Y136441D01*
X215354Y132283D02*
Y136614D01*
X216535Y137795D01*
Y140896D01*
D14*
X214000Y176000D02*
Y179000D01*
X239000D01*
X204000D02*
X214000D01*
X239000D02*
X243000Y175000D01*
X203500Y179500D02*
X204000Y179000D01*
X243000Y175000D02*
X247000D01*
X203500Y179500D02*
Y182300D01*
X254910Y189792D02*
X255906Y190787D01*
X251000Y179000D02*
Y184000D01*
X254910Y187910D01*
Y189792D01*
X247000Y175000D02*
X251000Y179000D01*
D15*
X192000Y154000D02*
D03*
Y146520D02*
D03*
X182984D02*
D03*
Y150260D02*
D03*
Y154000D02*
D03*
D16*
X252805Y133858D02*
D03*
X259006D02*
D03*
X252805Y141732D02*
D03*
X259006D02*
D03*
X252805Y149606D02*
D03*
X259006D02*
D03*
X252805Y157480D02*
D03*
X259006D02*
D03*
X217372Y141732D02*
D03*
X223573D02*
D03*
X190100Y163000D02*
D03*
X183900D02*
D03*
D17*
X225000Y121752D02*
D03*
X215945D02*
D03*
D18*
X225590Y132283D02*
D03*
X215354D02*
D03*
X223031D02*
D03*
X217913D02*
D03*
X220472D02*
D03*
D19*
X192300Y193500D02*
D03*
Y191800D02*
D03*
Y190000D02*
D03*
Y188200D02*
D03*
Y186500D02*
D03*
X207700D02*
D03*
Y188200D02*
D03*
Y190000D02*
D03*
Y191800D02*
D03*
Y193500D02*
D03*
D20*
X192300Y184700D02*
D03*
X207700D02*
D03*
Y195300D02*
D03*
X192300D02*
D03*
D21*
X194700Y182300D02*
D03*
X205300D02*
D03*
Y197700D02*
D03*
X194700D02*
D03*
D22*
X196500Y182300D02*
D03*
X198200D02*
D03*
X200000D02*
D03*
X201800D02*
D03*
X203500D02*
D03*
Y197700D02*
D03*
X201800D02*
D03*
X200000D02*
D03*
X198200D02*
D03*
X196500D02*
D03*
D23*
X200000Y190000D02*
D03*
D36*
X255906Y200787D02*
D03*
Y190787D02*
D03*
Y180787D02*
D03*
X245905D02*
D03*
Y190787D02*
D03*
Y200787D02*
D03*
D40*
X279528Y136850D02*
D03*
Y146850D02*
D03*
Y156850D02*
D03*
Y166850D02*
D03*
Y176850D02*
D03*
Y186850D02*
D03*
Y196850D02*
D03*
Y206850D02*
D03*
Y216850D02*
D03*
X161417Y136850D02*
D03*
Y146850D02*
D03*
Y156850D02*
D03*
Y166850D02*
D03*
Y176850D02*
D03*
Y186850D02*
D03*
Y196850D02*
D03*
Y206850D02*
D03*
Y216850D02*
D03*
X254724Y228346D02*
D03*
X244724D02*
D03*
X234724D02*
D03*
X224724D02*
D03*
X214724D02*
D03*
X204724D02*
D03*
X194724D02*
D03*
X184724D02*
D03*
X174724D02*
D03*
D41*
X279528Y126850D02*
D03*
X161417D02*
D03*
D42*
X264724Y228346D02*
D03*
D43*
X234301Y121752D02*
D03*
X206644D02*
D03*
D44*
X230020Y133563D02*
D03*
X210925D02*
D03*
D45*
X216000Y191000D02*
D03*
X184000Y197000D02*
D03*
X214000Y188000D02*
D03*
X212000Y185000D02*
D03*
X214000Y176000D02*
D03*
Y182000D02*
D03*
X196000Y160000D02*
D03*
X187000Y182000D02*
D03*
X210983Y141684D02*
D03*
X194000Y176000D02*
D03*
X189000Y179000D02*
D03*
X216000Y209000D02*
D03*
X213000Y201000D02*
D03*
X210000Y205000D02*
D03*
X178000Y143000D02*
D03*
Y159000D02*
D03*
X174823Y150352D02*
D03*
X239000Y134000D02*
D03*
Y142000D02*
D03*
Y150000D02*
D03*
Y158000D02*
D03*
X220000Y192000D02*
D03*
X223000Y194000D02*
D03*
X226000Y196000D02*
D03*
M02*
