G04*
G04 #@! TF.GenerationSoftware,Altium Limited,Altium Designer,20.2.4 (192)*
G04*
G04 Layer_Color=16711935*
%FSLAX25Y25*%
%MOIN*%
G70*
G04*
G04 #@! TF.SameCoordinates,10D436F5-3F1F-4B74-8332-D6DC9BA31C1D*
G04*
G04*
G04 #@! TF.FilePolarity,Negative*
G04*
G01*
G75*
%ADD33C,0.06706*%
%ADD34R,0.06706X0.06706*%
%ADD35R,0.06706X0.06706*%
%ADD36C,0.06000*%
%ADD37O,0.04540X0.08280*%
%ADD38C,0.04934*%
%ADD39C,0.03162*%
G36*
X201572Y125886D02*
X210630D01*
Y117616D01*
X201572D01*
Y125886D01*
D02*
G37*
G36*
X208460Y136417D02*
X213386D01*
Y130708D01*
X208460D01*
Y136417D01*
D02*
G37*
G36*
X230324Y125886D02*
X239370D01*
Y117605D01*
X230324D01*
Y125886D01*
D02*
G37*
G36*
X227566Y136417D02*
X232480D01*
Y130707D01*
X227566D01*
Y136417D01*
D02*
G37*
D33*
X279528Y136850D02*
D03*
Y146850D02*
D03*
Y156850D02*
D03*
Y166850D02*
D03*
Y176850D02*
D03*
Y186850D02*
D03*
Y196850D02*
D03*
Y206850D02*
D03*
Y216850D02*
D03*
X161417Y136850D02*
D03*
Y146850D02*
D03*
Y156850D02*
D03*
Y166850D02*
D03*
Y176850D02*
D03*
Y186850D02*
D03*
Y196850D02*
D03*
Y206850D02*
D03*
Y216850D02*
D03*
X254724Y228346D02*
D03*
X244724D02*
D03*
X234724D02*
D03*
X224724D02*
D03*
X214724D02*
D03*
X204724D02*
D03*
X194724D02*
D03*
X184724D02*
D03*
X174724D02*
D03*
D34*
X279528Y126850D02*
D03*
X161417D02*
D03*
D35*
X264724Y228346D02*
D03*
D36*
X255906Y200787D02*
D03*
Y190787D02*
D03*
Y180787D02*
D03*
X245905D02*
D03*
Y190787D02*
D03*
Y200787D02*
D03*
D37*
X234301Y121752D02*
D03*
X206644D02*
D03*
D38*
X230020Y133563D02*
D03*
X210925D02*
D03*
D39*
X216000Y191000D02*
D03*
X184000Y197000D02*
D03*
X214000Y188000D02*
D03*
X212000Y185000D02*
D03*
X214000Y176000D02*
D03*
Y182000D02*
D03*
X196000Y160000D02*
D03*
X187000Y182000D02*
D03*
X210983Y141684D02*
D03*
X194000Y176000D02*
D03*
X189000Y179000D02*
D03*
X216000Y209000D02*
D03*
X213000Y201000D02*
D03*
X210000Y205000D02*
D03*
X178000Y143000D02*
D03*
Y159000D02*
D03*
X174823Y150352D02*
D03*
X239000Y134000D02*
D03*
Y142000D02*
D03*
Y150000D02*
D03*
Y158000D02*
D03*
X220000Y192000D02*
D03*
X223000Y194000D02*
D03*
X226000Y196000D02*
D03*
M02*
