G04*
G04 #@! TF.GenerationSoftware,Altium Limited,Altium Designer,20.2.4 (192)*
G04*
G04 Layer_Physical_Order=3*
G04 Layer_Color=16440176*
%FSLAX25Y25*%
%MOIN*%
G70*
G04*
G04 #@! TF.SameCoordinates,E28A416E-137A-4DA4-96E8-27F400694B22*
G04*
G04*
G04 #@! TF.FilePolarity,Positive*
G04*
G01*
G75*
%ADD16C,0.00800*%
%ADD64C,0.03150*%
%ADD75C,0.01575*%
D16*
X346834Y23769D02*
X352133D01*
X353169Y24805D01*
X310742Y40802D02*
X314380Y44439D01*
X310742Y37444D02*
Y40802D01*
Y37444D02*
X311135Y37051D01*
X334657Y40157D02*
X335331D01*
X329759Y35259D02*
X334657Y40157D01*
X335331D02*
X335479Y40306D01*
X329372Y34592D02*
Y34802D01*
X329759Y35189D01*
Y35259D01*
X345800Y40800D02*
Y41110D01*
X350583Y45893D01*
X376939D01*
X332167Y15718D02*
X337564D01*
X325822Y14318D02*
X344662D01*
X324934Y15205D02*
X325822Y14318D01*
X344662D02*
X353337Y22993D01*
X328828Y19057D02*
X332167Y15718D01*
X337564D02*
X338066Y16219D01*
X325242Y12918D02*
X345276D01*
X324662Y11518D02*
X346292D01*
X324134Y12046D02*
X324662Y11518D01*
X346292D02*
X354573Y19799D01*
X324667Y13493D02*
X325242Y12918D01*
X345276D02*
X353563Y21205D01*
X312559Y9850D02*
X313968D01*
X311764Y10646D02*
X312559Y9850D01*
X307360Y12046D02*
X324134D01*
X307944Y13493D02*
X324667D01*
X308759Y15205D02*
X324934D01*
X309887Y16605D02*
X321177D01*
X311089Y18105D02*
X319079D01*
X310389Y18805D02*
X311089Y18105D01*
X306145Y13261D02*
X307360Y12046D01*
X309424Y17068D02*
X309887Y16605D01*
X321177D02*
X323628Y19057D01*
X310179Y18805D02*
X310389D01*
X308684Y15280D02*
X308759Y15205D01*
X303912Y10646D02*
X311764D01*
X302037Y12520D02*
X303912Y10646D01*
X312852Y19893D02*
X318887D01*
X324773Y25779D01*
X319079Y18105D02*
X325353Y24379D01*
X323628Y19057D02*
X328828D01*
X318413Y10106D02*
X338797D01*
X304380Y17057D02*
X307944Y13493D01*
X304380Y17057D02*
Y17133D01*
X302037Y12520D02*
Y19463D01*
X314267Y31693D01*
X322767Y47905D02*
X382579D01*
X295280Y39105D02*
X303979D01*
X311779Y46905D01*
X314380Y44439D02*
Y46905D01*
X314267Y31693D02*
Y39406D01*
X322767Y47905D01*
X311779Y46905D02*
X314380D01*
X309317Y17068D02*
X309424D01*
X308179Y18205D02*
X309317Y17068D01*
X309898Y21052D02*
X311477D01*
X313131Y22705D01*
X308179Y19333D02*
X309898Y21052D01*
X308179Y18205D02*
Y19333D01*
X332431Y19057D02*
X335380Y22005D01*
X328828Y19057D02*
X332431D01*
X335380Y22005D02*
Y22908D01*
X337990Y25518D01*
X341079Y26474D02*
Y28338D01*
X340124Y25518D02*
X341079Y26474D01*
X337990Y25518D02*
X340124D01*
X339414Y30003D02*
X341079Y28338D01*
X335479Y40306D02*
X337879Y37905D01*
X351679D01*
X357879Y44105D02*
X368980D01*
X351679Y37905D02*
X357879Y44105D01*
X370379Y24905D02*
Y42695D01*
X368980Y44095D02*
Y44105D01*
Y44095D02*
X370379Y42695D01*
X364079Y24306D02*
X366652D01*
X367039Y23918D01*
X369392D01*
X370379Y24905D01*
X363580Y24805D02*
X364079Y24306D01*
X364659Y25706D02*
X367779D01*
X364159Y26206D02*
X364659Y25706D01*
X360380Y26206D02*
X364159D01*
X353169Y24805D02*
X363580D01*
X354881Y31704D02*
X360380Y26206D01*
X334415Y18141D02*
X334706D01*
X334935Y18371D02*
Y18661D01*
X336667Y20393D02*
X341138D01*
X334935Y18661D02*
X336667Y20393D01*
X334706Y18141D02*
X334935Y18371D01*
X341138Y20393D02*
X342336Y19195D01*
X346645D01*
X376939Y45893D02*
X383236Y39597D01*
X382579Y47905D02*
X386579Y43905D01*
Y39105D02*
Y43905D01*
X370180Y22705D02*
X386579Y39105D01*
X370180Y12706D02*
Y22705D01*
X366073Y19799D02*
X368392Y22118D01*
X368679Y11206D02*
X370180Y12706D01*
X361479Y11206D02*
X368679D01*
X359980Y9706D02*
X361479Y11206D01*
X359980Y4106D02*
Y9706D01*
X357728Y1854D02*
X359980Y4106D01*
X325980Y1854D02*
X357728D01*
X325571Y2264D02*
X325980Y1854D01*
X303825Y13261D02*
X306145D01*
X338797Y10106D02*
X339666Y9237D01*
X315713Y7406D02*
X318413Y10106D01*
X339666Y4519D02*
Y9237D01*
X353337Y22993D02*
X362792D01*
X364370Y21205D02*
X365670Y22505D01*
X365880D01*
X353563Y21205D02*
X364370D01*
X354573Y19799D02*
X366073D01*
X343990Y33104D02*
X345390Y31704D01*
X354881D01*
X327153Y25779D02*
X335878Y34504D01*
X340784Y33104D02*
X343990D01*
X345970D02*
X362708D01*
X335359Y32006D02*
X339685D01*
X340784Y33104D01*
X344570Y34504D02*
X345970Y33104D01*
X335878Y34504D02*
X344570D01*
X327733Y24379D02*
X335359Y32006D01*
X325353Y24379D02*
X327733D01*
X324773Y25779D02*
X327153D01*
X362708Y33104D02*
X367663Y28150D01*
Y28114D02*
Y28150D01*
D64*
X315571Y7264D02*
D03*
X325571Y2264D02*
D03*
D75*
X346834Y23769D02*
D03*
X323628Y19057D02*
D03*
X329372Y34592D02*
D03*
X345800Y40800D02*
D03*
X334100Y17700D02*
D03*
X313968Y9850D02*
D03*
X312852Y19893D02*
D03*
X308684Y15280D02*
D03*
X295280Y39105D02*
D03*
X310179Y18805D02*
D03*
X304380Y17133D02*
D03*
X314380Y46905D02*
D03*
X311135Y37051D02*
D03*
X313131Y22705D02*
D03*
X367779Y25706D02*
D03*
X338066Y16219D02*
D03*
X335479Y40306D02*
D03*
X368679Y47905D02*
D03*
X383236Y39597D02*
D03*
X368392Y22118D02*
D03*
X364079Y47905D02*
D03*
X339666Y4519D02*
D03*
X362792Y22993D02*
D03*
X365880Y22505D02*
D03*
X303825Y13261D02*
D03*
X339414Y30003D02*
D03*
X367663Y28114D02*
D03*
X368980Y44105D02*
D03*
X346645Y19195D02*
D03*
M02*
