G04*
G04 #@! TF.GenerationSoftware,Altium Limited,Altium Designer,20.2.4 (192)*
G04*
G04 Layer_Color=16711935*
%FSLAX25Y25*%
%MOIN*%
G70*
G04*
G04 #@! TF.SameCoordinates,E28A416E-137A-4DA4-96E8-27F400694B22*
G04*
G04*
G04 #@! TF.FilePolarity,Negative*
G04*
G01*
G75*
%ADD43R,0.03950X0.04100*%
%ADD58R,0.04100X0.03950*%
%ADD60O,0.04540X0.08280*%
%ADD61C,0.04934*%
%ADD62C,0.06706*%
%ADD63R,0.06706X0.06706*%
%ADD64C,0.03150*%
%ADD65R,0.06706X0.06706*%
%ADD66C,0.02375*%
G04:AMPARAMS|DCode=84|XSize=45.04mil|YSize=21.42mil|CornerRadius=7.85mil|HoleSize=0mil|Usage=FLASHONLY|Rotation=90.000|XOffset=0mil|YOffset=0mil|HoleType=Round|Shape=RoundedRectangle|*
%AMROUNDEDRECTD84*
21,1,0.04504,0.00571,0,0,90.0*
21,1,0.02933,0.02142,0,0,90.0*
1,1,0.01571,0.00285,0.01467*
1,1,0.01571,0.00285,-0.01467*
1,1,0.01571,-0.00285,-0.01467*
1,1,0.01571,-0.00285,0.01467*
%
%ADD84ROUNDEDRECTD84*%
G04:AMPARAMS|DCode=85|XSize=45.04mil|YSize=21.42mil|CornerRadius=7.85mil|HoleSize=0mil|Usage=FLASHONLY|Rotation=180.000|XOffset=0mil|YOffset=0mil|HoleType=Round|Shape=RoundedRectangle|*
%AMROUNDEDRECTD85*
21,1,0.04504,0.00571,0,0,180.0*
21,1,0.02933,0.02142,0,0,180.0*
1,1,0.01571,-0.01467,0.00285*
1,1,0.01571,0.01467,0.00285*
1,1,0.01571,0.01467,-0.00285*
1,1,0.01571,-0.01467,-0.00285*
%
%ADD85ROUNDEDRECTD85*%
G04:AMPARAMS|DCode=86|XSize=31.5mil|YSize=18.5mil|CornerRadius=6.19mil|HoleSize=0mil|Usage=FLASHONLY|Rotation=0.000|XOffset=0mil|YOffset=0mil|HoleType=Round|Shape=RoundedRectangle|*
%AMROUNDEDRECTD86*
21,1,0.03150,0.00613,0,0,0.0*
21,1,0.01913,0.01850,0,0,0.0*
1,1,0.01237,0.00956,-0.00307*
1,1,0.01237,-0.00956,-0.00307*
1,1,0.01237,-0.00956,0.00307*
1,1,0.01237,0.00956,0.00307*
%
%ADD86ROUNDEDRECTD86*%
G04:AMPARAMS|DCode=87|XSize=33.47mil|YSize=18.5mil|CornerRadius=6.19mil|HoleSize=0mil|Usage=FLASHONLY|Rotation=0.000|XOffset=0mil|YOffset=0mil|HoleType=Round|Shape=RoundedRectangle|*
%AMROUNDEDRECTD87*
21,1,0.03347,0.00613,0,0,0.0*
21,1,0.02109,0.01850,0,0,0.0*
1,1,0.01237,0.01055,-0.00307*
1,1,0.01237,-0.01055,-0.00307*
1,1,0.01237,-0.01055,0.00307*
1,1,0.01237,0.01055,0.00307*
%
%ADD87ROUNDEDRECTD87*%
G04:AMPARAMS|DCode=88|XSize=55.64mil|YSize=30.84mil|CornerRadius=6.85mil|HoleSize=0mil|Usage=FLASHONLY|Rotation=270.000|XOffset=0mil|YOffset=0mil|HoleType=Round|Shape=RoundedRectangle|*
%AMROUNDEDRECTD88*
21,1,0.05564,0.01713,0,0,270.0*
21,1,0.04193,0.03084,0,0,270.0*
1,1,0.01371,-0.00856,-0.02097*
1,1,0.01371,-0.00856,0.02097*
1,1,0.01371,0.00856,0.02097*
1,1,0.01371,0.00856,-0.02097*
%
%ADD88ROUNDEDRECTD88*%
%ADD89R,0.03162X0.02769*%
G04:AMPARAMS|DCode=90|XSize=31.5mil|YSize=18.5mil|CornerRadius=6.19mil|HoleSize=0mil|Usage=FLASHONLY|Rotation=270.000|XOffset=0mil|YOffset=0mil|HoleType=Round|Shape=RoundedRectangle|*
%AMROUNDEDRECTD90*
21,1,0.03150,0.00613,0,0,270.0*
21,1,0.01913,0.01850,0,0,270.0*
1,1,0.01237,-0.00307,-0.00956*
1,1,0.01237,-0.00307,0.00956*
1,1,0.01237,0.00307,0.00956*
1,1,0.01237,0.00307,-0.00956*
%
%ADD90ROUNDEDRECTD90*%
G04:AMPARAMS|DCode=91|XSize=33.47mil|YSize=18.5mil|CornerRadius=6.19mil|HoleSize=0mil|Usage=FLASHONLY|Rotation=270.000|XOffset=0mil|YOffset=0mil|HoleType=Round|Shape=RoundedRectangle|*
%AMROUNDEDRECTD91*
21,1,0.03347,0.00613,0,0,270.0*
21,1,0.02109,0.01850,0,0,270.0*
1,1,0.01237,-0.00307,-0.01055*
1,1,0.01237,-0.00307,0.01055*
1,1,0.01237,0.00307,0.01055*
1,1,0.01237,0.00307,-0.01055*
%
%ADD91ROUNDEDRECTD91*%
G36*
X333556Y38386D02*
X328642D01*
Y44096D01*
X333556D01*
Y38386D01*
D02*
G37*
G36*
X330799Y48917D02*
X321752D01*
Y57198D01*
X330799D01*
Y48917D01*
D02*
G37*
G36*
X352662Y38386D02*
X347736D01*
Y44095D01*
X352662D01*
Y38386D01*
D02*
G37*
G36*
X359550Y48917D02*
X350492D01*
Y57187D01*
X359550D01*
Y48917D01*
D02*
G37*
D43*
X298379Y53806D02*
D03*
Y47605D02*
D03*
X305780Y2605D02*
D03*
Y8806D02*
D03*
X310680Y8906D02*
D03*
Y2705D02*
D03*
X371161Y2805D02*
D03*
Y9006D02*
D03*
X335879Y55906D02*
D03*
Y49705D02*
D03*
X340079Y55906D02*
D03*
Y49705D02*
D03*
X344280Y55906D02*
D03*
Y49705D02*
D03*
X372835Y40994D02*
D03*
Y47195D02*
D03*
D58*
X323280Y12306D02*
D03*
X317079D02*
D03*
X291180Y51006D02*
D03*
X284979D02*
D03*
X291180Y46505D02*
D03*
X284979D02*
D03*
X328379Y12306D02*
D03*
X334580D02*
D03*
X369980Y36705D02*
D03*
X363779D02*
D03*
X369880Y32206D02*
D03*
X363679D02*
D03*
X379331Y22343D02*
D03*
X373130D02*
D03*
X385974Y33858D02*
D03*
X379774D02*
D03*
X379675Y56004D02*
D03*
X385876D02*
D03*
D60*
X326821Y53051D02*
D03*
X354478D02*
D03*
D61*
X331102Y41240D02*
D03*
X350197D02*
D03*
D62*
X365748Y5847D02*
D03*
X354685Y5807D02*
D03*
X344685D02*
D03*
X376772Y15846D02*
D03*
X387795D02*
D03*
D63*
X365748D02*
D03*
X376772Y5847D02*
D03*
X387795D02*
D03*
D64*
X315571Y7264D02*
D03*
X320571D02*
D03*
X325571D02*
D03*
X315571Y2264D02*
D03*
X320571D02*
D03*
X325571D02*
D03*
D65*
X334685Y5807D02*
D03*
D66*
X346834Y23769D02*
D03*
X321200Y35600D02*
D03*
X318076Y21680D02*
D03*
X332279Y33792D02*
D03*
X329372Y34592D02*
D03*
X334080Y28106D02*
D03*
X318766Y38519D02*
D03*
X358780Y40097D02*
D03*
X304900Y8600D02*
D03*
X370500Y9100D02*
D03*
X345800Y40800D02*
D03*
X297900Y46900D02*
D03*
X308684Y15280D02*
D03*
X69882Y29528D02*
D03*
X98425D02*
D03*
X249295Y29709D02*
D03*
X163386Y29528D02*
D03*
X191929Y31315D02*
D03*
X12795Y29528D02*
D03*
X41339D02*
D03*
X126969D02*
D03*
X220472D02*
D03*
X277728Y36248D02*
D03*
X295280Y39105D02*
D03*
X298280Y42206D02*
D03*
X296580Y19705D02*
D03*
X310179Y18805D02*
D03*
X304380Y17133D02*
D03*
X349016Y10269D02*
D03*
X314380Y46905D02*
D03*
X311135Y37051D02*
D03*
X313131Y22705D02*
D03*
X313275Y26028D02*
D03*
X337179Y22180D02*
D03*
X338066Y16219D02*
D03*
X335479Y40306D02*
D03*
X368679Y47905D02*
D03*
X383098Y49616D02*
D03*
X380879Y27606D02*
D03*
X383236Y39597D02*
D03*
X368392Y22118D02*
D03*
X364079Y47905D02*
D03*
X362792Y22993D02*
D03*
X303825Y13261D02*
D03*
X298079Y54405D02*
D03*
X296580Y16605D02*
D03*
X322280Y44405D02*
D03*
X339179Y27305D02*
D03*
X362179Y28506D02*
D03*
X360080Y31106D02*
D03*
X367663Y28114D02*
D03*
X373079Y22605D02*
D03*
X348280Y36018D02*
D03*
X368980Y44105D02*
D03*
X355979Y38405D02*
D03*
X342881Y31317D02*
D03*
X346645Y19195D02*
D03*
D84*
X311316Y26201D02*
D03*
X309348D02*
D03*
X307380D02*
D03*
X305411D02*
D03*
X303443D02*
D03*
X301474D02*
D03*
X299505D02*
D03*
X297537D02*
D03*
Y33406D02*
D03*
X299505D02*
D03*
X301474D02*
D03*
X303443D02*
D03*
X305411D02*
D03*
X307380D02*
D03*
X309348D02*
D03*
X311316D02*
D03*
D85*
X317980Y42437D02*
D03*
Y44405D02*
D03*
Y46374D02*
D03*
Y48342D02*
D03*
Y50311D02*
D03*
Y52280D02*
D03*
Y54248D02*
D03*
Y56217D02*
D03*
X310775D02*
D03*
Y54248D02*
D03*
Y52280D02*
D03*
Y50311D02*
D03*
Y48342D02*
D03*
Y46374D02*
D03*
Y44405D02*
D03*
Y42437D02*
D03*
X357484Y26574D02*
D03*
Y24606D02*
D03*
Y22637D02*
D03*
Y20669D02*
D03*
Y18700D02*
D03*
Y16732D02*
D03*
Y14763D02*
D03*
Y12795D02*
D03*
X350279D02*
D03*
Y14763D02*
D03*
Y16732D02*
D03*
Y18700D02*
D03*
Y20669D02*
D03*
Y22637D02*
D03*
Y24606D02*
D03*
Y26574D02*
D03*
X284275Y36248D02*
D03*
Y34280D02*
D03*
Y32311D02*
D03*
Y30343D02*
D03*
Y28374D02*
D03*
Y26406D02*
D03*
Y24437D02*
D03*
Y22468D02*
D03*
X291479D02*
D03*
Y24437D02*
D03*
Y26406D02*
D03*
Y28374D02*
D03*
Y30343D02*
D03*
Y32311D02*
D03*
Y34280D02*
D03*
Y36248D02*
D03*
D86*
X344516Y17728D02*
D03*
Y19105D02*
D03*
X341642Y17728D02*
D03*
Y20483D02*
D03*
Y19105D02*
D03*
D87*
X344418Y20483D02*
D03*
D88*
X386811Y39646D02*
D03*
X379331D02*
D03*
X386811Y49528D02*
D03*
X383071D02*
D03*
X379331D02*
D03*
D89*
X374705Y56004D02*
D03*
X370768D02*
D03*
D90*
X341102Y25205D02*
D03*
X342479D02*
D03*
X341102Y28080D02*
D03*
X343858D02*
D03*
X342479D02*
D03*
D91*
X343858Y25304D02*
D03*
M02*
