G04*
G04 #@! TF.GenerationSoftware,Altium Limited,Altium Designer,20.2.4 (192)*
G04*
G04 Layer_Physical_Order=2*
G04 Layer_Color=36540*
%FSLAX25Y25*%
%MOIN*%
G70*
G04*
G04 #@! TF.SameCoordinates,E28A416E-137A-4DA4-96E8-27F400694B22*
G04*
G04*
G04 #@! TF.FilePolarity,Positive*
G04*
G01*
G75*
%ADD13C,0.00600*%
%ADD16C,0.00800*%
%ADD64C,0.03150*%
%ADD75C,0.01575*%
D13*
X323079Y4705D02*
Y9554D01*
X323431Y9905D01*
X329080D01*
X337779Y18606D01*
X320638Y2264D02*
X323079Y4705D01*
D16*
X334286Y33792D02*
X336100Y35605D01*
X332279Y33792D02*
X334286D01*
X332279D02*
Y34195D01*
X358780Y40097D02*
Y41805D01*
X305527Y8600D02*
X316333Y19406D01*
X304900Y8600D02*
X305527D01*
X334829Y37419D02*
X342983D01*
X334711Y37302D02*
X334829Y37419D01*
X365479Y33406D02*
X370500Y28385D01*
Y9100D02*
Y28385D01*
X321243Y20063D02*
Y35557D01*
X310039Y8858D02*
X321243Y20063D01*
X321200Y35600D02*
X321243Y35557D01*
X317580Y34698D02*
X328387Y45505D01*
X317580Y32844D02*
Y34698D01*
X328387Y45505D02*
X352180D01*
X317580Y32844D02*
X318054Y32369D01*
Y30305D02*
Y32369D01*
X319893Y20899D02*
Y26103D01*
X318400Y19406D02*
X319893Y20899D01*
X300279Y33710D02*
X302579Y31410D01*
X300279Y33710D02*
Y50406D01*
X301679Y51806D01*
X302279Y34027D02*
Y49305D01*
Y34027D02*
X304380Y31927D01*
X304279Y34905D02*
X307132Y32054D01*
X310120D02*
X313275Y28899D01*
X307132Y32054D02*
X310120D01*
X313275Y26028D02*
Y28899D01*
X318190Y27806D02*
X319893Y26103D01*
X302579Y14715D02*
X303825Y13470D01*
X302579Y14715D02*
Y31410D01*
X303825Y13261D02*
Y13470D01*
X304380Y17133D02*
Y31927D01*
X316333Y19406D02*
X318400D01*
X344016Y10269D02*
X349016D01*
X338066Y16219D02*
X344016Y10269D01*
X311135Y36950D02*
Y37051D01*
Y36950D02*
X315280Y32805D01*
Y24854D02*
Y32805D01*
X313131Y22705D02*
X315280Y24854D01*
X345979Y35605D02*
X350480Y31106D01*
X336100Y35605D02*
X345979D01*
X334197Y24253D02*
X336900D01*
X334133Y24189D02*
X334197Y24253D01*
X383098Y49554D02*
Y49616D01*
X377649Y44105D02*
X383098Y49554D01*
X380670Y27606D02*
X380879D01*
X375664Y27238D02*
X380302D01*
X380670Y27606D01*
X304279Y47506D02*
X307080Y50305D01*
X304279Y34905D02*
Y47506D01*
X301679Y51806D02*
X304180D01*
X351243Y36679D02*
X353016Y34905D01*
X348489Y36018D02*
X349150Y36679D01*
X350379Y34804D02*
Y34892D01*
X351823Y38079D02*
X353596Y36305D01*
X350379Y34804D02*
X351778Y33406D01*
X349150Y36679D02*
X351243D01*
X342983Y37419D02*
X343643Y38079D01*
X351823D01*
X328107Y47205D02*
X353380D01*
X322820Y41918D02*
X328107Y47205D01*
X318766Y38519D02*
X322164Y41918D01*
X322820D01*
X333805Y31331D02*
X336680Y34205D01*
X333805Y29465D02*
X333931Y29339D01*
Y28254D02*
Y29339D01*
X333805Y29465D02*
Y31331D01*
X333931Y28254D02*
X334080Y28106D01*
X336900Y24253D02*
X338152Y25506D01*
X340779D01*
X342079Y26805D01*
X358380D01*
X362992Y26718D02*
X364779Y28506D01*
X358467Y26718D02*
X362992D01*
X358380Y26805D02*
X358467Y26718D01*
X359680Y28506D02*
X362179D01*
X358680Y29506D02*
X359680Y28506D01*
X350100Y29506D02*
X358680D01*
X350480Y31106D02*
X360080D01*
X345400Y34205D02*
X350100Y29506D01*
X336680Y34205D02*
X345400D01*
X351778Y33406D02*
X365479D01*
X348280Y36018D02*
X348489D01*
X365980Y34905D02*
X373079Y27806D01*
X353016Y34905D02*
X365980D01*
X360532Y36305D02*
X361964Y37738D01*
X353596Y36305D02*
X360532D01*
X373079Y22605D02*
Y27806D01*
X320571Y2264D02*
X320638D01*
X365164Y37738D02*
X375664Y27238D01*
X361964Y37738D02*
X365164D01*
X368980Y44105D02*
X377649D01*
X353380Y47205D02*
X358780Y41805D01*
X352180Y45505D02*
X355979Y41706D01*
Y38405D02*
Y41706D01*
D64*
X320571Y2264D02*
D03*
D75*
X321200Y35600D02*
D03*
X318190Y27806D02*
D03*
X332279Y33792D02*
D03*
X334080Y28106D02*
D03*
X334133Y24189D02*
D03*
X318054Y30305D02*
D03*
X318766Y38519D02*
D03*
X358780Y40097D02*
D03*
X304900Y8600D02*
D03*
X334711Y37302D02*
D03*
X370500Y9100D02*
D03*
X310039Y8858D02*
D03*
X304380Y17133D02*
D03*
X349016Y10269D02*
D03*
X311135Y37051D02*
D03*
X313131Y22705D02*
D03*
X313275Y26028D02*
D03*
X337779Y18606D02*
D03*
X338066Y16219D02*
D03*
X383098Y49616D02*
D03*
X380879Y27606D02*
D03*
X303825Y13261D02*
D03*
X307080Y50305D02*
D03*
X304180Y51806D02*
D03*
X302279Y49305D02*
D03*
X350379Y34892D02*
D03*
X362179Y28506D02*
D03*
X360080Y31106D02*
D03*
X373079Y22605D02*
D03*
X364779Y28506D02*
D03*
X348280Y36018D02*
D03*
X368980Y44105D02*
D03*
X355979Y38405D02*
D03*
M02*
