G04*
G04 #@! TF.GenerationSoftware,Altium Limited,Altium Designer,20.2.4 (192)*
G04*
G04 Layer_Color=65535*
%FSLAX25Y25*%
%MOIN*%
G70*
G04*
G04 #@! TF.SameCoordinates,E28A416E-137A-4DA4-96E8-27F400694B22*
G04*
G04*
G04 #@! TF.FilePolarity,Positive*
G04*
G01*
G75*
%ADD10C,0.00787*%
%ADD11C,0.00000*%
%ADD12C,0.01000*%
%ADD13C,0.00600*%
%ADD14C,0.00500*%
%ADD15C,0.00315*%
%ADD16C,0.00800*%
D10*
X327489Y18657D02*
G03*
X327489Y18657I-394J0D01*
G01*
X345965Y36457D02*
G03*
X345965Y36457I-394J0D01*
G01*
X304252Y7474D02*
G03*
X304252Y7474I-394J0D01*
G01*
X360236Y21358D02*
X371260D01*
X360236Y335D02*
X371260D01*
Y21358D01*
X360236Y335D02*
Y21358D01*
X329173Y295D02*
Y11319D01*
X360185Y295D02*
Y11319D01*
X329173D02*
X360185D01*
X329173Y295D02*
X360185D01*
X382283Y335D02*
Y21358D01*
X371260Y335D02*
Y21358D01*
X382283D01*
X371260Y335D02*
X382283D01*
X393307D02*
Y21358D01*
X382283Y335D02*
Y21358D01*
X393307D01*
X382283Y335D02*
X393307D01*
D11*
X384315Y25480D02*
G03*
X384315Y25480I-197J0D01*
G01*
D12*
X296942Y37332D02*
G03*
X296942Y37332I-500J0D01*
G01*
X327933Y7264D02*
G03*
X327933Y7264I-2362J0D01*
G01*
X362779Y57193D02*
X384279D01*
X362779Y51693D02*
Y57193D01*
Y31193D02*
Y36693D01*
Y31193D02*
X384279D01*
D13*
X307480Y44606D02*
G03*
X306779Y45706I-1247J-22D01*
G01*
X305780D02*
G03*
X305080Y44606I547J-1121D01*
G01*
X357319Y31625D02*
X358119D01*
Y15625D02*
Y16425D01*
X342119Y15625D02*
X342919D01*
X342119Y30825D02*
Y31625D01*
X342919D01*
X358119Y30825D02*
Y31625D01*
X342119Y15625D02*
Y16425D01*
X357319Y15625D02*
X358119D01*
X307480Y44605D02*
X312380D01*
X305080D02*
X307480D01*
X300180D02*
X305080D01*
X300180Y56805D02*
X312380D01*
D14*
X320993Y34011D02*
X323158D01*
X320993Y22200D02*
X323158D01*
X328670Y34011D02*
X330835D01*
X328670Y22200D02*
X330835D01*
X320993Y33814D02*
Y34011D01*
Y22200D02*
Y22397D01*
X330835Y33814D02*
Y34011D01*
Y22200D02*
Y22397D01*
X309442Y38331D02*
X311943D01*
Y35831D02*
Y38331D01*
Y22332D02*
Y24832D01*
X309442Y22332D02*
X311943D01*
X295942D02*
Y24832D01*
Y22332D02*
X298443D01*
X325886Y58760D02*
X355413D01*
X325886Y58169D02*
Y58760D01*
X355413Y58169D02*
Y58760D01*
Y41634D02*
Y47933D01*
X325886Y41634D02*
Y47933D01*
Y41634D02*
X327658D01*
X353642D02*
X355413D01*
D15*
X388843Y22331D02*
Y25382D01*
X384118Y22331D02*
X388843D01*
X384118D02*
Y25382D01*
X388843D01*
D16*
X322580Y39605D02*
Y37106D01*
X323080Y36606D01*
X324080D01*
X324580Y37106D01*
Y39605D01*
X325579Y39105D02*
X326079Y39605D01*
X327079D01*
X327579Y39105D01*
Y38605D01*
X327079Y38105D01*
X326579D01*
X327079D01*
X327579Y37606D01*
Y37106D01*
X327079Y36606D01*
X326079D01*
X325579Y37106D01*
X296900Y3801D02*
X293900D01*
Y5300D01*
X294400Y5800D01*
X295400D01*
X295900Y5300D01*
Y3801D01*
Y4800D02*
X296900Y5800D01*
X293900Y8799D02*
X294400Y7800D01*
X295400Y6800D01*
X296400D01*
X296900Y7300D01*
Y8299D01*
X296400Y8799D01*
X295900D01*
X295400Y8299D01*
Y6800D01*
X306001Y13600D02*
Y11100D01*
X306501Y10600D01*
X307500D01*
X308000Y11100D01*
Y13600D01*
X309000Y13100D02*
X309500Y13600D01*
X310499D01*
X310999Y13100D01*
Y12600D01*
X310499Y12100D01*
X310999Y11600D01*
Y11100D01*
X310499Y10600D01*
X309500D01*
X309000Y11100D01*
Y11600D01*
X309500Y12100D01*
X309000Y12600D01*
Y13100D01*
X309500Y12100D02*
X310499D01*
X308180Y50406D02*
X310679D01*
X311179Y50906D01*
Y51906D01*
X310679Y52406D01*
X308180D01*
Y53405D02*
Y55405D01*
X308680D01*
X310679Y53405D01*
X311179D01*
X301999Y19599D02*
X299500D01*
X299001Y19099D01*
Y18100D01*
X299500Y17600D01*
X301999D01*
X299001Y15101D02*
X301999D01*
X300500Y16600D01*
Y14601D01*
X380800Y23300D02*
Y25300D01*
X380300Y25800D01*
X379300D01*
X378801Y25300D01*
Y23300D01*
X379300Y22801D01*
X380300D01*
X379800Y23800D02*
X380800Y22801D01*
X380300D02*
X380800Y23300D01*
X381800Y22801D02*
X382799D01*
X382299D01*
Y25800D01*
X381800Y25300D01*
X393000Y22801D02*
X390001D01*
Y24300D01*
X390500Y24800D01*
X391500D01*
X392000Y24300D01*
Y22801D01*
X393000Y25800D02*
Y26799D01*
Y26300D01*
X390001D01*
X390500Y25800D01*
X318980Y13505D02*
X317980D01*
X318480D01*
Y11006D01*
X317980Y10506D01*
X317480D01*
X316980Y11006D01*
X319979Y13005D02*
X320479Y13505D01*
X321479D01*
X321979Y13005D01*
Y12505D01*
X321479Y12005D01*
X320979D01*
X321479D01*
X321979Y11506D01*
Y11006D01*
X321479Y10506D01*
X320479D01*
X319979Y11006D01*
X366580Y55305D02*
X365580D01*
X366080D01*
Y52806D01*
X365580Y52306D01*
X365080D01*
X364580Y52806D01*
X369579Y52306D02*
X367579D01*
X369579Y54305D01*
Y54805D01*
X369079Y55305D01*
X368079D01*
X367579Y54805D01*
X360179Y43905D02*
Y44905D01*
Y44405D01*
X357680D01*
X357180Y44905D01*
Y45405D01*
X357680Y45905D01*
X357180Y42906D02*
Y41906D01*
Y42406D01*
X360179D01*
X359679Y42906D01*
X325800Y15200D02*
X325300Y15699D01*
X324301D01*
X323801Y15200D01*
Y13200D01*
X324301Y12700D01*
X325300D01*
X325800Y13200D01*
X328299Y12700D02*
Y15699D01*
X326800Y14200D01*
X328799D01*
X338779Y33874D02*
X338280Y34374D01*
X337280D01*
X336780Y33874D01*
Y31874D01*
X337280Y31374D01*
X338280D01*
X338779Y31874D01*
X339779Y31374D02*
X340779D01*
X340279D01*
Y34374D01*
X339779Y33874D01*
M02*
