M48
;Layer_Color=9474304
;FILE_FORMAT=2:5
INCH,LZ
;TYPE=PLATED
T1F00S00C0.00787
T2F00S00C0.01378
T3F00S00C0.02559
T4F00S00C0.03248
T5F00S00C0.03543
%
T01
X0249295Y0029709
X0277728Y0036248
X029528Y0039105
Y0041906
X029828Y0042206
X02979Y00469
X0302279Y0049305
X030418Y0051806
X030708Y0050305
X0302589Y0055085
X0298079Y0054405
X0292779Y0045105
X0294349Y0032392
X029498Y0030311
X0294177Y002829
X029518Y0026305
X029658Y0019705
Y0016605
X030438Y0017133
X0303825Y0013261
X03049Y00086
X0310039Y0008858
X0313968Y000985
X0308684Y001528
X0310179Y0018805
X0312852Y0019893
X0313131Y0022705
X0313275Y0026028
X031819Y0027806
X0318054Y0030305
X0318106Y0024005
X0318076Y002168
X0323628Y0019057
X0326472Y0016845
X03341Y00177
X0337779Y0018606
X0338066Y0016219
X0337179Y002218
X0338804Y0023627
X0339179Y0027305
X0339414Y0030003
X033584Y0029958
X033408Y0028106
X033659Y0026799
X0334133Y0024189
X0332279Y0033792
X0329372Y0034592
X0334711Y0037302
X0335479Y0040306
X03458Y00408
X034828Y0036018
X0350379Y0034892
X0355979Y0038405
X035878Y0040097
X036008Y0031106
X0362179Y0028506
X0364779
X0367663Y0028114
X0367779Y0025706
X0368392Y0022118
X036588Y0022505
X0362792Y0022993
X0373079Y0022605
X0383067Y0020106
X0380879Y0027606
X0383236Y0039597
X0383098Y0049616
X0368679Y0047905
X036898Y0044105
X0364079Y0047905
X0342881Y0031317
X0346834Y0023769
X0346645Y0019195
X0349016Y0010269
X0339666Y0004519
X03705Y00091
X03212Y00356
X0318766Y0038519
X0312479Y0039406
X0311135Y0037051
X0309Y00406
X030938Y0030266
X0300055Y0029706
X031438Y0046905
X032228Y0044405
X0220472Y0029528
X0191929Y0031315
X0163386Y0029528
X0126969
X0098425
X0069882
X0041339
X0012795
T02
X0315571Y0002264
Y0007264
X0320571
X0325571
Y0002264
X0320571
T03
X0331102Y004124
X0350197
T04
X0326821Y0053051
X0354478
T05
X0334685Y0005807
X0344685
X0354685
X0365748Y0005847
Y0015846
X0376772
Y0005847
X0387795
Y0015846
M30
