G04*
G04 #@! TF.GenerationSoftware,Altium Limited,Altium Designer,20.2.4 (192)*
G04*
G04 Layer_Color=128*
%FSLAX25Y25*%
%MOIN*%
G70*
G04*
G04 #@! TF.SameCoordinates,E28A416E-137A-4DA4-96E8-27F400694B22*
G04*
G04*
G04 #@! TF.FilePolarity,Positive*
G04*
G01*
G75*
%ADD19R,0.03150X0.03300*%
%ADD37R,0.03300X0.03150*%
G04:AMPARAMS|DCode=76|XSize=35.04mil|YSize=11.42mil|CornerRadius=2.85mil|HoleSize=0mil|Usage=FLASHONLY|Rotation=90.000|XOffset=0mil|YOffset=0mil|HoleType=Round|Shape=RoundedRectangle|*
%AMROUNDEDRECTD76*
21,1,0.03504,0.00571,0,0,90.0*
21,1,0.02933,0.01142,0,0,90.0*
1,1,0.00571,0.00285,0.01467*
1,1,0.00571,0.00285,-0.01467*
1,1,0.00571,-0.00285,-0.01467*
1,1,0.00571,-0.00285,0.01467*
%
%ADD76ROUNDEDRECTD76*%
G04:AMPARAMS|DCode=77|XSize=35.04mil|YSize=11.42mil|CornerRadius=2.85mil|HoleSize=0mil|Usage=FLASHONLY|Rotation=180.000|XOffset=0mil|YOffset=0mil|HoleType=Round|Shape=RoundedRectangle|*
%AMROUNDEDRECTD77*
21,1,0.03504,0.00571,0,0,180.0*
21,1,0.02933,0.01142,0,0,180.0*
1,1,0.00571,-0.01467,0.00285*
1,1,0.00571,0.01467,0.00285*
1,1,0.00571,0.01467,-0.00285*
1,1,0.00571,-0.01467,-0.00285*
%
%ADD77ROUNDEDRECTD77*%
G04:AMPARAMS|DCode=78|XSize=20.47mil|YSize=7.48mil|CornerRadius=0.67mil|HoleSize=0mil|Usage=FLASHONLY|Rotation=0.000|XOffset=0mil|YOffset=0mil|HoleType=Round|Shape=RoundedRectangle|*
%AMROUNDEDRECTD78*
21,1,0.02047,0.00613,0,0,0.0*
21,1,0.01913,0.00748,0,0,0.0*
1,1,0.00135,0.00956,-0.00307*
1,1,0.00135,-0.00956,-0.00307*
1,1,0.00135,-0.00956,0.00307*
1,1,0.00135,0.00956,0.00307*
%
%ADD78ROUNDEDRECTD78*%
G04:AMPARAMS|DCode=79|XSize=22.44mil|YSize=7.48mil|CornerRadius=0.67mil|HoleSize=0mil|Usage=FLASHONLY|Rotation=0.000|XOffset=0mil|YOffset=0mil|HoleType=Round|Shape=RoundedRectangle|*
%AMROUNDEDRECTD79*
21,1,0.02244,0.00613,0,0,0.0*
21,1,0.02109,0.00748,0,0,0.0*
1,1,0.00135,0.01055,-0.00307*
1,1,0.00135,-0.01055,-0.00307*
1,1,0.00135,-0.01055,0.00307*
1,1,0.00135,0.01055,0.00307*
%
%ADD79ROUNDEDRECTD79*%
G04:AMPARAMS|DCode=80|XSize=47.64mil|YSize=22.84mil|CornerRadius=2.85mil|HoleSize=0mil|Usage=FLASHONLY|Rotation=270.000|XOffset=0mil|YOffset=0mil|HoleType=Round|Shape=RoundedRectangle|*
%AMROUNDEDRECTD80*
21,1,0.04764,0.01713,0,0,270.0*
21,1,0.04193,0.02284,0,0,270.0*
1,1,0.00571,-0.00856,-0.02097*
1,1,0.00571,-0.00856,0.02097*
1,1,0.00571,0.00856,0.02097*
1,1,0.00571,0.00856,-0.02097*
%
%ADD80ROUNDEDRECTD80*%
%ADD81R,0.02362X0.01968*%
G04:AMPARAMS|DCode=82|XSize=20.47mil|YSize=7.48mil|CornerRadius=0.67mil|HoleSize=0mil|Usage=FLASHONLY|Rotation=270.000|XOffset=0mil|YOffset=0mil|HoleType=Round|Shape=RoundedRectangle|*
%AMROUNDEDRECTD82*
21,1,0.02047,0.00613,0,0,270.0*
21,1,0.01913,0.00748,0,0,270.0*
1,1,0.00135,-0.00307,-0.00956*
1,1,0.00135,-0.00307,0.00956*
1,1,0.00135,0.00307,0.00956*
1,1,0.00135,0.00307,-0.00956*
%
%ADD82ROUNDEDRECTD82*%
G04:AMPARAMS|DCode=83|XSize=22.44mil|YSize=7.48mil|CornerRadius=0.67mil|HoleSize=0mil|Usage=FLASHONLY|Rotation=270.000|XOffset=0mil|YOffset=0mil|HoleType=Round|Shape=RoundedRectangle|*
%AMROUNDEDRECTD83*
21,1,0.02244,0.00613,0,0,270.0*
21,1,0.02109,0.00748,0,0,270.0*
1,1,0.00135,-0.00307,-0.01055*
1,1,0.00135,-0.00307,0.01055*
1,1,0.00135,0.00307,0.01055*
1,1,0.00135,0.00307,-0.01055*
%
%ADD83ROUNDEDRECTD83*%
G36*
X331265Y43695D02*
X331372Y43684D01*
X331479Y43667D01*
X331585Y43644D01*
X331690Y43616D01*
X331793Y43583D01*
X331894Y43544D01*
X331993Y43500D01*
X332089Y43451D01*
X332183Y43397D01*
X332274Y43338D01*
X332361Y43274D01*
X332445Y43206D01*
X332526Y43134D01*
X332602Y43057D01*
X332675Y42977D01*
X332743Y42893D01*
X332806Y42805D01*
X332865Y42714D01*
X332920Y42621D01*
X332969Y42524D01*
X333013Y42425D01*
X333051Y42324D01*
X333085Y42221D01*
X333113Y42116D01*
X333135Y42011D01*
X333152Y41904D01*
X333164Y41796D01*
X333169Y41688D01*
Y41634D01*
Y40846D01*
Y40792D01*
X333164Y40684D01*
X333152Y40577D01*
X333135Y40470D01*
X333113Y40364D01*
X333085Y40259D01*
X333051Y40156D01*
X333013Y40055D01*
X332969Y39956D01*
X332920Y39860D01*
X332865Y39766D01*
X332806Y39675D01*
X332743Y39588D01*
X332675Y39504D01*
X332602Y39423D01*
X332526Y39347D01*
X332445Y39274D01*
X332361Y39206D01*
X332274Y39143D01*
X332183Y39083D01*
X332089Y39029D01*
X331993Y38980D01*
X331894Y38936D01*
X331793Y38897D01*
X331690Y38864D01*
X331585Y38836D01*
X331479Y38813D01*
X331372Y38796D01*
X331265Y38785D01*
X331156Y38780D01*
X331048D01*
X330940Y38785D01*
X330833Y38796D01*
X330726Y38813D01*
X330620Y38836D01*
X330515Y38864D01*
X330412Y38897D01*
X330311Y38936D01*
X330212Y38980D01*
X330116Y39029D01*
X330022Y39083D01*
X329931Y39142D01*
X329844Y39206D01*
X329760Y39274D01*
X329679Y39347D01*
X329603Y39423D01*
X329530Y39504D01*
X329462Y39588D01*
X329398Y39675D01*
X329339Y39766D01*
X329285Y39860D01*
X329236Y39956D01*
X329192Y40055D01*
X329153Y40156D01*
X329120Y40259D01*
X329092Y40364D01*
X329069Y40470D01*
X329052Y40577D01*
X329041Y40684D01*
X329035Y40792D01*
Y40846D01*
Y41634D01*
Y41688D01*
X329041Y41796D01*
X329052Y41904D01*
X329069Y42011D01*
X329092Y42116D01*
X329120Y42221D01*
X329153Y42324D01*
X329192Y42425D01*
X329236Y42524D01*
X329285Y42620D01*
X329339Y42714D01*
X329398Y42805D01*
X329462Y42893D01*
X329530Y42977D01*
X329603Y43057D01*
X329679Y43134D01*
X329760Y43206D01*
X329844Y43274D01*
X329931Y43338D01*
X330022Y43397D01*
X330116Y43451D01*
X330212Y43500D01*
X330311Y43544D01*
X330412Y43583D01*
X330515Y43616D01*
X330620Y43644D01*
X330726Y43667D01*
X330833Y43684D01*
X330940Y43695D01*
X331048Y43701D01*
X331156D01*
X331265Y43695D01*
D02*
G37*
G36*
X330413Y53051D02*
Y49311D01*
X324063D01*
X323960Y49316D01*
X323857Y49327D01*
X323755Y49343D01*
X323655Y49365D01*
X323555Y49391D01*
X323457Y49423D01*
X323361Y49460D01*
X323266Y49502D01*
X323175Y49549D01*
X323085Y49600D01*
X322999Y49657D01*
X322915Y49717D01*
X322835Y49782D01*
X322759Y49851D01*
X322686Y49924D01*
X322617Y50001D01*
X322552Y50081D01*
X322491Y50164D01*
X322435Y50251D01*
X322384Y50340D01*
X322337Y50432D01*
X322295Y50526D01*
X322258Y50622D01*
X322226Y50720D01*
X322199Y50820D01*
X322178Y50921D01*
X322162Y51022D01*
X322151Y51125D01*
X322146Y51228D01*
Y51279D01*
Y53051D01*
Y54823D01*
Y54874D01*
X322151Y54977D01*
X322162Y55080D01*
X322178Y55182D01*
X322199Y55282D01*
X322226Y55382D01*
X322258Y55480D01*
X322295Y55576D01*
X322337Y55671D01*
X322384Y55762D01*
X322435Y55852D01*
X322491Y55938D01*
X322552Y56022D01*
X322617Y56102D01*
X322686Y56178D01*
X322759Y56251D01*
X322835Y56320D01*
X322915Y56385D01*
X322999Y56446D01*
X323085Y56502D01*
X323175Y56553D01*
X323266Y56600D01*
X323361Y56642D01*
X323457Y56679D01*
X323555Y56711D01*
X323655Y56738D01*
X323755Y56759D01*
X323857Y56775D01*
X323960Y56786D01*
X324063Y56791D01*
X330413D01*
Y53051D01*
D02*
G37*
G36*
X350359Y43695D02*
X350467Y43684D01*
X350574Y43667D01*
X350679Y43644D01*
X350784Y43616D01*
X350887Y43583D01*
X350988Y43544D01*
X351087Y43500D01*
X351183Y43451D01*
X351277Y43397D01*
X351368Y43338D01*
X351455Y43274D01*
X351540Y43206D01*
X351620Y43134D01*
X351697Y43057D01*
X351769Y42977D01*
X351837Y42893D01*
X351901Y42805D01*
X351960Y42714D01*
X352014Y42621D01*
X352063Y42524D01*
X352107Y42425D01*
X352146Y42324D01*
X352179Y42221D01*
X352207Y42116D01*
X352230Y42011D01*
X352247Y41904D01*
X352258Y41796D01*
X352264Y41688D01*
Y41634D01*
Y40846D01*
Y40792D01*
X352258Y40684D01*
X352247Y40577D01*
X352230Y40470D01*
X352207Y40364D01*
X352179Y40259D01*
X352146Y40156D01*
X352107Y40055D01*
X352063Y39956D01*
X352014Y39860D01*
X351960Y39766D01*
X351901Y39675D01*
X351837Y39588D01*
X351769Y39504D01*
X351697Y39423D01*
X351620Y39347D01*
X351540Y39274D01*
X351455Y39206D01*
X351368Y39143D01*
X351277Y39083D01*
X351184Y39029D01*
X351087Y38980D01*
X350988Y38936D01*
X350887Y38897D01*
X350784Y38864D01*
X350679Y38836D01*
X350574Y38813D01*
X350467Y38796D01*
X350359Y38785D01*
X350251Y38780D01*
X350143D01*
X350035Y38785D01*
X349927Y38796D01*
X349820Y38813D01*
X349714Y38836D01*
X349610Y38864D01*
X349507Y38897D01*
X349406Y38936D01*
X349307Y38980D01*
X349210Y39029D01*
X349116Y39083D01*
X349026Y39142D01*
X348938Y39206D01*
X348854Y39274D01*
X348774Y39347D01*
X348697Y39423D01*
X348625Y39504D01*
X348556Y39588D01*
X348493Y39675D01*
X348434Y39766D01*
X348380Y39860D01*
X348331Y39956D01*
X348287Y40055D01*
X348248Y40156D01*
X348214Y40259D01*
X348186Y40364D01*
X348164Y40470D01*
X348147Y40577D01*
X348136Y40684D01*
X348130Y40792D01*
Y40846D01*
Y41634D01*
Y41688D01*
X348136Y41796D01*
X348147Y41904D01*
X348164Y42011D01*
X348186Y42116D01*
X348214Y42221D01*
X348248Y42324D01*
X348287Y42425D01*
X348331Y42524D01*
X348380Y42620D01*
X348434Y42714D01*
X348493Y42805D01*
X348556Y42893D01*
X348625Y42977D01*
X348697Y43057D01*
X348774Y43134D01*
X348854Y43206D01*
X348938Y43274D01*
X349026Y43338D01*
X349116Y43397D01*
X349210Y43451D01*
X349307Y43500D01*
X349406Y43544D01*
X349507Y43583D01*
X349610Y43616D01*
X349714Y43644D01*
X349820Y43667D01*
X349927Y43684D01*
X350035Y43695D01*
X350143Y43701D01*
X350251D01*
X350359Y43695D01*
D02*
G37*
G36*
X357340Y56786D02*
X357442Y56775D01*
X357544Y56759D01*
X357645Y56738D01*
X357744Y56711D01*
X357842Y56679D01*
X357939Y56642D01*
X358033Y56600D01*
X358125Y56553D01*
X358214Y56502D01*
X358300Y56446D01*
X358384Y56385D01*
X358464Y56320D01*
X358541Y56251D01*
X358613Y56178D01*
X358682Y56102D01*
X358747Y56022D01*
X358808Y55938D01*
X358864Y55852D01*
X358916Y55762D01*
X358962Y55671D01*
X359004Y55576D01*
X359041Y55480D01*
X359073Y55382D01*
X359100Y55282D01*
X359121Y55182D01*
X359137Y55080D01*
X359148Y54977D01*
X359154Y54874D01*
Y54823D01*
Y53051D01*
Y51279D01*
Y51228D01*
X359148Y51125D01*
X359137Y51022D01*
X359121Y50921D01*
X359100Y50820D01*
X359073Y50720D01*
X359041Y50622D01*
X359004Y50526D01*
X358962Y50432D01*
X358916Y50340D01*
X358864Y50251D01*
X358808Y50164D01*
X358747Y50081D01*
X358682Y50001D01*
X358613Y49924D01*
X358541Y49851D01*
X358464Y49782D01*
X358384Y49717D01*
X358300Y49657D01*
X358214Y49600D01*
X358125Y49549D01*
X358033Y49502D01*
X357939Y49460D01*
X357842Y49423D01*
X357744Y49391D01*
X357645Y49365D01*
X357544Y49343D01*
X357442Y49327D01*
X357340Y49316D01*
X357237Y49311D01*
X350886D01*
Y53051D01*
Y56791D01*
X357237D01*
X357340Y56786D01*
D02*
G37*
%LPC*%
G36*
X331136Y42913D02*
X331069D01*
X331002Y42910D01*
X330935Y42903D01*
X330869Y42892D01*
X330804Y42878D01*
X330739Y42861D01*
X330675Y42840D01*
X330613Y42816D01*
X330551Y42789D01*
X330492Y42759D01*
X330434Y42725D01*
X330377Y42689D01*
X330323Y42649D01*
X330271Y42607D01*
X330221Y42562D01*
X330174Y42515D01*
X330129Y42465D01*
X330087Y42413D01*
X330047Y42359D01*
X330011Y42303D01*
X329977Y42245D01*
X329947Y42185D01*
X329920Y42124D01*
X329896Y42061D01*
X329875Y41997D01*
X329858Y41933D01*
X329844Y41867D01*
X329833Y41801D01*
X329826Y41734D01*
X329823Y41667D01*
Y41634D01*
Y40846D01*
Y40813D01*
X329826Y40746D01*
X329833Y40679D01*
X329844Y40613D01*
X329858Y40548D01*
X329875Y40483D01*
X329896Y40419D01*
X329920Y40357D01*
X329947Y40295D01*
X329977Y40236D01*
X330011Y40178D01*
X330047Y40121D01*
X330087Y40067D01*
X330129Y40015D01*
X330174Y39965D01*
X330221Y39918D01*
X330271Y39873D01*
X330323Y39831D01*
X330377Y39792D01*
X330434Y39755D01*
X330492Y39722D01*
X330551Y39691D01*
X330612Y39664D01*
X330675Y39640D01*
X330739Y39619D01*
X330803Y39602D01*
X330869Y39588D01*
X330935Y39577D01*
X331002Y39570D01*
X331069Y39567D01*
X331136D01*
X331203Y39570D01*
X331269Y39577D01*
X331336Y39588D01*
X331401Y39602D01*
X331466Y39619D01*
X331530Y39640D01*
X331592Y39664D01*
X331653Y39691D01*
X331713Y39722D01*
X331771Y39755D01*
X331827Y39792D01*
X331881Y39831D01*
X331934Y39873D01*
X331983Y39918D01*
X332031Y39965D01*
X332076Y40015D01*
X332118Y40067D01*
X332157Y40121D01*
X332194Y40178D01*
X332227Y40236D01*
X332258Y40295D01*
X332285Y40357D01*
X332309Y40419D01*
X332330Y40483D01*
X332347Y40548D01*
X332361Y40613D01*
X332371Y40679D01*
X332378Y40746D01*
X332382Y40813D01*
Y40846D01*
Y41634D01*
Y41667D01*
X332378Y41734D01*
X332371Y41801D01*
X332361Y41867D01*
X332347Y41933D01*
X332330Y41997D01*
X332309Y42061D01*
X332285Y42124D01*
X332258Y42185D01*
X332227Y42245D01*
X332194Y42303D01*
X332157Y42359D01*
X332118Y42413D01*
X332076Y42465D01*
X332031Y42515D01*
X331983Y42562D01*
X331934Y42607D01*
X331882Y42649D01*
X331827Y42689D01*
X331771Y42725D01*
X331713Y42759D01*
X331653Y42789D01*
X331592Y42816D01*
X331530Y42840D01*
X331466Y42861D01*
X331401Y42878D01*
X331336Y42892D01*
X331270Y42903D01*
X331203Y42910D01*
X331136Y42913D01*
D02*
G37*
G36*
X327295Y56004D02*
X326347D01*
X326285Y56001D01*
X326224Y55994D01*
X326163Y55985D01*
X326102Y55972D01*
X326042Y55956D01*
X325984Y55937D01*
X325926Y55914D01*
X325869Y55889D01*
X325814Y55861D01*
X325761Y55830D01*
X325709Y55796D01*
X325659Y55760D01*
X325611Y55721D01*
X325565Y55680D01*
X325521Y55636D01*
X325480Y55590D01*
X325441Y55542D01*
X325404Y55492D01*
X325371Y55440D01*
X325340Y55387D01*
X325311Y55331D01*
X325286Y55275D01*
X325264Y55217D01*
X325245Y55158D01*
X325229Y55099D01*
X325216Y55038D01*
X325206Y54977D01*
X325200Y54915D01*
X325197Y54854D01*
Y54823D01*
Y53051D01*
Y51181D01*
Y51153D01*
X325200Y51096D01*
X325206Y51040D01*
X325215Y50984D01*
X325226Y50928D01*
X325241Y50874D01*
X325259Y50820D01*
X325279Y50767D01*
X325302Y50715D01*
X325328Y50664D01*
X325356Y50615D01*
X325387Y50568D01*
X325420Y50522D01*
X325456Y50478D01*
X325494Y50436D01*
X325534Y50396D01*
X325576Y50358D01*
X325620Y50322D01*
X325666Y50288D01*
X325714Y50258D01*
X325763Y50229D01*
X325813Y50204D01*
X325865Y50181D01*
X325918Y50160D01*
X325972Y50143D01*
X326027Y50128D01*
X326082Y50116D01*
X326138Y50107D01*
X326195Y50101D01*
X326251Y50098D01*
X327295D01*
X327357Y50102D01*
X327418Y50108D01*
X327479Y50118D01*
X327540Y50131D01*
X327599Y50147D01*
X327658Y50166D01*
X327716Y50188D01*
X327772Y50213D01*
X327828Y50241D01*
X327881Y50272D01*
X327933Y50306D01*
X327983Y50342D01*
X328031Y50381D01*
X328077Y50423D01*
X328121Y50466D01*
X328162Y50512D01*
X328201Y50560D01*
X328238Y50610D01*
X328271Y50662D01*
X328302Y50716D01*
X328330Y50771D01*
X328355Y50827D01*
X328378Y50885D01*
X328397Y50944D01*
X328413Y51004D01*
X328426Y51064D01*
X328435Y51125D01*
X328442Y51187D01*
X328445Y51249D01*
Y51279D01*
Y53051D01*
Y54823D01*
Y54854D01*
X328442Y54915D01*
X328435Y54977D01*
X328426Y55038D01*
X328413Y55099D01*
X328397Y55158D01*
X328378Y55217D01*
X328355Y55275D01*
X328330Y55331D01*
X328302Y55387D01*
X328271Y55440D01*
X328238Y55492D01*
X328201Y55542D01*
X328162Y55590D01*
X328121Y55636D01*
X328077Y55680D01*
X328031Y55721D01*
X327983Y55760D01*
X327933Y55797D01*
X327881Y55830D01*
X327828Y55861D01*
X327772Y55889D01*
X327716Y55914D01*
X327658Y55937D01*
X327599Y55956D01*
X327540Y55972D01*
X327479Y55985D01*
X327418Y55994D01*
X327357Y56001D01*
X327295Y56004D01*
D02*
G37*
G36*
X350230Y42913D02*
X350163D01*
X350096Y42910D01*
X350030Y42903D01*
X349964Y42892D01*
X349898Y42878D01*
X349833Y42861D01*
X349770Y42840D01*
X349707Y42816D01*
X349646Y42789D01*
X349586Y42759D01*
X349528Y42725D01*
X349472Y42689D01*
X349418Y42649D01*
X349366Y42607D01*
X349316Y42562D01*
X349268Y42515D01*
X349223Y42465D01*
X349181Y42413D01*
X349142Y42359D01*
X349106Y42303D01*
X349072Y42245D01*
X349042Y42185D01*
X349014Y42124D01*
X348990Y42061D01*
X348970Y41997D01*
X348952Y41933D01*
X348938Y41867D01*
X348928Y41801D01*
X348921Y41734D01*
X348917Y41667D01*
Y41634D01*
Y40846D01*
Y40813D01*
X348921Y40746D01*
X348928Y40679D01*
X348938Y40613D01*
X348952Y40548D01*
X348970Y40483D01*
X348990Y40419D01*
X349014Y40357D01*
X349042Y40295D01*
X349072Y40236D01*
X349106Y40178D01*
X349142Y40121D01*
X349181Y40067D01*
X349223Y40015D01*
X349268Y39965D01*
X349316Y39918D01*
X349366Y39873D01*
X349418Y39831D01*
X349472Y39792D01*
X349528Y39755D01*
X349586Y39722D01*
X349646Y39691D01*
X349707Y39664D01*
X349770Y39640D01*
X349833Y39619D01*
X349898Y39602D01*
X349964Y39588D01*
X350030Y39577D01*
X350096Y39570D01*
X350163Y39567D01*
X350230D01*
X350297Y39570D01*
X350364Y39577D01*
X350430Y39588D01*
X350496Y39602D01*
X350560Y39619D01*
X350624Y39640D01*
X350687Y39664D01*
X350748Y39691D01*
X350808Y39722D01*
X350866Y39755D01*
X350922Y39792D01*
X350976Y39831D01*
X351028Y39873D01*
X351078Y39918D01*
X351125Y39965D01*
X351170Y40015D01*
X351212Y40067D01*
X351252Y40121D01*
X351288Y40178D01*
X351322Y40236D01*
X351352Y40295D01*
X351379Y40357D01*
X351403Y40419D01*
X351424Y40483D01*
X351442Y40548D01*
X351455Y40613D01*
X351466Y40679D01*
X351473Y40746D01*
X351476Y40813D01*
Y40846D01*
Y41634D01*
Y41667D01*
X351473Y41734D01*
X351466Y41801D01*
X351455Y41867D01*
X351442Y41933D01*
X351424Y41997D01*
X351403Y42061D01*
X351379Y42124D01*
X351352Y42185D01*
X351322Y42245D01*
X351288Y42303D01*
X351252Y42359D01*
X351212Y42413D01*
X351170Y42465D01*
X351125Y42515D01*
X351078Y42562D01*
X351028Y42607D01*
X350976Y42649D01*
X350922Y42689D01*
X350866Y42725D01*
X350808Y42759D01*
X350748Y42789D01*
X350687Y42816D01*
X350624Y42840D01*
X350560Y42861D01*
X350496Y42878D01*
X350430Y42892D01*
X350364Y42903D01*
X350297Y42910D01*
X350230Y42913D01*
D02*
G37*
G36*
X355048Y56004D02*
X354005D01*
X353943Y56001D01*
X353881Y55994D01*
X353820Y55985D01*
X353760Y55972D01*
X353700Y55956D01*
X353641Y55937D01*
X353583Y55914D01*
X353527Y55889D01*
X353472Y55861D01*
X353418Y55830D01*
X353366Y55797D01*
X353316Y55760D01*
X353268Y55721D01*
X353222Y55680D01*
X353178Y55636D01*
X353137Y55590D01*
X353098Y55542D01*
X353062Y55492D01*
X353028Y55440D01*
X352997Y55387D01*
X352969Y55331D01*
X352944Y55275D01*
X352922Y55217D01*
X352903Y55158D01*
X352887Y55099D01*
X352874Y55038D01*
X352864Y54977D01*
X352858Y54915D01*
X352854Y54854D01*
Y54823D01*
Y53051D01*
Y51279D01*
Y51249D01*
X352858Y51187D01*
X352864Y51125D01*
X352874Y51064D01*
X352887Y51004D01*
X352903Y50944D01*
X352922Y50885D01*
X352944Y50827D01*
X352969Y50771D01*
X352997Y50716D01*
X353028Y50662D01*
X353062Y50610D01*
X353098Y50560D01*
X353137Y50512D01*
X353178Y50466D01*
X353222Y50423D01*
X353268Y50381D01*
X353316Y50342D01*
X353366Y50306D01*
X353418Y50272D01*
X353472Y50241D01*
X353527Y50213D01*
X353583Y50188D01*
X353641Y50166D01*
X353700Y50147D01*
X353760Y50131D01*
X353820Y50118D01*
X353881Y50108D01*
X353943Y50102D01*
X354005Y50098D01*
X354952D01*
X355014Y50102D01*
X355076Y50108D01*
X355137Y50118D01*
X355197Y50131D01*
X355257Y50147D01*
X355316Y50166D01*
X355373Y50188D01*
X355430Y50213D01*
X355485Y50241D01*
X355539Y50272D01*
X355591Y50306D01*
X355641Y50342D01*
X355689Y50381D01*
X355735Y50423D01*
X355778Y50466D01*
X355820Y50512D01*
X355859Y50560D01*
X355895Y50610D01*
X355929Y50662D01*
X355960Y50716D01*
X355988Y50771D01*
X356013Y50827D01*
X356035Y50885D01*
X356054Y50944D01*
X356070Y51004D01*
X356083Y51064D01*
X356093Y51125D01*
X356099Y51187D01*
X356102Y51249D01*
Y51279D01*
Y53051D01*
Y54921D01*
Y54950D01*
X356099Y55006D01*
X356094Y55063D01*
X356085Y55119D01*
X356073Y55174D01*
X356058Y55229D01*
X356041Y55283D01*
X356020Y55336D01*
X355997Y55388D01*
X355972Y55438D01*
X355943Y55487D01*
X355912Y55535D01*
X355879Y55581D01*
X355843Y55625D01*
X355805Y55667D01*
X355765Y55707D01*
X355723Y55745D01*
X355679Y55781D01*
X355633Y55814D01*
X355586Y55845D01*
X355537Y55873D01*
X355486Y55899D01*
X355434Y55922D01*
X355381Y55942D01*
X355327Y55960D01*
X355273Y55974D01*
X355217Y55986D01*
X355161Y55995D01*
X355105Y56001D01*
X355048Y56004D01*
D02*
G37*
%LPD*%
D19*
X298379Y53806D02*
D03*
Y47605D02*
D03*
X305780Y2605D02*
D03*
Y8806D02*
D03*
X310680Y8906D02*
D03*
Y2705D02*
D03*
X371161Y2805D02*
D03*
Y9006D02*
D03*
X335879Y55906D02*
D03*
Y49705D02*
D03*
X340079Y55906D02*
D03*
Y49705D02*
D03*
X344280Y55906D02*
D03*
Y49705D02*
D03*
X372835Y40994D02*
D03*
Y47195D02*
D03*
D37*
X323280Y12306D02*
D03*
X317079D02*
D03*
X291180Y51006D02*
D03*
X284979D02*
D03*
X291180Y46505D02*
D03*
X284979D02*
D03*
X328379Y12306D02*
D03*
X334580D02*
D03*
X369980Y36705D02*
D03*
X363779D02*
D03*
X369880Y32206D02*
D03*
X363679D02*
D03*
X379331Y22343D02*
D03*
X373130D02*
D03*
X385974Y33858D02*
D03*
X379774D02*
D03*
X379675Y56004D02*
D03*
X385876D02*
D03*
D76*
X311316Y26201D02*
D03*
X309348D02*
D03*
X307380D02*
D03*
X305411D02*
D03*
X303443D02*
D03*
X301474D02*
D03*
X299505D02*
D03*
X297537D02*
D03*
Y33406D02*
D03*
X299505D02*
D03*
X301474D02*
D03*
X303443D02*
D03*
X305411D02*
D03*
X307380D02*
D03*
X309348D02*
D03*
X311316D02*
D03*
D77*
X317980Y42437D02*
D03*
Y44405D02*
D03*
Y46374D02*
D03*
Y48342D02*
D03*
Y50311D02*
D03*
Y52280D02*
D03*
Y54248D02*
D03*
Y56217D02*
D03*
X310775D02*
D03*
Y54248D02*
D03*
Y52280D02*
D03*
Y50311D02*
D03*
Y48342D02*
D03*
Y46374D02*
D03*
Y44405D02*
D03*
Y42437D02*
D03*
X357484Y26574D02*
D03*
Y24606D02*
D03*
Y22637D02*
D03*
Y20669D02*
D03*
Y18700D02*
D03*
Y16732D02*
D03*
Y14763D02*
D03*
Y12795D02*
D03*
X350279D02*
D03*
Y14763D02*
D03*
Y16732D02*
D03*
Y18700D02*
D03*
Y20669D02*
D03*
Y22637D02*
D03*
Y24606D02*
D03*
Y26574D02*
D03*
X284275Y36248D02*
D03*
Y34280D02*
D03*
Y32311D02*
D03*
Y30343D02*
D03*
Y28374D02*
D03*
Y26406D02*
D03*
Y24437D02*
D03*
Y22468D02*
D03*
X291479D02*
D03*
Y24437D02*
D03*
Y26406D02*
D03*
Y28374D02*
D03*
Y30343D02*
D03*
Y32311D02*
D03*
Y34280D02*
D03*
Y36248D02*
D03*
D78*
X344516Y17728D02*
D03*
Y19105D02*
D03*
X341642Y17728D02*
D03*
Y20483D02*
D03*
Y19105D02*
D03*
D79*
X344418Y20483D02*
D03*
D80*
X386811Y39646D02*
D03*
X379331D02*
D03*
X386811Y49528D02*
D03*
X383071D02*
D03*
X379331D02*
D03*
D81*
X374705Y56004D02*
D03*
X370768D02*
D03*
D82*
X341102Y25205D02*
D03*
X342479D02*
D03*
X341102Y28080D02*
D03*
X343858D02*
D03*
X342479D02*
D03*
D83*
X343858Y25304D02*
D03*
M02*
