G04*
G04 #@! TF.GenerationSoftware,Altium Limited,Altium Designer,20.2.4 (192)*
G04*
G04 Layer_Color=32896*
%FSLAX25Y25*%
%MOIN*%
G70*
G04*
G04 #@! TF.SameCoordinates,D12834CA-4DE5-443E-9A18-81BA23B25CB7*
G04*
G04*
G04 #@! TF.FilePolarity,Positive*
G04*
G01*
G75*
%ADD264C,0.00700*%
D264*
X-12549Y-6107D02*
X-10429Y-3986D01*
X-9368Y-5046D01*
X-9368Y-5753D01*
X-10782Y-7167D01*
X-11489Y-7167D01*
X-12549Y-6107D01*
X-9015Y-9641D02*
X-9368Y-8581D01*
X-9368Y-7167D01*
X-8661Y-6460D01*
X-7954D01*
X-7248Y-7167D01*
X-7248Y-7874D01*
X-7601Y-8228D01*
X-8308Y-8228D01*
X-9368Y-7167D01*
X-7954Y-9995D02*
Y-10701D01*
X-7248Y-11408D01*
X-6541D01*
X-5127Y-9995D01*
X-5127Y-9288D01*
X-5834Y-8581D01*
X-6541D01*
X-7954Y-9995D01*
X6107Y-11762D02*
X3986Y-9641D01*
X5046Y-8581D01*
X5753Y-8581D01*
X7167Y-9995D01*
X7167Y-10701D01*
X6107Y-11762D01*
X9641Y-8228D02*
X8228Y-9641D01*
X7167Y-8581D01*
X8228Y-8228D01*
X8581Y-7874D01*
Y-7167D01*
X7874Y-6460D01*
X7167Y-6460D01*
X6460Y-7167D01*
Y-7874D01*
X8581Y-5753D02*
Y-5046D01*
X9288Y-4340D01*
X9995Y-4340D01*
X11408Y-5753D01*
Y-6460D01*
X10701Y-7167D01*
X9995D01*
X9641Y-6814D01*
X9641Y-6107D01*
X10701Y-5046D01*
X12549Y6500D02*
X10429Y4380D01*
X9368Y5440D01*
X9368Y6147D01*
X10782Y7561D01*
X11489Y7561D01*
X12549Y6500D01*
X9015Y10035D02*
X10429Y8621D01*
X9368Y7561D01*
X9015Y8621D01*
X8661Y8975D01*
X7954D01*
X7248Y8268D01*
X7248Y7561D01*
X7954Y6854D01*
X8661D01*
X7954Y10388D02*
Y11095D01*
X7248Y11802D01*
X6541D01*
X6187Y11449D01*
Y10742D01*
X5480Y10742D01*
X5127Y10388D01*
X5127Y9681D01*
X5834Y8975D01*
X6541D01*
X6894Y9328D01*
Y10035D01*
X7601Y10035D01*
X7954Y10388D01*
X6894Y10035D02*
X6187Y10742D01*
X-5713Y12943D02*
X-3593Y10822D01*
X-4653Y9762D01*
X-5360Y9762D01*
X-6773Y11176D01*
X-6773Y11883D01*
X-5713Y12943D01*
X-9247Y9409D02*
X-7834Y10822D01*
X-6773Y9762D01*
X-7834Y9409D01*
X-8187Y9055D01*
Y8348D01*
X-7480Y7641D01*
X-6773Y7641D01*
X-6067Y8348D01*
Y9055D01*
X-9954Y8702D02*
X-11368Y7288D01*
X-11015Y6934D01*
X-8187D01*
X-7834Y6581D01*
X-48180Y-19728D02*
X-45583Y-18228D01*
X-44833Y-19527D01*
X-45016Y-20210D01*
X-46747Y-21209D01*
X-47430Y-21026D01*
X-48180Y-19728D01*
X-45681Y-24057D02*
X-46680Y-22325D01*
X-45382Y-21575D01*
X-45315Y-22691D01*
X-45065Y-23124D01*
X-44382Y-23307D01*
X-43516Y-22807D01*
X-43333Y-22124D01*
X-43833Y-21258D01*
X-44516Y-21075D01*
X-44181Y-26654D02*
X-44248Y-25538D01*
X-43882Y-24172D01*
X-43016Y-23673D01*
X-42334Y-23856D01*
X-41834Y-24721D01*
X-42017Y-25404D01*
X-42450Y-25654D01*
X-43132Y-25471D01*
X-43882Y-24172D01*
X-32166Y-41032D02*
X-30666Y-38434D01*
X-29367Y-39184D01*
X-29184Y-39867D01*
X-30184Y-41598D01*
X-30867Y-41781D01*
X-32166Y-41032D01*
X-27837Y-43531D02*
X-29568Y-42531D01*
X-28819Y-41232D01*
X-28203Y-42165D01*
X-27770Y-42415D01*
X-27087Y-42232D01*
X-26587Y-41366D01*
X-26770Y-40684D01*
X-27636Y-40184D01*
X-28319Y-40367D01*
X-25240Y-45030D02*
X-26971Y-44031D01*
X-26221Y-42732D01*
X-25605Y-43665D01*
X-25173Y-43915D01*
X-24490Y-43732D01*
X-23990Y-42866D01*
X-24173Y-42183D01*
X-25039Y-41683D01*
X-25721Y-41866D01*
X-7542Y-51499D02*
Y-48500D01*
X-6042D01*
X-5543Y-49000D01*
Y-51000D01*
X-6042Y-51499D01*
X-7542D01*
X-2544D02*
X-4543D01*
Y-50000D01*
X-3543Y-50500D01*
X-3043D01*
X-2544Y-50000D01*
Y-49000D01*
X-3043Y-48500D01*
X-4043D01*
X-4543Y-49000D01*
X-44Y-48500D02*
Y-51499D01*
X-1544Y-50000D01*
X455D01*
X19334Y-48574D02*
X17834Y-45976D01*
X19133Y-45227D01*
X19816Y-45410D01*
X20816Y-47141D01*
X20633Y-47824D01*
X19334Y-48574D01*
X23663Y-46074D02*
X21931Y-47074D01*
X21181Y-45775D01*
X22297Y-45709D01*
X22730Y-45458D01*
X22913Y-44776D01*
X22413Y-43910D01*
X21730Y-43727D01*
X20865Y-44227D01*
X20682Y-44910D01*
X24279Y-45142D02*
X24961Y-45325D01*
X25827Y-44825D01*
X26010Y-44142D01*
X25760Y-43709D01*
X25077Y-43526D01*
X24645Y-43776D01*
X25077Y-43526D01*
X25260Y-42843D01*
X25010Y-42410D01*
X24328Y-42228D01*
X23462Y-42727D01*
X23279Y-43410D01*
X41032Y-32166D02*
X38434Y-30666D01*
X39184Y-29367D01*
X39867Y-29184D01*
X41598Y-30184D01*
X41781Y-30867D01*
X41032Y-32166D01*
X43531Y-27837D02*
X42531Y-29568D01*
X41232Y-28819D01*
X42165Y-28203D01*
X42415Y-27770D01*
X42232Y-27087D01*
X41366Y-26587D01*
X40684Y-26770D01*
X40184Y-27636D01*
X40367Y-28319D01*
X42433Y-23740D02*
X41433Y-25471D01*
X44164Y-24740D01*
X44597Y-24990D01*
X44780Y-25672D01*
X44280Y-26538D01*
X43598Y-26721D01*
X51499Y-7436D02*
X48500D01*
Y-5936D01*
X49000Y-5437D01*
X51000D01*
X51499Y-5936D01*
Y-7436D01*
Y-2437D02*
Y-4437D01*
X50000D01*
X50500Y-3437D01*
Y-2937D01*
X50000Y-2437D01*
X49000D01*
X48500Y-2937D01*
Y-3937D01*
X49000Y-4437D01*
X48500Y-1438D02*
Y-438D01*
Y-938D01*
X51499D01*
X51000Y-1438D01*
X48180Y19334D02*
X45583Y17834D01*
X44833Y19133D01*
X45016Y19816D01*
X46747Y20816D01*
X47430Y20633D01*
X48180Y19334D01*
X45681Y23663D02*
X46680Y21931D01*
X45382Y21181D01*
X45315Y22297D01*
X45065Y22730D01*
X44382Y22913D01*
X43516Y22413D01*
X43333Y21730D01*
X43833Y20865D01*
X44516Y20682D01*
X44748Y24279D02*
X44931Y24961D01*
X44431Y25827D01*
X43748Y26010D01*
X42017Y25010D01*
X41834Y24328D01*
X42334Y23462D01*
X43016Y23279D01*
X44748Y24279D01*
X32559Y40638D02*
X31060Y38041D01*
X29761Y38790D01*
X29578Y39473D01*
X30578Y41205D01*
X31261Y41388D01*
X32559Y40638D01*
X27164Y40290D02*
X28663Y42887D01*
X29212Y40839D01*
X27481Y41838D01*
X26115Y41473D02*
X25432Y41290D01*
X24567Y41789D01*
X24384Y42472D01*
X25383Y44204D01*
X26066Y44387D01*
X26932Y43887D01*
X27115Y43204D01*
X26865Y42771D01*
X26182Y42588D01*
X24883Y43338D01*
X7148Y51499D02*
Y48500D01*
X5649D01*
X5149Y49000D01*
Y51000D01*
X5649Y51499D01*
X7148D01*
X2650Y48500D02*
Y51499D01*
X4149Y50000D01*
X2150D01*
X1150Y51000D02*
X650Y51499D01*
X-349D01*
X-849Y51000D01*
Y50500D01*
X-349Y50000D01*
X-849Y49500D01*
Y49000D01*
X-349Y48500D01*
X650D01*
X1150Y49000D01*
Y49500D01*
X650Y50000D01*
X1150Y50500D01*
Y51000D01*
X650Y50000D02*
X-349D01*
X-19728Y48180D02*
X-18228Y45583D01*
X-19527Y44833D01*
X-20210Y45016D01*
X-21209Y46747D01*
X-21026Y47430D01*
X-19728Y48180D01*
X-22124Y43333D02*
X-23624Y45931D01*
X-21575Y45382D01*
X-23307Y44382D01*
X-24922Y45181D02*
X-26654Y44181D01*
X-26404Y43748D01*
X-23673Y43016D01*
X-23423Y42584D01*
X-41032Y32166D02*
X-38434Y30666D01*
X-39184Y29367D01*
X-39867Y29184D01*
X-41598Y30184D01*
X-41781Y30867D01*
X-41032Y32166D01*
X-40684Y26770D02*
X-43281Y28270D01*
X-41232Y28819D01*
X-42232Y27087D01*
X-45030Y25240D02*
X-44098Y25855D01*
X-42732Y26221D01*
X-41866Y25721D01*
X-41683Y25039D01*
X-42183Y24173D01*
X-42866Y23990D01*
X-43299Y24240D01*
X-43482Y24923D01*
X-42732Y26221D01*
X-51499Y7936D02*
X-48500D01*
Y6436D01*
X-49000Y5936D01*
X-51000D01*
X-51499Y6436D01*
Y7936D01*
X-48500Y3437D02*
X-51499D01*
X-50000Y4937D01*
Y2937D01*
X-51499Y-62D02*
Y1938D01*
X-50000D01*
X-50500Y938D01*
Y438D01*
X-50000Y-62D01*
X-49000D01*
X-48500Y438D01*
Y1438D01*
X-49000Y1938D01*
X-82837Y-26013D02*
X-80066Y-24866D01*
X-79492Y-26251D01*
X-79763Y-26904D01*
X-81610Y-27669D01*
X-82263Y-27399D01*
X-82837Y-26013D01*
X-78345Y-29022D02*
X-81115Y-30169D01*
X-80304Y-28210D01*
X-79539Y-30057D01*
X-77197Y-31793D02*
X-79968Y-32940D01*
X-79156Y-30981D01*
X-78391Y-32828D01*
X-66486Y-55713D02*
X-64366Y-53592D01*
X-63305Y-54653D01*
X-63305Y-55360D01*
X-64719Y-56773D01*
X-65426Y-56774D01*
X-66486Y-55713D01*
X-61185Y-56774D02*
X-63305Y-58894D01*
X-63305Y-56774D01*
X-61892Y-58187D01*
Y-59601D02*
Y-60308D01*
X-61185Y-61015D01*
X-60478D01*
X-60124Y-60661D01*
Y-59954D01*
X-60478Y-59601D01*
X-60124Y-59954D01*
X-59417Y-59954D01*
X-59064Y-59601D01*
X-59064Y-58894D01*
X-59771Y-58187D01*
X-60478D01*
X-40095Y-77414D02*
X-38947Y-74643D01*
X-37562Y-75217D01*
X-37291Y-75870D01*
X-38056Y-77718D01*
X-38710Y-77988D01*
X-40095Y-77414D01*
X-34791Y-76365D02*
X-35939Y-79136D01*
X-36750Y-77176D01*
X-34903Y-77942D01*
X-31559Y-77704D02*
X-33406Y-76939D01*
X-32324Y-79551D01*
X-32515Y-80013D01*
X-33168Y-80283D01*
X-34092Y-79901D01*
X-34362Y-79248D01*
X-7042Y-86539D02*
Y-83540D01*
X-5543D01*
X-5043Y-84040D01*
Y-86039D01*
X-5543Y-86539D01*
X-7042D01*
X-2544Y-83540D02*
Y-86539D01*
X-4043Y-85039D01*
X-2044D01*
X-1044Y-83540D02*
X-44D01*
X-544D01*
Y-86539D01*
X-1044Y-86039D01*
X25620Y-83231D02*
X24472Y-80460D01*
X25857Y-79886D01*
X26510Y-80156D01*
X27276Y-82004D01*
X27005Y-82657D01*
X25620Y-83231D01*
X28628Y-78738D02*
X29776Y-81509D01*
X27817Y-80698D01*
X29664Y-79932D01*
X30970Y-80473D02*
X31623Y-80744D01*
X32547Y-80361D01*
X32817Y-79708D01*
X32052Y-77861D01*
X31399Y-77591D01*
X30475Y-77973D01*
X30205Y-78626D01*
X30970Y-80473D01*
X55713Y-66486D02*
X53592Y-64366D01*
X54653Y-63305D01*
X55360Y-63305D01*
X56773Y-64719D01*
X56774Y-65426D01*
X55713Y-66486D01*
X57480Y-64012D02*
X58187D01*
X58894Y-63305D01*
X58894Y-62598D01*
X58541Y-62245D01*
X57834D01*
X57480Y-62598D01*
X57834Y-62245D01*
X57834Y-61538D01*
X57480Y-61185D01*
X56774Y-61185D01*
X56067Y-61892D01*
Y-62598D01*
X58187Y-60478D02*
Y-59771D01*
X58894Y-59064D01*
X59601Y-59064D01*
X61015Y-60478D01*
Y-61185D01*
X60308Y-61892D01*
X59601D01*
X59247Y-61538D01*
X59247Y-60831D01*
X60308Y-59771D01*
X77021Y-40095D02*
X74250Y-38947D01*
X74824Y-37562D01*
X75477Y-37291D01*
X77324Y-38056D01*
X77594Y-38710D01*
X77021Y-40095D01*
X77706Y-37133D02*
X78359Y-36862D01*
X78742Y-35939D01*
X78471Y-35286D01*
X78010Y-35094D01*
X77357Y-35365D01*
X77165Y-35827D01*
X77357Y-35365D01*
X77086Y-34712D01*
X76624Y-34521D01*
X75971Y-34791D01*
X75589Y-35715D01*
X75859Y-36368D01*
X78854Y-34362D02*
X79507Y-34092D01*
X79890Y-33168D01*
X79619Y-32515D01*
X79157Y-32324D01*
X78504Y-32594D01*
X78234Y-31941D01*
X77772Y-31750D01*
X77119Y-32020D01*
X76736Y-32944D01*
X77007Y-33597D01*
X77469Y-33788D01*
X78122Y-33518D01*
X78392Y-34171D01*
X78854Y-34362D01*
X78122Y-33518D02*
X78504Y-32594D01*
X86539Y-7148D02*
X83540D01*
Y-5649D01*
X84040Y-5149D01*
X86039D01*
X86539Y-5649D01*
Y-7148D01*
X86039Y-4149D02*
X86539Y-3649D01*
Y-2650D01*
X86039Y-2150D01*
X85539D01*
X85039Y-2650D01*
Y-3150D01*
Y-2650D01*
X84540Y-2150D01*
X84040D01*
X83540Y-2650D01*
Y-3649D01*
X84040Y-4149D01*
X86539Y-1150D02*
Y849D01*
X86039D01*
X84040Y-1150D01*
X83540D01*
X82443Y26407D02*
X79672Y25259D01*
X79099Y26645D01*
X79369Y27298D01*
X81216Y28063D01*
X81869Y27793D01*
X82443Y26407D01*
X80834Y28986D02*
X81104Y29640D01*
X80722Y30563D01*
X80069Y30834D01*
X79607Y30642D01*
X79336Y29989D01*
X79528Y29528D01*
X79336Y29989D01*
X78683Y30260D01*
X78221Y30069D01*
X77951Y29416D01*
X78333Y28492D01*
X78987Y28221D01*
X79383Y33796D02*
X79303Y32681D01*
X78762Y31375D01*
X77839Y30992D01*
X77186Y31263D01*
X76803Y32186D01*
X77074Y32839D01*
X77535Y33031D01*
X78189Y32760D01*
X78762Y31375D01*
X66092Y56107D02*
X63972Y53986D01*
X62912Y55046D01*
X62912Y55753D01*
X64325Y57167D01*
X65032Y57167D01*
X66092Y56107D01*
X63618Y57874D02*
Y58581D01*
X62912Y59288D01*
X62205Y59288D01*
X61851Y58934D01*
Y58227D01*
X62205Y57874D01*
X61851Y58227D01*
X61144Y58227D01*
X60791Y57874D01*
X60791Y57167D01*
X61498Y56460D01*
X62205D01*
X60438Y61762D02*
X61851Y60348D01*
X60791Y59288D01*
X60438Y60348D01*
X60084Y60702D01*
X59377D01*
X58670Y59995D01*
X58670Y59288D01*
X59377Y58581D01*
X60084D01*
X39307Y77414D02*
X38160Y74643D01*
X36775Y75217D01*
X36504Y75870D01*
X37269Y77718D01*
X37922Y77988D01*
X39307Y77414D01*
X36345Y78100D02*
X36075Y78753D01*
X35151Y79136D01*
X34498Y78865D01*
X34307Y78403D01*
X34578Y77750D01*
X35039Y77559D01*
X34578Y77750D01*
X33924Y77480D01*
X33733Y77018D01*
X34004Y76365D01*
X34927Y75982D01*
X35580Y76253D01*
X31233Y77513D02*
X32381Y80283D01*
X33192Y78324D01*
X31345Y79089D01*
X7148Y86145D02*
Y83146D01*
X5649D01*
X5149Y83646D01*
Y85645D01*
X5649Y86145D01*
X7148D01*
X4149Y85645D02*
X3649Y86145D01*
X2650D01*
X2150Y85645D01*
Y85145D01*
X2650Y84646D01*
X3150D01*
X2650D01*
X2150Y84146D01*
Y83646D01*
X2650Y83146D01*
X3649D01*
X4149Y83646D01*
X1150Y85645D02*
X650Y86145D01*
X-349D01*
X-849Y85645D01*
Y85145D01*
X-349Y84646D01*
X151D01*
X-349D01*
X-849Y84146D01*
Y83646D01*
X-349Y83146D01*
X650D01*
X1150Y83646D01*
X-26407Y82443D02*
X-25259Y79672D01*
X-26645Y79099D01*
X-27298Y79369D01*
X-28063Y81216D01*
X-27793Y81869D01*
X-26407Y82443D01*
X-28986Y80834D02*
X-29640Y81104D01*
X-30563Y80722D01*
X-30834Y80069D01*
X-30642Y79607D01*
X-29989Y79336D01*
X-29528Y79528D01*
X-29989Y79336D01*
X-30260Y78683D01*
X-30069Y78221D01*
X-29416Y77951D01*
X-28492Y78333D01*
X-28221Y78987D01*
X-32648Y76612D02*
X-30801Y77377D01*
X-33413Y78459D01*
X-33604Y78921D01*
X-33334Y79574D01*
X-32410Y79957D01*
X-31757Y79686D01*
X-56854Y65345D02*
X-54733Y63225D01*
X-55794Y62164D01*
X-56501Y62164D01*
X-57914Y63578D01*
X-57914Y64285D01*
X-56854Y65345D01*
X-58621Y62871D02*
X-59328D01*
X-60035Y62164D01*
X-60035Y61458D01*
X-59681Y61104D01*
X-58975D01*
X-58621Y61458D01*
X-58975Y61104D01*
X-58975Y60397D01*
X-58621Y60044D01*
X-57914Y60044D01*
X-57207Y60751D01*
Y61458D01*
X-58975Y58983D02*
X-59681Y58277D01*
X-59328Y58630D01*
X-61449Y60751D01*
X-60742D01*
X-77021Y40095D02*
X-74250Y38947D01*
X-74824Y37562D01*
X-75477Y37291D01*
X-77324Y38056D01*
X-77594Y38710D01*
X-77021Y40095D01*
X-77706Y37133D02*
X-78359Y36862D01*
X-78742Y35939D01*
X-78471Y35286D01*
X-78010Y35094D01*
X-77357Y35365D01*
X-77165Y35827D01*
X-77357Y35365D01*
X-77086Y34712D01*
X-76624Y34521D01*
X-75971Y34791D01*
X-75589Y35715D01*
X-75859Y36368D01*
X-78854Y34362D02*
X-79507Y34092D01*
X-79890Y33168D01*
X-79619Y32515D01*
X-77772Y31750D01*
X-77119Y32020D01*
X-76736Y32944D01*
X-77007Y33597D01*
X-78854Y34362D01*
X-86539Y8329D02*
X-83540D01*
Y6830D01*
X-84040Y6330D01*
X-86039D01*
X-86539Y6830D01*
Y8329D01*
X-83540Y3331D02*
Y5330D01*
X-85539Y3331D01*
X-86039D01*
X-86539Y3831D01*
Y4831D01*
X-86039Y5330D01*
X-84040Y2331D02*
X-83540Y1832D01*
Y832D01*
X-84040Y332D01*
X-86039D01*
X-86539Y832D01*
Y1832D01*
X-86039Y2331D01*
X-85539D01*
X-85039Y1832D01*
Y332D01*
X-119675Y-19664D02*
X-116751Y-18996D01*
X-116417Y-20458D01*
X-116793Y-21057D01*
X-118742Y-21502D01*
X-119341Y-21125D01*
X-119675Y-19664D01*
X-115638Y-23869D02*
X-116083Y-21920D01*
X-117588Y-24314D01*
X-118075Y-24425D01*
X-118674Y-24049D01*
X-118896Y-23075D01*
X-118520Y-22476D01*
X-117852Y-25400D02*
X-118229Y-25999D01*
X-118006Y-26973D01*
X-117408Y-27349D01*
X-116920Y-27238D01*
X-116544Y-26640D01*
X-115946Y-27016D01*
X-115458Y-26904D01*
X-115082Y-26306D01*
X-115305Y-25331D01*
X-115903Y-24955D01*
X-116391Y-25066D01*
X-116767Y-25665D01*
X-117365Y-25289D01*
X-117852Y-25400D01*
X-116767Y-25665D02*
X-116544Y-26640D01*
X-112141Y-45473D02*
X-109439Y-44172D01*
X-108788Y-45523D01*
X-109022Y-46190D01*
X-110823Y-47058D01*
X-111490Y-46824D01*
X-112141Y-45473D01*
X-107270Y-48675D02*
X-108138Y-46874D01*
X-109072Y-49543D01*
X-109522Y-49760D01*
X-110189Y-49526D01*
X-110623Y-48625D01*
X-110389Y-47958D01*
X-109539Y-50877D02*
X-108671Y-52679D01*
X-108221Y-52462D01*
X-107287Y-49793D01*
X-106837Y-49576D01*
X-99335Y-69462D02*
X-96990Y-67592D01*
X-96055Y-68765D01*
X-96134Y-69467D01*
X-97697Y-70714D01*
X-98400Y-70635D01*
X-99335Y-69462D01*
X-93874Y-71500D02*
X-95120Y-69937D01*
X-95437Y-72747D01*
X-95828Y-73058D01*
X-96530Y-72979D01*
X-97153Y-72198D01*
X-97074Y-71495D01*
X-94349Y-75715D02*
X-94581Y-74622D01*
X-94423Y-73217D01*
X-93641Y-72593D01*
X-92939Y-72673D01*
X-92315Y-73454D01*
X-92395Y-74157D01*
X-92785Y-74468D01*
X-93488Y-74389D01*
X-94423Y-73217D01*
X-81227Y-90018D02*
X-79357Y-87673D01*
X-78184Y-88608D01*
X-78105Y-89310D01*
X-79352Y-90874D01*
X-80054Y-90953D01*
X-81227Y-90018D01*
X-75449Y-90790D02*
X-77012Y-89543D01*
X-76695Y-92353D01*
X-77007Y-92743D01*
X-77710Y-92823D01*
X-78491Y-92199D01*
X-78570Y-91497D01*
X-74974Y-95004D02*
X-76537Y-93757D01*
X-75602Y-92585D01*
X-75132Y-93599D01*
X-74741Y-93911D01*
X-74039Y-93832D01*
X-73416Y-93050D01*
X-73495Y-92348D01*
X-74277Y-91724D01*
X-74979Y-91804D01*
X-58978Y-105522D02*
X-57677Y-102820D01*
X-56326Y-103470D01*
X-56092Y-104137D01*
X-56959Y-105939D01*
X-57627Y-106172D01*
X-58978Y-105522D01*
X-53173Y-104988D02*
X-54975Y-104121D01*
X-54041Y-106790D01*
X-54258Y-107240D01*
X-54925Y-107473D01*
X-55825Y-107040D01*
X-56059Y-106372D01*
X-50921Y-106073D02*
X-52223Y-108775D01*
X-52923Y-106773D01*
X-51122Y-107641D01*
X-34153Y-116320D02*
X-33486Y-113396D01*
X-32024Y-113730D01*
X-31648Y-114329D01*
X-32093Y-116278D01*
X-32691Y-116654D01*
X-34153Y-116320D01*
X-28613Y-114509D02*
X-30562Y-114064D01*
X-29058Y-116458D01*
X-29169Y-116945D01*
X-29768Y-117321D01*
X-30742Y-117099D01*
X-31118Y-116500D01*
X-28194Y-117167D02*
X-27818Y-117766D01*
X-26844Y-117989D01*
X-26245Y-117612D01*
X-26134Y-117125D01*
X-26510Y-116527D01*
X-26997Y-116415D01*
X-26510Y-116527D01*
X-25912Y-116150D01*
X-25800Y-115663D01*
X-26176Y-115065D01*
X-27151Y-114842D01*
X-27750Y-115218D01*
X-7542Y-120791D02*
Y-117792D01*
X-6042D01*
X-5543Y-118292D01*
Y-120291D01*
X-6042Y-120791D01*
X-7542D01*
X-2544Y-117792D02*
X-4543D01*
X-2544Y-119791D01*
Y-120291D01*
X-3043Y-120791D01*
X-4043D01*
X-4543Y-120291D01*
X455Y-117792D02*
X-1544D01*
X455Y-119791D01*
Y-120291D01*
X-44Y-120791D01*
X-1044D01*
X-1544Y-120291D01*
X19757Y-119563D02*
X19090Y-116639D01*
X20552Y-116306D01*
X21150Y-116682D01*
X21595Y-118631D01*
X21219Y-119230D01*
X19757Y-119563D01*
X23963Y-115527D02*
X22014Y-115972D01*
X24408Y-117476D01*
X24519Y-117964D01*
X24143Y-118562D01*
X23168Y-118785D01*
X22570Y-118409D01*
X24938Y-115305D02*
X25912Y-115082D01*
X25425Y-115194D01*
X26092Y-118117D01*
X25494Y-117741D01*
X45473Y-112141D02*
X44172Y-109439D01*
X45523Y-108788D01*
X46190Y-109022D01*
X47058Y-110823D01*
X46824Y-111490D01*
X45473Y-112141D01*
X48675Y-107270D02*
X46874Y-108138D01*
X49543Y-109072D01*
X49760Y-109522D01*
X49526Y-110189D01*
X48625Y-110623D01*
X47958Y-110389D01*
X50660Y-109088D02*
X51328Y-109322D01*
X52228Y-108888D01*
X52462Y-108221D01*
X51594Y-106420D01*
X50927Y-106186D01*
X50026Y-106620D01*
X49793Y-107287D01*
X50660Y-109088D01*
X70051Y-98785D02*
X68181Y-96441D01*
X69354Y-95506D01*
X70056Y-95585D01*
X71303Y-97148D01*
X71224Y-97850D01*
X70051Y-98785D01*
X70526Y-94571D02*
X71308Y-93947D01*
X70917Y-94259D01*
X72787Y-96604D01*
X72084Y-96525D01*
X72792Y-93403D02*
X72871Y-92701D01*
X73652Y-92077D01*
X74355Y-92157D01*
X75602Y-93720D01*
X75522Y-94422D01*
X74741Y-95046D01*
X74038Y-94966D01*
X73727Y-94576D01*
X73806Y-93873D01*
X74978Y-92938D01*
X89780Y-81031D02*
X87435Y-79161D01*
X88370Y-77989D01*
X89073Y-77910D01*
X90636Y-79156D01*
X90715Y-79859D01*
X89780Y-81031D01*
X89305Y-76817D02*
X89928Y-76035D01*
X89617Y-76426D01*
X91961Y-78296D01*
X91259Y-78375D01*
X92817Y-76421D02*
X93520Y-76342D01*
X94143Y-75560D01*
X94064Y-74858D01*
X93673Y-74546D01*
X92971Y-74625D01*
X92891Y-73923D01*
X92501Y-73611D01*
X91798Y-73690D01*
X91175Y-74472D01*
X91254Y-75174D01*
X91645Y-75486D01*
X92347Y-75407D01*
X92426Y-76109D01*
X92817Y-76421D01*
X92347Y-75407D02*
X92971Y-74625D01*
X105630Y-58359D02*
X102928Y-57058D01*
X103579Y-55707D01*
X104246Y-55473D01*
X106047Y-56341D01*
X106281Y-57008D01*
X105630Y-58359D01*
X104229Y-54356D02*
X104663Y-53455D01*
X104446Y-53905D01*
X107148Y-55207D01*
X106481Y-55440D01*
X108016Y-53405D02*
X108883Y-51604D01*
X108433Y-51387D01*
X105764Y-52321D01*
X105314Y-52104D01*
X116376Y-33910D02*
X113452Y-33242D01*
X113786Y-31780D01*
X114384Y-31404D01*
X116333Y-31849D01*
X116709Y-32448D01*
X116376Y-33910D01*
X114119Y-30318D02*
X114342Y-29344D01*
X114231Y-29831D01*
X117154Y-30499D01*
X116556Y-30875D01*
X118044Y-26600D02*
X117334Y-27463D01*
X116137Y-28216D01*
X115163Y-27993D01*
X114787Y-27395D01*
X115009Y-26420D01*
X115608Y-26044D01*
X116095Y-26155D01*
X116471Y-26754D01*
X116137Y-28216D01*
X120791Y-7686D02*
X117792D01*
Y-6186D01*
X118292Y-5686D01*
X120291D01*
X120791Y-6186D01*
Y-7686D01*
X117792Y-4687D02*
Y-3687D01*
Y-4187D01*
X120791D01*
X120291Y-4687D01*
X120791Y-188D02*
Y-2188D01*
X119291D01*
X119791Y-1188D01*
Y-688D01*
X119291Y-188D01*
X118292D01*
X117792Y-688D01*
Y-1688D01*
X118292Y-2188D01*
X119619Y20301D02*
X116695Y19634D01*
X116361Y21095D01*
X116737Y21694D01*
X118687Y22139D01*
X119285Y21763D01*
X119619Y20301D01*
X116028Y22557D02*
X115805Y23532D01*
X115917Y23045D01*
X118840Y23712D01*
X118464Y23114D01*
X115138Y26456D02*
X118062Y27123D01*
X116934Y25328D01*
X116489Y27277D01*
X111245Y46486D02*
X108543Y45184D01*
X107893Y46536D01*
X108126Y47203D01*
X109927Y48070D01*
X110595Y47837D01*
X111245Y46486D01*
X107242Y47886D02*
X106808Y48787D01*
X107025Y48337D01*
X109727Y49638D01*
X109494Y48971D01*
X108409Y51222D02*
X108643Y51890D01*
X108209Y52790D01*
X107542Y53024D01*
X107092Y52807D01*
X106858Y52140D01*
X107075Y51689D01*
X106858Y52140D01*
X106191Y52373D01*
X105740Y52156D01*
X105507Y51489D01*
X105941Y50589D01*
X106608Y50355D01*
X98785Y69657D02*
X96441Y67788D01*
X95506Y68960D01*
X95585Y69662D01*
X97148Y70909D01*
X97850Y70830D01*
X98785Y69657D01*
X94571Y70132D02*
X93947Y70914D01*
X94259Y70523D01*
X96604Y72393D01*
X96525Y71691D01*
X91766Y73650D02*
X93012Y72086D01*
X93329Y74896D01*
X93720Y75208D01*
X94422Y75129D01*
X95046Y74347D01*
X94966Y73645D01*
X80247Y90485D02*
X78377Y88140D01*
X77205Y89075D01*
X77125Y89778D01*
X78372Y91341D01*
X79074Y91420D01*
X80247Y90485D01*
X76032Y90010D02*
X75251Y90634D01*
X75641Y90322D01*
X77511Y92667D01*
X77590Y91964D01*
X74078Y91569D02*
X73297Y92192D01*
X73687Y91880D01*
X75557Y94225D01*
X75636Y93523D01*
X59146Y105630D02*
X57845Y102928D01*
X56494Y103579D01*
X56261Y104246D01*
X57128Y106047D01*
X57795Y106281D01*
X59146Y105630D01*
X55143Y104229D02*
X54242Y104663D01*
X54693Y104446D01*
X55994Y107148D01*
X56227Y106481D01*
X53976Y107565D02*
X53742Y108232D01*
X52842Y108666D01*
X52174Y108433D01*
X51307Y106631D01*
X51540Y105964D01*
X52441Y105530D01*
X53108Y105764D01*
X53976Y107565D01*
X33085Y116260D02*
X32418Y113336D01*
X30956Y113670D01*
X30580Y114269D01*
X31025Y116218D01*
X31623Y116594D01*
X33085Y116260D01*
X29605Y114491D02*
X29007Y114115D01*
X28032Y114337D01*
X27656Y114936D01*
X28101Y116885D01*
X28699Y117261D01*
X29674Y117039D01*
X30050Y116440D01*
X29939Y115953D01*
X29340Y115577D01*
X27878Y115910D01*
X5255Y120791D02*
Y117792D01*
X3756D01*
X3256Y118292D01*
Y120291D01*
X3756Y120791D01*
X5255D01*
X2256Y120291D02*
X1756Y120791D01*
X757D01*
X257Y120291D01*
Y119791D01*
X757Y119291D01*
X257Y118791D01*
Y118292D01*
X757Y117792D01*
X1756D01*
X2256Y118292D01*
Y118791D01*
X1756Y119291D01*
X2256Y119791D01*
Y120291D01*
X1756Y119291D02*
X757D01*
X-21913Y118947D02*
X-21246Y116023D01*
X-22707Y115690D01*
X-23306Y116066D01*
X-23751Y118015D01*
X-23375Y118614D01*
X-21913Y118947D01*
X-24837Y118280D02*
X-26786Y117835D01*
X-26675Y117348D01*
X-24281Y115843D01*
X-24169Y115356D01*
X-48005Y111097D02*
X-46704Y108395D01*
X-48055Y107744D01*
X-48722Y107978D01*
X-49590Y109779D01*
X-49356Y110446D01*
X-48005Y111097D01*
X-52509Y108928D02*
X-51391Y108912D01*
X-50057Y108445D01*
X-49623Y107544D01*
X-49856Y106877D01*
X-50757Y106443D01*
X-51424Y106676D01*
X-51641Y107127D01*
X-51408Y107794D01*
X-50057Y108445D01*
X-71028Y98006D02*
X-69158Y95661D01*
X-70331Y94727D01*
X-71033Y94806D01*
X-72280Y96369D01*
X-72201Y97071D01*
X-71028Y98006D01*
X-74936Y94890D02*
X-73373Y96136D01*
X-72438Y94964D01*
X-73531Y94731D01*
X-73922Y94420D01*
X-74001Y93717D01*
X-73378Y92936D01*
X-72676Y92857D01*
X-71894Y93480D01*
X-71815Y94182D01*
X-90953Y80054D02*
X-88608Y78184D01*
X-89543Y77012D01*
X-90245Y76933D01*
X-91808Y78179D01*
X-91888Y78882D01*
X-90953Y80054D01*
X-91413Y74667D02*
X-93757Y76537D01*
X-91650Y76775D01*
X-92897Y75211D01*
X-106566Y56839D02*
X-103864Y55538D01*
X-104515Y54187D01*
X-105182Y53954D01*
X-106983Y54821D01*
X-107217Y55488D01*
X-106566Y56839D01*
X-107417Y53920D02*
X-108084Y53687D01*
X-108518Y52786D01*
X-108284Y52119D01*
X-107834Y51902D01*
X-107167Y52136D01*
X-106950Y52586D01*
X-107167Y52136D01*
X-106933Y51468D01*
X-106483Y51252D01*
X-105816Y51485D01*
X-105382Y52386D01*
X-105615Y53053D01*
X-116654Y31510D02*
X-113730Y30843D01*
X-114064Y29381D01*
X-114662Y29005D01*
X-116611Y29450D01*
X-116988Y30048D01*
X-116654Y31510D01*
X-114842Y25970D02*
X-114397Y27919D01*
X-116791Y26415D01*
X-117279Y26526D01*
X-117655Y27125D01*
X-117432Y28099D01*
X-116834Y28475D01*
X-120791Y4755D02*
X-117792D01*
Y3256D01*
X-118292Y2756D01*
X-120291D01*
X-120791Y3256D01*
Y4755D01*
X-117792Y1756D02*
Y757D01*
Y1256D01*
X-120791D01*
X-120291Y1756D01*
X-18535Y-606D02*
X-19035Y-1106D01*
X-20034D01*
X-20534Y-606D01*
Y1393D01*
X-20034Y1893D01*
X-19035D01*
X-18535Y1393D01*
X-15536Y-1106D02*
X-16535Y-606D01*
X-17535Y394D01*
Y1393D01*
X-17035Y1893D01*
X-16036D01*
X-15536Y1393D01*
Y893D01*
X-16036Y394D01*
X-17535D01*
X-14536Y-606D02*
X-14036Y-1106D01*
X-13036D01*
X-12537Y-606D01*
Y1393D01*
X-13036Y1893D01*
X-14036D01*
X-14536Y1393D01*
Y-606D01*
X1000Y-19322D02*
X1500Y-19822D01*
Y-20822D01*
X1000Y-21321D01*
X-1000D01*
X-1500Y-20822D01*
Y-19822D01*
X-1000Y-19322D01*
X1500Y-16323D02*
Y-18323D01*
X0D01*
X500Y-17323D01*
Y-16823D01*
X0Y-16323D01*
X-1000D01*
X-1500Y-16823D01*
Y-17823D01*
X-1000Y-18323D01*
Y-15324D02*
X-1500Y-14824D01*
Y-13824D01*
X-1000Y-13324D01*
X1000D01*
X1500Y-13824D01*
Y-14824D01*
X1000Y-15324D01*
X500D01*
X0Y-14824D01*
Y-13324D01*
X21291Y1000D02*
X21790Y1500D01*
X22790D01*
X23290Y1000D01*
Y-1000D01*
X22790Y-1500D01*
X21790D01*
X21291Y-1000D01*
X18292Y1500D02*
X20291D01*
Y0D01*
X19291Y500D01*
X18791D01*
X18292Y0D01*
Y-1000D01*
X18791Y-1500D01*
X19791D01*
X20291Y-1000D01*
X17292Y1000D02*
X16792Y1500D01*
X15792D01*
X15293Y1000D01*
Y500D01*
X15792Y0D01*
X15293Y-500D01*
Y-1000D01*
X15792Y-1500D01*
X16792D01*
X17292Y-1000D01*
Y-500D01*
X16792Y0D01*
X17292Y500D01*
Y1000D01*
X16792Y0D02*
X15792D01*
X-1393Y21291D02*
X-1893Y21790D01*
Y22790D01*
X-1393Y23290D01*
X606D01*
X1106Y22790D01*
Y21790D01*
X606Y21291D01*
X-1893Y18292D02*
Y20291D01*
X-394D01*
X-893Y19291D01*
Y18791D01*
X-394Y18292D01*
X606D01*
X1106Y18791D01*
Y19791D01*
X606Y20291D01*
X-1893Y17292D02*
Y15293D01*
X-1393D01*
X606Y17292D01*
X1106D01*
X-54428Y-10932D02*
X-54782Y-11544D01*
X-55747Y-11803D01*
X-56360Y-11449D01*
X-56877Y-9518D01*
X-56524Y-8906D01*
X-55558Y-8647D01*
X-54946Y-9001D01*
X-51402Y-10639D02*
X-53333Y-11156D01*
X-53721Y-9708D01*
X-52627Y-9932D01*
X-52144Y-9802D01*
X-51790Y-9190D01*
X-52049Y-8224D01*
X-52661Y-7871D01*
X-53627Y-8130D01*
X-53980Y-8742D01*
X-48505Y-9862D02*
X-49600Y-9638D01*
X-50825Y-8931D01*
X-51083Y-7966D01*
X-50730Y-7354D01*
X-49764Y-7095D01*
X-49152Y-7448D01*
X-49023Y-7931D01*
X-49376Y-8543D01*
X-50825Y-8931D01*
X-41652Y-36766D02*
X-41652Y-37473D01*
X-42359Y-38180D01*
X-43066D01*
X-44479Y-36766D01*
Y-36059D01*
X-43772Y-35353D01*
X-43066Y-35353D01*
X-39178Y-34999D02*
X-40591Y-36413D01*
X-41652Y-35353D01*
X-40591Y-34999D01*
X-40238Y-34646D01*
Y-33939D01*
X-40945Y-33232D01*
X-41652Y-33232D01*
X-42359Y-33939D01*
Y-34646D01*
X-37057Y-32879D02*
X-38471Y-34292D01*
X-39531Y-33232D01*
X-38471Y-32879D01*
X-38117Y-32525D01*
Y-31818D01*
X-38824Y-31111D01*
X-39531Y-31111D01*
X-40238Y-31818D01*
Y-32525D01*
X-18056Y-52190D02*
X-17702Y-52802D01*
X-17961Y-53768D01*
X-18573Y-54121D01*
X-20504Y-53604D01*
X-20858Y-52991D01*
X-20599Y-52026D01*
X-19987Y-51673D01*
X-16797Y-49422D02*
X-17314Y-51354D01*
X-18763Y-50966D01*
X-18021Y-50129D01*
X-17892Y-49647D01*
X-18245Y-49034D01*
X-19211Y-48776D01*
X-19823Y-49129D01*
X-20082Y-50095D01*
X-19728Y-50707D01*
X-19047Y-46232D02*
X-16150Y-47008D01*
X-17987Y-48069D01*
X-17469Y-46137D01*
X10932Y-54428D02*
X11544Y-54782D01*
X11803Y-55747D01*
X11449Y-56360D01*
X9518Y-56877D01*
X8906Y-56524D01*
X8647Y-55558D01*
X9001Y-54946D01*
X10639Y-51402D02*
X11156Y-53333D01*
X9708Y-53721D01*
X9932Y-52627D01*
X9802Y-52144D01*
X9190Y-51790D01*
X8224Y-52049D01*
X7871Y-52661D01*
X8130Y-53627D01*
X8742Y-53980D01*
X9897Y-50566D02*
X10250Y-49954D01*
X9992Y-48988D01*
X9380Y-48635D01*
X8897Y-48764D01*
X8543Y-49376D01*
X8673Y-49859D01*
X8543Y-49376D01*
X7931Y-49023D01*
X7448Y-49152D01*
X7095Y-49764D01*
X7354Y-50730D01*
X7966Y-51083D01*
X36373Y-41652D02*
X37080Y-41652D01*
X37786Y-42359D01*
Y-43066D01*
X36373Y-44479D01*
X35666D01*
X34959Y-43772D01*
X34959Y-43066D01*
X34605Y-39178D02*
X36019Y-40591D01*
X34959Y-41652D01*
X34605Y-40591D01*
X34252Y-40238D01*
X33545D01*
X32838Y-40945D01*
X32838Y-41652D01*
X33545Y-42359D01*
X34252D01*
X30364Y-39178D02*
X31778Y-40591D01*
Y-37764D01*
X32131Y-37411D01*
X32838D01*
X33545Y-38117D01*
Y-38824D01*
X51707Y-17533D02*
X52319Y-17179D01*
X53285Y-17438D01*
X53638Y-18050D01*
X53121Y-19981D01*
X52509Y-20335D01*
X51543Y-20076D01*
X51190Y-19464D01*
X48940Y-16274D02*
X50871Y-16791D01*
X50483Y-18240D01*
X49647Y-17498D01*
X49164Y-17369D01*
X48552Y-17722D01*
X48293Y-18688D01*
X48646Y-19300D01*
X49612Y-19559D01*
X50224Y-19205D01*
X47198Y-18912D02*
X46232Y-18653D01*
X46715Y-18782D01*
X47491Y-15886D01*
X47845Y-16498D01*
X54035Y10932D02*
X54388Y11544D01*
X55354Y11803D01*
X55966Y11449D01*
X56483Y9518D01*
X56130Y8906D01*
X55164Y8647D01*
X54552Y9001D01*
X51008Y10639D02*
X52940Y11156D01*
X53328Y9708D01*
X52233Y9932D01*
X51750Y9802D01*
X51397Y9190D01*
X51655Y8224D01*
X52267Y7871D01*
X53233Y8130D01*
X53587Y8742D01*
X50172Y9897D02*
X49560Y10250D01*
X48594Y9992D01*
X48241Y9380D01*
X48759Y7448D01*
X49371Y7095D01*
X50336Y7354D01*
X50690Y7966D01*
X50172Y9897D01*
X41652Y36373D02*
X41652Y37080D01*
X42359Y37786D01*
X43066D01*
X44479Y36373D01*
Y35666D01*
X43772Y34959D01*
X43066Y34959D01*
X41652Y32838D02*
X39531Y34959D01*
X41652Y34959D01*
X40238Y33545D01*
Y32131D02*
Y31424D01*
X39531Y30718D01*
X38824Y30718D01*
X37411Y32131D01*
Y32838D01*
X38117Y33545D01*
X38824D01*
X39178Y33192D01*
X39178Y32485D01*
X38117Y31424D01*
X18056Y52190D02*
X17702Y52802D01*
X17961Y53768D01*
X18573Y54121D01*
X20504Y53604D01*
X20858Y52991D01*
X20599Y52026D01*
X19987Y51673D01*
X19823Y49129D02*
X16926Y49905D01*
X18763Y50966D01*
X18245Y49034D01*
X17021Y48327D02*
X16409Y47974D01*
X16150Y47008D01*
X16503Y46396D01*
X16986Y46267D01*
X17598Y46620D01*
X17952Y46008D01*
X18435Y45879D01*
X19047Y46232D01*
X19306Y47198D01*
X18952Y47810D01*
X18469Y47939D01*
X17857Y47586D01*
X17504Y48198D01*
X17021Y48327D01*
X17857Y47586D02*
X17598Y46620D01*
X-10144Y54035D02*
X-10757Y54388D01*
X-11015Y55354D01*
X-10662Y55966D01*
X-8731Y56483D01*
X-8119Y56130D01*
X-7860Y55164D01*
X-8213Y54552D01*
X-7084Y52267D02*
X-9980Y51491D01*
X-8920Y53328D01*
X-8403Y51397D01*
X-9592Y50043D02*
X-9075Y48112D01*
X-8592Y48241D01*
X-7178Y50690D01*
X-6696Y50819D01*
X-36766Y41652D02*
X-37473Y41652D01*
X-38180Y42359D01*
Y43066D01*
X-36766Y44479D01*
X-36059D01*
X-35353Y43772D01*
X-35353Y43066D01*
X-33232Y41652D02*
X-35353Y39531D01*
X-35353Y41652D01*
X-33939Y40238D01*
X-32879Y37057D02*
X-33232Y38117D01*
X-33232Y39531D01*
X-32525Y40238D01*
X-31818D01*
X-31111Y39531D01*
X-31111Y38824D01*
X-31465Y38471D01*
X-32172Y38471D01*
X-33232Y39531D01*
X-52190Y18056D02*
X-52802Y17702D01*
X-53768Y17961D01*
X-54121Y18573D01*
X-53604Y20504D01*
X-52991Y20858D01*
X-52026Y20599D01*
X-51673Y19987D01*
X-49129Y19823D02*
X-49905Y16926D01*
X-50966Y18763D01*
X-49034Y18245D01*
X-46526Y16021D02*
X-48457Y16538D01*
X-48069Y17987D01*
X-47232Y17245D01*
X-46750Y17116D01*
X-46137Y17469D01*
X-45879Y18435D01*
X-46232Y19047D01*
X-47198Y19306D01*
X-47810Y18952D01*
X-89167Y-13969D02*
X-89560Y-14557D01*
X-90541Y-14752D01*
X-91128Y-14359D01*
X-91518Y-12398D01*
X-91126Y-11810D01*
X-90145Y-11615D01*
X-89557Y-12008D01*
X-87204Y-11030D02*
X-86619Y-13972D01*
X-88382Y-12794D01*
X-86421Y-12403D01*
X-84263Y-10445D02*
X-83677Y-13386D01*
X-85441Y-12208D01*
X-83480Y-11818D01*
X-77091Y-47218D02*
X-77229Y-47911D01*
X-78060Y-48466D01*
X-78754Y-48328D01*
X-79864Y-46666D01*
X-79726Y-45973D01*
X-78895Y-45417D01*
X-78202Y-45555D01*
X-76402Y-43751D02*
X-74736Y-46245D01*
X-76815Y-45831D01*
X-75153Y-44720D01*
X-73766Y-44996D02*
X-73073Y-45134D01*
X-72242Y-44578D01*
X-72104Y-43885D01*
X-72382Y-43470D01*
X-73075Y-43332D01*
X-73491Y-43609D01*
X-73075Y-43332D01*
X-72937Y-42638D01*
X-73215Y-42223D01*
X-73908Y-42085D01*
X-74739Y-42640D01*
X-74877Y-43334D01*
X-53429Y-72690D02*
X-53291Y-73383D01*
X-53847Y-74215D01*
X-54540Y-74353D01*
X-56202Y-73242D01*
X-56340Y-72549D01*
X-55785Y-71717D01*
X-55092Y-71579D01*
X-54119Y-69224D02*
X-51625Y-70890D01*
X-53705Y-71304D01*
X-52594Y-69641D01*
X-52175Y-66315D02*
X-53286Y-67977D01*
X-50512Y-67425D01*
X-50097Y-67703D01*
X-49959Y-68396D01*
X-50514Y-69227D01*
X-51208Y-69365D01*
X-20966Y-87099D02*
X-20573Y-87687D01*
X-20768Y-88667D01*
X-21356Y-89060D01*
X-23317Y-88670D01*
X-23709Y-88082D01*
X-23514Y-87102D01*
X-22927Y-86709D01*
X-22929Y-84160D02*
X-19988Y-84745D01*
X-21751Y-85923D01*
X-21361Y-83962D01*
X-22637Y-82689D02*
X-22442Y-81709D01*
X-22539Y-82199D01*
X-19598Y-82784D01*
X-20186Y-83177D01*
X13969Y-89167D02*
X14557Y-89560D01*
X14752Y-90541D01*
X14359Y-91128D01*
X12398Y-91518D01*
X11810Y-91126D01*
X11615Y-90145D01*
X12008Y-89557D01*
X11030Y-87204D02*
X13972Y-86619D01*
X12794Y-88382D01*
X12403Y-86421D01*
X13189Y-85246D02*
X13582Y-84658D01*
X13386Y-83677D01*
X12799Y-83285D01*
X10838Y-83675D01*
X10445Y-84263D01*
X10640Y-85243D01*
X11228Y-85636D01*
X13189Y-85246D01*
X46824Y-77091D02*
X47517Y-77229D01*
X48073Y-78060D01*
X47935Y-78754D01*
X46272Y-79864D01*
X45579Y-79726D01*
X45024Y-78895D01*
X45162Y-78202D01*
X46268Y-76260D02*
X46406Y-75567D01*
X45851Y-74736D01*
X45158Y-74598D01*
X44742Y-74875D01*
X44604Y-75569D01*
X44882Y-75984D01*
X44604Y-75569D01*
X43911Y-75431D01*
X43495Y-75708D01*
X43357Y-76402D01*
X43913Y-77233D01*
X44606Y-77371D01*
X42940Y-74877D02*
X42247Y-74739D01*
X41691Y-73908D01*
X41829Y-73215D01*
X43492Y-72104D01*
X44185Y-72242D01*
X44740Y-73073D01*
X44602Y-73766D01*
X44187Y-74044D01*
X43493Y-73906D01*
X42660Y-72659D01*
X72690Y-52642D02*
X73383Y-52504D01*
X74215Y-53059D01*
X74353Y-53752D01*
X73242Y-55415D01*
X72549Y-55553D01*
X71717Y-54997D01*
X71579Y-54304D01*
X71859Y-52086D02*
X71721Y-51393D01*
X70890Y-50838D01*
X70197Y-50976D01*
X69919Y-51391D01*
X70057Y-52084D01*
X70472Y-52362D01*
X70057Y-52084D01*
X69363Y-52222D01*
X69086Y-52638D01*
X69224Y-53331D01*
X70055Y-53887D01*
X70748Y-53749D01*
X69365Y-50420D02*
X69227Y-49727D01*
X68396Y-49172D01*
X67703Y-49309D01*
X67425Y-49725D01*
X67563Y-50418D01*
X66870Y-50556D01*
X66592Y-50972D01*
X66730Y-51665D01*
X67561Y-52220D01*
X68255Y-52083D01*
X68532Y-51667D01*
X68394Y-50974D01*
X69088Y-50836D01*
X69365Y-50420D01*
X68394Y-50974D02*
X67563Y-50418D01*
X87589Y-21063D02*
X88177Y-20670D01*
X89157Y-20865D01*
X89550Y-21453D01*
X89160Y-23414D01*
X88572Y-23807D01*
X87592Y-23612D01*
X87199Y-23024D01*
X86609Y-20868D02*
X86216Y-20280D01*
X85235Y-20085D01*
X84648Y-20478D01*
X84550Y-20968D01*
X84943Y-21556D01*
X85433Y-21654D01*
X84943Y-21556D01*
X84355Y-21949D01*
X84258Y-22439D01*
X84650Y-23027D01*
X85631Y-23222D01*
X86219Y-22829D01*
X83765Y-19793D02*
X81804Y-19403D01*
X81706Y-19893D01*
X83277Y-22244D01*
X83180Y-22734D01*
X88774Y13969D02*
X89166Y14557D01*
X90147Y14752D01*
X90735Y14359D01*
X91125Y12398D01*
X90732Y11810D01*
X89752Y11615D01*
X89164Y12008D01*
X87793Y13774D02*
X87206Y14167D01*
X86225Y13972D01*
X85832Y13384D01*
X85930Y12894D01*
X86518Y12501D01*
X87008Y12598D01*
X86518Y12501D01*
X86125Y11913D01*
X86222Y11423D01*
X86810Y11030D01*
X87791Y11225D01*
X88183Y11813D01*
X82793Y13289D02*
X83871Y12994D01*
X85047Y12208D01*
X85242Y11228D01*
X84849Y10640D01*
X83869Y10445D01*
X83281Y10838D01*
X83183Y11328D01*
X83576Y11916D01*
X85047Y12208D01*
X76304Y46430D02*
X76442Y47124D01*
X77273Y47679D01*
X77966Y47541D01*
X79077Y45879D01*
X78939Y45185D01*
X78108Y44630D01*
X77415Y44768D01*
X75473Y45875D02*
X74779Y46013D01*
X73948Y45457D01*
X73810Y44764D01*
X74088Y44348D01*
X74781Y44210D01*
X75197Y44488D01*
X74781Y44210D01*
X74643Y43517D01*
X74921Y43102D01*
X75614Y42964D01*
X76446Y43519D01*
X76583Y44212D01*
X71039Y43513D02*
X72701Y44624D01*
X73534Y43377D01*
X72426Y43238D01*
X72010Y42960D01*
X71872Y42267D01*
X72427Y41435D01*
X73121Y41298D01*
X73952Y41853D01*
X74090Y42546D01*
X52642Y71509D02*
X52504Y72202D01*
X53059Y73034D01*
X53752Y73172D01*
X55415Y72061D01*
X55553Y71367D01*
X54997Y70536D01*
X54304Y70398D01*
X52086Y70678D02*
X51393Y70540D01*
X50838Y69709D01*
X50976Y69016D01*
X51391Y68738D01*
X52084Y68876D01*
X52362Y69291D01*
X52084Y68876D01*
X52222Y68182D01*
X52638Y67905D01*
X53331Y68043D01*
X53887Y68874D01*
X53749Y69567D01*
X51665Y65549D02*
X49172Y67215D01*
X51251Y67629D01*
X50141Y65966D01*
X21457Y87195D02*
X21064Y87783D01*
X21259Y88763D01*
X21847Y89156D01*
X23808Y88766D01*
X24201Y88178D01*
X24005Y87198D01*
X23418Y86805D01*
X21262Y86215D02*
X20674Y85822D01*
X20479Y84842D01*
X20872Y84254D01*
X21362Y84156D01*
X21950Y84549D01*
X22047Y85039D01*
X21950Y84549D01*
X22342Y83961D01*
X22833Y83864D01*
X23420Y84257D01*
X23616Y85237D01*
X23223Y85825D01*
X20677Y83274D02*
X20089Y82881D01*
X19894Y81900D01*
X20287Y81313D01*
X20777Y81215D01*
X21365Y81608D01*
X21462Y82098D01*
X21365Y81608D01*
X21757Y81020D01*
X22248Y80923D01*
X22835Y81315D01*
X23030Y82296D01*
X22638Y82883D01*
X-13969Y88380D02*
X-14557Y88773D01*
X-14752Y89753D01*
X-14359Y90341D01*
X-12398Y90731D01*
X-11810Y90338D01*
X-11615Y89358D01*
X-12008Y88770D01*
X-13774Y87400D02*
X-14167Y86812D01*
X-13972Y85831D01*
X-13384Y85439D01*
X-12894Y85536D01*
X-12501Y86124D01*
X-12598Y86614D01*
X-12501Y86124D01*
X-11913Y85731D01*
X-11423Y85829D01*
X-11030Y86417D01*
X-11225Y87397D01*
X-11813Y87790D01*
X-10348Y82985D02*
X-10738Y84946D01*
X-12308Y82595D01*
X-12799Y82497D01*
X-13386Y82890D01*
X-13582Y83871D01*
X-13189Y84458D01*
X-46546Y76282D02*
X-47240Y76420D01*
X-47795Y77251D01*
X-47657Y77944D01*
X-45995Y79055D01*
X-45301Y78917D01*
X-44746Y78086D01*
X-44884Y77393D01*
X-45991Y75451D02*
X-46129Y74757D01*
X-45573Y73926D01*
X-44880Y73788D01*
X-44464Y74066D01*
X-44326Y74759D01*
X-44604Y75175D01*
X-44326Y74759D01*
X-43633Y74621D01*
X-43218Y74899D01*
X-43080Y75592D01*
X-43635Y76424D01*
X-44328Y76561D01*
X-42247Y74346D02*
X-41691Y73514D01*
X-41969Y73930D01*
X-44462Y72264D01*
X-44325Y72957D01*
X-73084Y53035D02*
X-73777Y52898D01*
X-74608Y53453D01*
X-74746Y54146D01*
X-73636Y55809D01*
X-72942Y55947D01*
X-72111Y55391D01*
X-71973Y54698D01*
X-72253Y52480D02*
X-72115Y51787D01*
X-71284Y51231D01*
X-70590Y51369D01*
X-70313Y51785D01*
X-70451Y52478D01*
X-70866Y52756D01*
X-70451Y52478D01*
X-69757Y52616D01*
X-69480Y53032D01*
X-69617Y53725D01*
X-70449Y54280D01*
X-71142Y54142D01*
X-69759Y50814D02*
X-69621Y50121D01*
X-68790Y49565D01*
X-68097Y49703D01*
X-66986Y51366D01*
X-67124Y52059D01*
X-67955Y52614D01*
X-68648Y52476D01*
X-69759Y50814D01*
X-87195Y21063D02*
X-87783Y20670D01*
X-88763Y20865D01*
X-89156Y21453D01*
X-88766Y23414D01*
X-88178Y23807D01*
X-87198Y23612D01*
X-86805Y23024D01*
X-83766Y22929D02*
X-85727Y23319D01*
X-84156Y20968D01*
X-84254Y20478D01*
X-84842Y20085D01*
X-85822Y20280D01*
X-86215Y20868D01*
X-82883Y22244D02*
X-82296Y22637D01*
X-81315Y22442D01*
X-80923Y21854D01*
X-81313Y19893D01*
X-81900Y19500D01*
X-82881Y19695D01*
X-83274Y20283D01*
X-83176Y20773D01*
X-82588Y21166D01*
X-81117Y20873D01*
X-124709Y-11060D02*
X-125150Y-11612D01*
X-126144Y-11724D01*
X-126696Y-11284D01*
X-126920Y-9297D01*
X-126479Y-8744D01*
X-125486Y-8632D01*
X-124933Y-9073D01*
X-122009Y-8241D02*
X-123996Y-8464D01*
X-121785Y-10227D01*
X-121729Y-10724D01*
X-122170Y-11277D01*
X-123163Y-11389D01*
X-123716Y-10948D01*
X-120736Y-10612D02*
X-120183Y-11053D01*
X-119190Y-10941D01*
X-118749Y-10388D01*
X-118805Y-9892D01*
X-119358Y-9451D01*
X-118917Y-8898D01*
X-118973Y-8401D01*
X-119526Y-7961D01*
X-120519Y-8073D01*
X-120960Y-8625D01*
X-120904Y-9122D01*
X-120351Y-9563D01*
X-120792Y-10115D01*
X-120736Y-10612D01*
X-120351Y-9563D02*
X-119358Y-9451D01*
X-118880Y-37824D02*
X-119186Y-38461D01*
X-120130Y-38791D01*
X-120767Y-38485D01*
X-121427Y-36598D01*
X-121121Y-35961D01*
X-120177Y-35631D01*
X-119540Y-35937D01*
X-116875Y-34475D02*
X-118762Y-35135D01*
X-116214Y-36362D01*
X-116049Y-36834D01*
X-116356Y-37471D01*
X-117299Y-37801D01*
X-117936Y-37494D01*
X-114940Y-36975D02*
X-113053Y-36315D01*
X-113218Y-35843D01*
X-115766Y-34617D01*
X-115931Y-34145D01*
X-107460Y-63327D02*
X-107617Y-64017D01*
X-108464Y-64548D01*
X-109153Y-64391D01*
X-110217Y-62698D01*
X-110060Y-62009D01*
X-109213Y-61477D01*
X-108524Y-61635D01*
X-106251Y-59616D02*
X-107943Y-60680D01*
X-105187Y-61309D01*
X-104921Y-61732D01*
X-105078Y-62421D01*
X-105925Y-62953D01*
X-106614Y-62796D01*
X-102116Y-60559D02*
X-103228Y-60668D01*
X-104606Y-60354D01*
X-105138Y-59507D01*
X-104981Y-58818D01*
X-104134Y-58286D01*
X-103445Y-58443D01*
X-103179Y-58867D01*
X-103337Y-59556D01*
X-104606Y-60354D01*
X-90471Y-85979D02*
X-90471Y-86686D01*
X-91177Y-87393D01*
X-91884D01*
X-93298Y-85979D01*
Y-85272D01*
X-92591Y-84565D01*
X-91884Y-84565D01*
X-90117Y-82091D02*
X-91531Y-83505D01*
X-88704D01*
X-88350Y-83858D01*
X-88350Y-84565D01*
X-89057Y-85272D01*
X-89764D01*
X-85876Y-82091D02*
X-87290Y-83505D01*
X-88350Y-82445D01*
X-87290Y-82091D01*
X-86936Y-81738D01*
Y-81031D01*
X-87643Y-80324D01*
X-88350Y-80324D01*
X-89057Y-81031D01*
Y-81738D01*
X-69509Y-103800D02*
X-69351Y-104489D01*
X-69883Y-105335D01*
X-70572Y-105492D01*
X-72265Y-104429D01*
X-72422Y-103740D01*
X-71891Y-102893D01*
X-71201Y-102736D01*
X-70029Y-99931D02*
X-71093Y-101623D01*
X-68336Y-100994D01*
X-67913Y-101260D01*
X-67756Y-101949D01*
X-68288Y-102796D01*
X-68977Y-102953D01*
X-68700Y-97814D02*
X-66160Y-99410D01*
X-68228Y-99882D01*
X-67164Y-98189D01*
X-44205Y-116391D02*
X-43898Y-117027D01*
X-44228Y-117971D01*
X-44865Y-118278D01*
X-46753Y-117617D01*
X-47059Y-116981D01*
X-46729Y-116037D01*
X-46092Y-115730D01*
X-45573Y-112734D02*
X-46234Y-114621D01*
X-43686Y-113395D01*
X-43214Y-113560D01*
X-42908Y-114197D01*
X-43238Y-115140D01*
X-43875Y-115447D01*
X-42884Y-112616D02*
X-42247Y-112310D01*
X-41917Y-111366D01*
X-42224Y-110729D01*
X-42696Y-110564D01*
X-43333Y-110871D01*
X-43498Y-111343D01*
X-43333Y-110871D01*
X-43639Y-110234D01*
X-44111Y-110069D01*
X-44748Y-110375D01*
X-45078Y-111319D01*
X-44771Y-111956D01*
X-17341Y-123359D02*
X-16900Y-123911D01*
X-17012Y-124905D01*
X-17565Y-125345D01*
X-19551Y-125121D01*
X-19992Y-124569D01*
X-19880Y-123575D01*
X-19328Y-123135D01*
X-19488Y-120098D02*
X-19712Y-122085D01*
X-17502Y-120322D01*
X-17005Y-120378D01*
X-16564Y-120931D01*
X-16676Y-121924D01*
X-17229Y-122365D01*
X-19153Y-117118D02*
X-19376Y-119105D01*
X-17166Y-117342D01*
X-16669Y-117398D01*
X-16228Y-117951D01*
X-16340Y-118944D01*
X-16893Y-119385D01*
X11004Y-123819D02*
X11557Y-124260D01*
X11668Y-125253D01*
X11228Y-125806D01*
X9241Y-126030D01*
X8688Y-125589D01*
X8576Y-124596D01*
X9017Y-124043D01*
X8185Y-121119D02*
X8408Y-123106D01*
X10171Y-120895D01*
X10668Y-120839D01*
X11221Y-121280D01*
X11333Y-122273D01*
X10892Y-122826D01*
X8073Y-120125D02*
X7961Y-119132D01*
X8017Y-119629D01*
X10997Y-119293D01*
X10556Y-119845D01*
X38218Y-118486D02*
X38855Y-118793D01*
X39185Y-119736D01*
X38879Y-120373D01*
X36991Y-121034D01*
X36354Y-120727D01*
X36024Y-119783D01*
X36331Y-119147D01*
X34869Y-116481D02*
X35529Y-118368D01*
X36756Y-115821D01*
X37228Y-115655D01*
X37864Y-115962D01*
X38195Y-116906D01*
X37888Y-117543D01*
X36897Y-114712D02*
X37204Y-114075D01*
X36874Y-113131D01*
X36237Y-112825D01*
X34350Y-113485D01*
X34043Y-114122D01*
X34373Y-115065D01*
X35010Y-115372D01*
X36897Y-114712D01*
X63588Y-106855D02*
X64277Y-107012D01*
X64809Y-107859D01*
X64652Y-108548D01*
X62959Y-109612D01*
X62270Y-109454D01*
X61738Y-108608D01*
X61895Y-107919D01*
X60940Y-107338D02*
X60408Y-106492D01*
X60674Y-106915D01*
X63214Y-105319D01*
X63056Y-106009D01*
X60034Y-104956D02*
X59345Y-104799D01*
X58813Y-103952D01*
X58970Y-103263D01*
X60663Y-102199D01*
X61352Y-102357D01*
X61884Y-103203D01*
X61727Y-103892D01*
X61304Y-104158D01*
X60614Y-104001D01*
X59816Y-102731D01*
X85015Y-89507D02*
X85722Y-89507D01*
X86428Y-90213D01*
Y-90920D01*
X85015Y-92334D01*
X84308D01*
X83601Y-91627D01*
X83601Y-90920D01*
X82541Y-90567D02*
X81834Y-89860D01*
X82187Y-90213D01*
X84308Y-88093D01*
Y-88800D01*
X82541Y-87033D02*
Y-86326D01*
X81834Y-85619D01*
X81127D01*
X80774Y-85972D01*
Y-86679D01*
X80067Y-86679D01*
X79713Y-87033D01*
X79713Y-87739D01*
X80420Y-88446D01*
X81127D01*
X81480Y-88093D01*
Y-87386D01*
X82187Y-87386D01*
X82541Y-87033D01*
X81480Y-87386D02*
X80774Y-86679D01*
X103194Y-68588D02*
X103883Y-68431D01*
X104730Y-68963D01*
X104887Y-69652D01*
X103823Y-71345D01*
X103134Y-71502D01*
X102288Y-70970D01*
X102130Y-70281D01*
X101018Y-70173D02*
X100172Y-69641D01*
X100595Y-69907D01*
X102190Y-67367D01*
X102348Y-68056D01*
X100498Y-66303D02*
X98805Y-65240D01*
X98539Y-65663D01*
X99168Y-68420D01*
X98902Y-68843D01*
X116155Y-43729D02*
X116791Y-43422D01*
X117735Y-43752D01*
X118042Y-44389D01*
X117382Y-46276D01*
X116745Y-46583D01*
X115801Y-46253D01*
X115494Y-45616D01*
X114386Y-45757D02*
X113442Y-45427D01*
X113914Y-45592D01*
X114904Y-42762D01*
X115211Y-43398D01*
X111130Y-41441D02*
X111909Y-42243D01*
X112522Y-43517D01*
X112192Y-44460D01*
X111555Y-44767D01*
X110611Y-44437D01*
X110305Y-43800D01*
X110470Y-43328D01*
X111107Y-43021D01*
X112522Y-43517D01*
X122716Y-16919D02*
X123269Y-16478D01*
X124263Y-16590D01*
X124703Y-17143D01*
X124479Y-19130D01*
X123927Y-19570D01*
X122933Y-19458D01*
X122493Y-18906D01*
X121443Y-19291D02*
X120450Y-19179D01*
X120947Y-19235D01*
X121282Y-16254D01*
X121723Y-16807D01*
X117309Y-15807D02*
X119296Y-16031D01*
X119128Y-17521D01*
X118190Y-16912D01*
X117694Y-16856D01*
X117141Y-17297D01*
X117029Y-18290D01*
X117470Y-18843D01*
X118463Y-18955D01*
X119016Y-18514D01*
X124067Y11426D02*
X124508Y11978D01*
X125502Y12090D01*
X126054Y11649D01*
X126278Y9663D01*
X125837Y9110D01*
X124844Y8998D01*
X124291Y9439D01*
X123354Y8830D02*
X122361Y8718D01*
X122857Y8774D01*
X122521Y11754D01*
X123074Y11314D01*
X119380Y8382D02*
X119044Y11362D01*
X120703Y10040D01*
X118716Y9816D01*
X117857Y38136D02*
X118163Y38772D01*
X119107Y39103D01*
X119744Y38796D01*
X120404Y36909D01*
X120097Y36272D01*
X119154Y35942D01*
X118517Y36248D01*
X117738Y35446D02*
X116795Y35116D01*
X117267Y35281D01*
X116276Y38112D01*
X116913Y37805D01*
X114554Y36980D02*
X113917Y37287D01*
X112973Y36957D01*
X112667Y36320D01*
X112832Y35848D01*
X113469Y35541D01*
X113941Y35706D01*
X113469Y35541D01*
X113162Y34904D01*
X113327Y34432D01*
X113964Y34126D01*
X114908Y34456D01*
X115214Y35093D01*
X106855Y63588D02*
X107012Y64277D01*
X107859Y64809D01*
X108548Y64652D01*
X109612Y62959D01*
X109454Y62270D01*
X108608Y61738D01*
X107919Y61895D01*
X107338Y60940D02*
X106492Y60408D01*
X106915Y60674D01*
X105319Y63214D01*
X106009Y63056D01*
X103529Y58547D02*
X105222Y59611D01*
X102465Y60240D01*
X102199Y60663D01*
X102357Y61352D01*
X103203Y61884D01*
X103892Y61727D01*
X89153Y84661D02*
X89153Y85368D01*
X89860Y86075D01*
X90567D01*
X91981Y84661D01*
Y83955D01*
X91274Y83248D01*
X90567Y83248D01*
X90213Y82187D02*
X89507Y81480D01*
X89860Y81834D01*
X87739Y83955D01*
X88446D01*
Y80420D02*
X87739Y79713D01*
X88093Y80067D01*
X85972Y82187D01*
X86679D01*
X68982Y103194D02*
X68825Y103883D01*
X69357Y104730D01*
X70046Y104887D01*
X71739Y103823D01*
X71896Y103134D01*
X71364Y102288D01*
X70675Y102130D01*
X70566Y101018D02*
X70034Y100172D01*
X70300Y100595D01*
X67761Y102190D01*
X68450Y102348D01*
X67120Y100232D02*
X66431Y100074D01*
X65899Y99228D01*
X66057Y98539D01*
X67750Y97475D01*
X68439Y97632D01*
X68971Y98479D01*
X68813Y99168D01*
X67120Y100232D01*
X43316Y114582D02*
X43009Y115218D01*
X43339Y116162D01*
X43976Y116469D01*
X45864Y115808D01*
X46170Y115171D01*
X45840Y114228D01*
X45203Y113921D01*
X44873Y112978D02*
X45180Y112341D01*
X44850Y111397D01*
X44213Y111090D01*
X42325Y111751D01*
X42019Y112388D01*
X42349Y113331D01*
X42986Y113638D01*
X43458Y113473D01*
X43764Y112836D01*
X43269Y111421D01*
X16779Y121869D02*
X16338Y122421D01*
X16450Y123415D01*
X17003Y123855D01*
X18990Y123631D01*
X19431Y123079D01*
X19319Y122085D01*
X18766Y121645D01*
X16667Y120875D02*
X16115Y120434D01*
X16003Y119441D01*
X16443Y118888D01*
X16940Y118832D01*
X17493Y119273D01*
X17933Y118720D01*
X18430Y118664D01*
X18983Y119105D01*
X19095Y120098D01*
X18654Y120651D01*
X18157Y120707D01*
X17605Y120266D01*
X17164Y120819D01*
X16667Y120875D01*
X17605Y120266D02*
X17493Y119273D01*
X-10498Y123219D02*
X-11051Y123660D01*
X-11163Y124653D01*
X-10722Y125206D01*
X-8735Y125430D01*
X-8183Y124989D01*
X-8071Y123996D01*
X-8511Y123443D01*
X-10883Y122170D02*
X-10659Y120183D01*
X-10162Y120239D01*
X-8399Y122450D01*
X-7903Y122506D01*
X-38117Y117464D02*
X-38753Y117771D01*
X-39084Y118715D01*
X-38777Y119352D01*
X-36890Y120012D01*
X-36253Y119705D01*
X-35923Y118762D01*
X-36229Y118125D01*
X-37598Y114469D02*
X-37456Y115577D01*
X-36843Y116851D01*
X-35899Y117181D01*
X-35262Y116875D01*
X-34932Y115931D01*
X-35239Y115294D01*
X-35711Y115129D01*
X-36347Y115436D01*
X-36843Y116851D01*
X-62923Y106191D02*
X-63613Y106348D01*
X-64144Y107194D01*
X-63987Y107884D01*
X-62294Y108947D01*
X-61605Y108790D01*
X-61073Y107943D01*
X-61230Y107254D01*
X-61751Y103385D02*
X-62815Y105078D01*
X-61545Y105876D01*
X-61436Y104764D01*
X-61171Y104340D01*
X-60481Y104183D01*
X-59635Y104715D01*
X-59478Y105404D01*
X-60009Y106251D01*
X-60699Y106408D01*
X-84919Y89410D02*
X-85625Y89410D01*
X-86332Y90117D01*
Y90824D01*
X-84919Y92238D01*
X-84212D01*
X-83505Y91531D01*
X-83505Y90824D01*
X-81384Y89410D02*
X-83505Y87290D01*
X-83505Y89410D01*
X-82091Y87997D01*
X-102530Y68317D02*
X-103219Y68160D01*
X-104066Y68692D01*
X-104223Y69381D01*
X-103159Y71074D01*
X-102470Y71231D01*
X-101623Y70699D01*
X-101466Y70010D01*
X-101683Y67785D02*
X-101526Y67096D01*
X-100680Y66564D01*
X-99991Y66721D01*
X-99725Y67145D01*
X-99882Y67834D01*
X-100305Y68100D01*
X-99882Y67834D01*
X-99193Y67991D01*
X-98927Y68414D01*
X-99084Y69104D01*
X-99931Y69635D01*
X-100620Y69478D01*
X-115369Y43316D02*
X-116006Y43009D01*
X-116949Y43339D01*
X-117256Y43976D01*
X-116596Y45864D01*
X-115959Y46170D01*
X-115015Y45840D01*
X-114709Y45203D01*
X-111713Y44684D02*
X-113600Y45345D01*
X-112373Y42797D01*
X-112538Y42325D01*
X-113175Y42019D01*
X-114119Y42349D01*
X-114425Y42986D01*
X-121372Y16723D02*
X-121924Y16282D01*
X-122918Y16394D01*
X-123359Y16947D01*
X-123135Y18934D01*
X-122582Y19375D01*
X-121589Y19263D01*
X-121148Y18710D01*
X-120098Y19095D02*
X-119105Y18983D01*
X-119602Y19039D01*
X-119938Y16059D01*
X-120378Y16611D01*
M02*
