M48
;Layer_Color=9474304
;FILE_FORMAT=2:5
INCH,LZ
;TYPE=PLATED
T1F00S00C0.01181
T2F00S00C0.03543
%
T01
X-0088655Y-0088754
X-0084153Y-008435
X-0090791Y-0077453
X-008138Y-0095717
X-0071297Y-0095701
X-0063484Y-0100886
X-0067002Y-0106569
X-0058024Y-0111444
X-0048197Y-0109185
X-003937Y-0112697
X-0041437Y-0118602
X-0031783Y-0121565
X-0022705Y-0117175
X-0013386Y-0118602
X-0014075Y-0124705
X-0003937Y-0125591
X0003937Y-0119291
X0013386Y-0118799
X0014075Y-0125101
X0024107Y-0123317
X0030382Y-0115423
X003937Y-0112598
X0041437Y-0118297
X005093Y-0114861
X0055291Y-0105769
X0066807Y-0106496
X0063583Y-0101181
X0075224Y-0100626
X0077453Y-0090791
X0031229Y-0085716
X0036093Y-0076883
X0016535Y-0083465
X0017717Y-0088976
X0003937Y-0084842
X-0003937Y-0091142
X-0017717Y-0088976
X-0016535Y-0083465
X-0028819Y-0079896
X-0038504Y-0082702
X008435Y-0084252
X0088712Y-0088171
X0095717Y-008138
X0095701Y-0071297
X0100984Y-0063386
X0106201Y-0066634
X0111444Y-0058024
X0109185Y-0048197
X0112697Y-003937
X0118504Y-0041535
X0121565Y-0031783
X0117175Y-0022705
X0118701Y-0013287
X0124902Y-0014075
X0126772Y-0002756
X0119291Y0003937
X0118701Y0013287
X0125049Y0014339
X0123317Y0024107
X0115423Y0030382
X0112697Y003937
X0118209Y0041437
X0114861Y005093
X0105769Y0055291
X0106201Y0066732
X0101083Y0063484
X0100626Y0075224
X0090791Y0077453
X0085716Y0031229
X0088976Y0017717
X0083071Y0016535
X0084842Y0003937
X0090945Y-0002756
X0088976Y-0017717
X0083071Y-0016535
X0082702Y-0038504
X0079896Y-0028819
X007559Y-0050394
X0070866Y-0047244
X0062761Y-0057194
X0062026Y-0067168
X0047244Y-0070866
X0050394Y-007559
X0039764Y-0039764
X0035827Y-0035827
X002874Y-0040945
X002474Y-005072
X0012992Y-0048819
X0014567Y-0054331
X0003937Y-005
X-0003937Y-0056299
X-0014567Y-0054331
X-0012992Y-0048819
X-0021654Y-0045276
X-0031559Y-0046783
X-0039764Y-0039764
X-0035827Y-0035827
X-0041339Y-0028346
X-005072Y-002474
X-0048819Y-0012992
X-0054331Y-0014567
X-005Y-0002756
X-0056299Y0002756
X-0054331Y0014567
X-0048392Y0012878
X-0045276Y0021654
X-004685Y0031496
X-0039764Y0039764
X-0035827Y0035827
X-002874Y0040945
X-002474Y005072
X-0012992Y0048819
X-0014567Y0054331
X-0003937Y005
X0003937Y0056299
X0014567Y0054331
X0012992Y0048819
X0021654Y0044882
X0031559Y0046783
X0039764Y0039764
X0035827Y0035827
X0040945Y0029134
X005072Y002474
X0048819Y0012992
X0054331Y0014567
X005Y000315
X0056299Y-0002756
X0054331Y-0014567
X0048819Y-0012992
X0045276Y-002126
X0046783Y-0031559
X0031102Y0
X0016142Y-0008268
X0010236Y-0015354
X0008268Y-0000819
X000238Y0000347
X-0004779Y-0002811
X0Y-000898
X-0015354Y-0009843
X-0008661Y-0017323
X-0023391Y0000878
X-0009843Y0015748
X0Y0008661
X0015354Y0009843
X0008661Y0017323
X0028819Y0079896
X0050394Y007559
X0047244Y0070472
X0057194Y0062761
X0067216Y0061648
X0070472Y0047244
X007559Y0050394
X0076883Y0036093
X-0036093Y0076883
X-0050394Y007559
X-0047244Y0070472
X-0061648Y0067216
X-0062761Y0057194
X-0070472Y0047244
X-007559Y0050394
Y-0050394
X-0070472Y-0047244
X-0067216Y-0061648
X-0057194Y-0062761
X-0047244Y-0070472
X-0050394Y-007559
X-0100626Y-0075224
X-0100984Y-0063386
X-0106595Y-0066929
X-0105769Y-0055291
X-0114861Y-005093
X-0118677Y-0041535
X-0112598Y-003937
X-0115423Y-0030382
X-0123317Y-0024107
X-0124803Y-0014075
X-0118602Y-0013287
X-0119266Y-0004056
X-0123622Y-0003543
X-0125591Y0002756
X-0124976Y0014075
X-0118504Y0013189
X-0117175Y0022705
X-0121565Y0031783
X-0118504Y0041457
X-0112598Y0039469
X-0109186Y0048197
X-0111444Y0058024
X-0106299Y0066831
X-0101083Y0063484
X-0095701Y0071297
X-0082702Y0038504
X-0079896Y0028819
X-0083071Y0016535
X-0088976Y0017717
X-0090945Y000315
X-0085039Y-0002756
X-0083472Y-0016535
X-0088976Y-0017717
X-0085716Y-0031229
X-0076883Y-0036093
X-0077453Y0090791
X-0088681Y0088779
X-0084252Y0084252
X-0095716Y008138
X-0075224Y0100626
X-0063386Y0100984
X-0066732Y0106299
X-0055291Y0105769
X-005093Y0114861
X-0041437Y0118504
X-003937Y01125
X-0030382Y0115423
X-0024107Y0123317
X-0013976Y0124705
X-0013287Y0118602
X-0003937Y0119291
X0003937Y0125591
X0013976Y0124705
X0013386Y0118602
X0022705Y0117175
X0031783Y0121565
X0041437Y0118405
X003937Y0112598
X0048197Y0109185
X0058024Y0111444
X0066831Y0106299
X0063484Y0101083
X0071297Y0095701
X0038504Y0082702
X0016535Y0083071
X0017717Y0088976
X0003937Y0091142
X-0003937Y0084842
X-0016535Y0083071
X-0017717Y0088976
X-0031229Y0085716
X008435Y008435
X0088681Y0088779
X008138Y0095717
T02
X0098032Y0000787
X0105118
X0112205
X-0098228
X-0105315
X-0112402
M30
