G04*
G04 #@! TF.GenerationSoftware,Altium Limited,Altium Designer,20.2.4 (192)*
G04*
G04 Layer_Color=8388736*
%FSLAX25Y25*%
%MOIN*%
G70*
G04*
G04 #@! TF.SameCoordinates,D12834CA-4DE5-443E-9A18-81BA23B25CB7*
G04*
G04*
G04 #@! TF.FilePolarity,Negative*
G04*
G01*
G75*
%ADD134R,0.05918X0.04343*%
%ADD135R,0.10249X0.03950*%
%ADD136R,0.09461X0.05524*%
%ADD137R,0.06706X0.05918*%
G04:AMPARAMS|DCode=138|XSize=31.62mil|YSize=35.56mil|CornerRadius=0mil|HoleSize=0mil|Usage=FLASHONLY|Rotation=173.571|XOffset=0mil|YOffset=0mil|HoleType=Round|Shape=Rectangle|*
%AMROTATEDRECTD138*
4,1,4,0.01770,0.01590,0.01372,-0.01944,-0.01770,-0.01590,-0.01372,0.01944,0.01770,0.01590,0.0*
%
%ADD138ROTATEDRECTD138*%

G04:AMPARAMS|DCode=139|XSize=31.62mil|YSize=35.56mil|CornerRadius=0mil|HoleSize=0mil|Usage=FLASHONLY|Rotation=160.714|XOffset=0mil|YOffset=0mil|HoleType=Round|Shape=Rectangle|*
%AMROTATEDRECTD139*
4,1,4,0.02080,0.01156,0.00905,-0.02200,-0.02080,-0.01156,-0.00905,0.02200,0.02080,0.01156,0.0*
%
%ADD139ROTATEDRECTD139*%

G04:AMPARAMS|DCode=140|XSize=31.62mil|YSize=35.56mil|CornerRadius=0mil|HoleSize=0mil|Usage=FLASHONLY|Rotation=147.857|XOffset=0mil|YOffset=0mil|HoleType=Round|Shape=Rectangle|*
%AMROTATEDRECTD140*
4,1,4,0.02285,0.00664,0.00393,-0.02347,-0.02285,-0.00664,-0.00393,0.02347,0.02285,0.00664,0.0*
%
%ADD140ROTATEDRECTD140*%

G04:AMPARAMS|DCode=141|XSize=31.62mil|YSize=35.56mil|CornerRadius=0mil|HoleSize=0mil|Usage=FLASHONLY|Rotation=135.000|XOffset=0mil|YOffset=0mil|HoleType=Round|Shape=Rectangle|*
%AMROTATEDRECTD141*
4,1,4,0.02375,0.00139,-0.00139,-0.02375,-0.02375,-0.00139,0.00139,0.02375,0.02375,0.00139,0.0*
%
%ADD141ROTATEDRECTD141*%

G04:AMPARAMS|DCode=142|XSize=31.62mil|YSize=35.56mil|CornerRadius=0mil|HoleSize=0mil|Usage=FLASHONLY|Rotation=122.143|XOffset=0mil|YOffset=0mil|HoleType=Round|Shape=Rectangle|*
%AMROTATEDRECTD142*
4,1,4,0.02347,-0.00393,-0.00664,-0.02285,-0.02347,0.00393,0.00664,0.02285,0.02347,-0.00393,0.0*
%
%ADD142ROTATEDRECTD142*%

G04:AMPARAMS|DCode=143|XSize=31.62mil|YSize=35.56mil|CornerRadius=0mil|HoleSize=0mil|Usage=FLASHONLY|Rotation=109.286|XOffset=0mil|YOffset=0mil|HoleType=Round|Shape=Rectangle|*
%AMROTATEDRECTD143*
4,1,4,0.02200,-0.00905,-0.01156,-0.02080,-0.02200,0.00905,0.01156,0.02080,0.02200,-0.00905,0.0*
%
%ADD143ROTATEDRECTD143*%

G04:AMPARAMS|DCode=144|XSize=31.62mil|YSize=35.56mil|CornerRadius=0mil|HoleSize=0mil|Usage=FLASHONLY|Rotation=57.857|XOffset=0mil|YOffset=0mil|HoleType=Round|Shape=Rectangle|*
%AMROTATEDRECTD144*
4,1,4,0.00664,-0.02285,-0.02347,-0.00393,-0.00664,0.02285,0.02347,0.00393,0.00664,-0.02285,0.0*
%
%ADD144ROTATEDRECTD144*%

G04:AMPARAMS|DCode=145|XSize=31.62mil|YSize=35.56mil|CornerRadius=0mil|HoleSize=0mil|Usage=FLASHONLY|Rotation=45.000|XOffset=0mil|YOffset=0mil|HoleType=Round|Shape=Rectangle|*
%AMROTATEDRECTD145*
4,1,4,0.00139,-0.02375,-0.02375,0.00139,-0.00139,0.02375,0.02375,-0.00139,0.00139,-0.02375,0.0*
%
%ADD145ROTATEDRECTD145*%

G04:AMPARAMS|DCode=146|XSize=31.62mil|YSize=35.56mil|CornerRadius=0mil|HoleSize=0mil|Usage=FLASHONLY|Rotation=32.143|XOffset=0mil|YOffset=0mil|HoleType=Round|Shape=Rectangle|*
%AMROTATEDRECTD146*
4,1,4,-0.00393,-0.02347,-0.02285,0.00664,0.00393,0.02347,0.02285,-0.00664,-0.00393,-0.02347,0.0*
%
%ADD146ROTATEDRECTD146*%

G04:AMPARAMS|DCode=147|XSize=31.62mil|YSize=35.56mil|CornerRadius=0mil|HoleSize=0mil|Usage=FLASHONLY|Rotation=19.286|XOffset=0mil|YOffset=0mil|HoleType=Round|Shape=Rectangle|*
%AMROTATEDRECTD147*
4,1,4,-0.00905,-0.02200,-0.02080,0.01156,0.00905,0.02200,0.02080,-0.01156,-0.00905,-0.02200,0.0*
%
%ADD147ROTATEDRECTD147*%

G04:AMPARAMS|DCode=148|XSize=59.18mil|YSize=43.43mil|CornerRadius=0mil|HoleSize=0mil|Usage=FLASHONLY|Rotation=321.429|XOffset=0mil|YOffset=0mil|HoleType=Round|Shape=Rectangle|*
%AMROTATEDRECTD148*
4,1,4,-0.03668,0.00147,-0.00960,0.03543,0.03668,-0.00147,0.00960,-0.03543,-0.03668,0.00147,0.0*
%
%ADD148ROTATEDRECTD148*%

G04:AMPARAMS|DCode=149|XSize=102.49mil|YSize=39.5mil|CornerRadius=0mil|HoleSize=0mil|Usage=FLASHONLY|Rotation=321.429|XOffset=0mil|YOffset=0mil|HoleType=Round|Shape=Rectangle|*
%AMROTATEDRECTD149*
4,1,4,-0.05238,0.01651,-0.02775,0.04739,0.05238,-0.01651,0.02775,-0.04739,-0.05238,0.01651,0.0*
%
%ADD149ROTATEDRECTD149*%

G04:AMPARAMS|DCode=150|XSize=94.61mil|YSize=55.24mil|CornerRadius=0mil|HoleSize=0mil|Usage=FLASHONLY|Rotation=321.429|XOffset=0mil|YOffset=0mil|HoleType=Round|Shape=Rectangle|*
%AMROTATEDRECTD150*
4,1,4,-0.05421,0.00790,-0.01977,0.05109,0.05421,-0.00790,0.01977,-0.05109,-0.05421,0.00790,0.0*
%
%ADD150ROTATEDRECTD150*%

G04:AMPARAMS|DCode=151|XSize=67.06mil|YSize=59.18mil|CornerRadius=0mil|HoleSize=0mil|Usage=FLASHONLY|Rotation=321.429|XOffset=0mil|YOffset=0mil|HoleType=Round|Shape=Rectangle|*
%AMROTATEDRECTD151*
4,1,4,-0.04466,-0.00223,-0.00776,0.04404,0.04466,0.00223,0.00776,-0.04404,-0.04466,-0.00223,0.0*
%
%ADD151ROTATEDRECTD151*%

G04:AMPARAMS|DCode=152|XSize=59.18mil|YSize=43.43mil|CornerRadius=0mil|HoleSize=0mil|Usage=FLASHONLY|Rotation=308.571|XOffset=0mil|YOffset=0mil|HoleType=Round|Shape=Rectangle|*
%AMROTATEDRECTD152*
4,1,4,-0.03543,0.00960,-0.00147,0.03668,0.03543,-0.00960,0.00147,-0.03668,-0.03543,0.00960,0.0*
%
%ADD152ROTATEDRECTD152*%

G04:AMPARAMS|DCode=153|XSize=102.49mil|YSize=39.5mil|CornerRadius=0mil|HoleSize=0mil|Usage=FLASHONLY|Rotation=308.571|XOffset=0mil|YOffset=0mil|HoleType=Round|Shape=Rectangle|*
%AMROTATEDRECTD153*
4,1,4,-0.04739,0.02775,-0.01651,0.05238,0.04739,-0.02775,0.01651,-0.05238,-0.04739,0.02775,0.0*
%
%ADD153ROTATEDRECTD153*%

G04:AMPARAMS|DCode=154|XSize=94.61mil|YSize=55.24mil|CornerRadius=0mil|HoleSize=0mil|Usage=FLASHONLY|Rotation=308.571|XOffset=0mil|YOffset=0mil|HoleType=Round|Shape=Rectangle|*
%AMROTATEDRECTD154*
4,1,4,-0.05109,0.01977,-0.00790,0.05421,0.05109,-0.01977,0.00790,-0.05421,-0.05109,0.01977,0.0*
%
%ADD154ROTATEDRECTD154*%

G04:AMPARAMS|DCode=155|XSize=67.06mil|YSize=59.18mil|CornerRadius=0mil|HoleSize=0mil|Usage=FLASHONLY|Rotation=308.571|XOffset=0mil|YOffset=0mil|HoleType=Round|Shape=Rectangle|*
%AMROTATEDRECTD155*
4,1,4,-0.04404,0.00776,0.00223,0.04466,0.04404,-0.00776,-0.00223,-0.04466,-0.04404,0.00776,0.0*
%
%ADD155ROTATEDRECTD155*%

G04:AMPARAMS|DCode=156|XSize=59.18mil|YSize=43.43mil|CornerRadius=0mil|HoleSize=0mil|Usage=FLASHONLY|Rotation=295.714|XOffset=0mil|YOffset=0mil|HoleType=Round|Shape=Rectangle|*
%AMROTATEDRECTD156*
4,1,4,-0.03241,0.01724,0.00673,0.03608,0.03241,-0.01724,-0.00673,-0.03608,-0.03241,0.01724,0.0*
%
%ADD156ROTATEDRECTD156*%

G04:AMPARAMS|DCode=157|XSize=102.49mil|YSize=39.5mil|CornerRadius=0mil|HoleSize=0mil|Usage=FLASHONLY|Rotation=295.714|XOffset=0mil|YOffset=0mil|HoleType=Round|Shape=Rectangle|*
%AMROTATEDRECTD157*
4,1,4,-0.04003,0.03760,-0.00444,0.05474,0.04003,-0.03760,0.00444,-0.05474,-0.04003,0.03760,0.0*
%
%ADD157ROTATEDRECTD157*%

G04:AMPARAMS|DCode=158|XSize=94.61mil|YSize=55.24mil|CornerRadius=0mil|HoleSize=0mil|Usage=FLASHONLY|Rotation=295.714|XOffset=0mil|YOffset=0mil|HoleType=Round|Shape=Rectangle|*
%AMROTATEDRECTD158*
4,1,4,-0.04541,0.03064,0.00436,0.05461,0.04541,-0.03064,-0.00436,-0.05461,-0.04541,0.03064,0.0*
%
%ADD158ROTATEDRECTD158*%

G04:AMPARAMS|DCode=159|XSize=67.06mil|YSize=59.18mil|CornerRadius=0mil|HoleSize=0mil|Usage=FLASHONLY|Rotation=295.714|XOffset=0mil|YOffset=0mil|HoleType=Round|Shape=Rectangle|*
%AMROTATEDRECTD159*
4,1,4,-0.04121,0.01737,0.01211,0.04305,0.04121,-0.01737,-0.01211,-0.04305,-0.04121,0.01737,0.0*
%
%ADD159ROTATEDRECTD159*%

G04:AMPARAMS|DCode=160|XSize=59.18mil|YSize=43.43mil|CornerRadius=0mil|HoleSize=0mil|Usage=FLASHONLY|Rotation=282.857|XOffset=0mil|YOffset=0mil|HoleType=Round|Shape=Rectangle|*
%AMROTATEDRECTD160*
4,1,4,-0.02776,0.02402,0.01459,0.03368,0.02776,-0.02402,-0.01459,-0.03368,-0.02776,0.02402,0.0*
%
%ADD160ROTATEDRECTD160*%

G04:AMPARAMS|DCode=161|XSize=102.49mil|YSize=39.5mil|CornerRadius=0mil|HoleSize=0mil|Usage=FLASHONLY|Rotation=282.857|XOffset=0mil|YOffset=0mil|HoleType=Round|Shape=Rectangle|*
%AMROTATEDRECTD161*
4,1,4,-0.03066,0.04557,0.00785,0.05435,0.03066,-0.04557,-0.00785,-0.05435,-0.03066,0.04557,0.0*
%
%ADD161ROTATEDRECTD161*%

G04:AMPARAMS|DCode=162|XSize=94.61mil|YSize=55.24mil|CornerRadius=0mil|HoleSize=0mil|Usage=FLASHONLY|Rotation=282.857|XOffset=0mil|YOffset=0mil|HoleType=Round|Shape=Rectangle|*
%AMROTATEDRECTD162*
4,1,4,-0.03746,0.03998,0.01640,0.05227,0.03746,-0.03998,-0.01640,-0.05227,-0.03746,0.03998,0.0*
%
%ADD162ROTATEDRECTD162*%

G04:AMPARAMS|DCode=163|XSize=67.06mil|YSize=59.18mil|CornerRadius=0mil|HoleSize=0mil|Usage=FLASHONLY|Rotation=282.857|XOffset=0mil|YOffset=0mil|HoleType=Round|Shape=Rectangle|*
%AMROTATEDRECTD163*
4,1,4,-0.03631,0.02610,0.02139,0.03927,0.03631,-0.02610,-0.02139,-0.03927,-0.03631,0.02610,0.0*
%
%ADD163ROTATEDRECTD163*%

%ADD164R,0.04343X0.05918*%
%ADD165R,0.03950X0.10249*%
%ADD166R,0.05524X0.09461*%
%ADD167R,0.05918X0.06706*%
G04:AMPARAMS|DCode=168|XSize=59.18mil|YSize=43.43mil|CornerRadius=0mil|HoleSize=0mil|Usage=FLASHONLY|Rotation=257.143|XOffset=0mil|YOffset=0mil|HoleType=Round|Shape=Rectangle|*
%AMROTATEDRECTD168*
4,1,4,-0.01459,0.03368,0.02776,0.02402,0.01459,-0.03368,-0.02776,-0.02402,-0.01459,0.03368,0.0*
%
%ADD168ROTATEDRECTD168*%

G04:AMPARAMS|DCode=169|XSize=102.49mil|YSize=39.5mil|CornerRadius=0mil|HoleSize=0mil|Usage=FLASHONLY|Rotation=257.143|XOffset=0mil|YOffset=0mil|HoleType=Round|Shape=Rectangle|*
%AMROTATEDRECTD169*
4,1,4,-0.00785,0.05435,0.03066,0.04557,0.00785,-0.05435,-0.03066,-0.04557,-0.00785,0.05435,0.0*
%
%ADD169ROTATEDRECTD169*%

G04:AMPARAMS|DCode=170|XSize=94.61mil|YSize=55.24mil|CornerRadius=0mil|HoleSize=0mil|Usage=FLASHONLY|Rotation=257.143|XOffset=0mil|YOffset=0mil|HoleType=Round|Shape=Rectangle|*
%AMROTATEDRECTD170*
4,1,4,-0.01640,0.05227,0.03746,0.03998,0.01640,-0.05227,-0.03746,-0.03998,-0.01640,0.05227,0.0*
%
%ADD170ROTATEDRECTD170*%

G04:AMPARAMS|DCode=171|XSize=67.06mil|YSize=59.18mil|CornerRadius=0mil|HoleSize=0mil|Usage=FLASHONLY|Rotation=257.143|XOffset=0mil|YOffset=0mil|HoleType=Round|Shape=Rectangle|*
%AMROTATEDRECTD171*
4,1,4,-0.02139,0.03927,0.03631,0.02610,0.02139,-0.03927,-0.03631,-0.02610,-0.02139,0.03927,0.0*
%
%ADD171ROTATEDRECTD171*%

G04:AMPARAMS|DCode=172|XSize=31.62mil|YSize=35.56mil|CornerRadius=0mil|HoleSize=0mil|Usage=FLASHONLY|Rotation=70.714|XOffset=0mil|YOffset=0mil|HoleType=Round|Shape=Rectangle|*
%AMROTATEDRECTD172*
4,1,4,0.01156,-0.02080,-0.02200,-0.00905,-0.01156,0.02080,0.02200,0.00905,0.01156,-0.02080,0.0*
%
%ADD172ROTATEDRECTD172*%

G04:AMPARAMS|DCode=173|XSize=59.18mil|YSize=43.43mil|CornerRadius=0mil|HoleSize=0mil|Usage=FLASHONLY|Rotation=192.857|XOffset=0mil|YOffset=0mil|HoleType=Round|Shape=Rectangle|*
%AMROTATEDRECTD173*
4,1,4,0.02402,0.02776,0.03368,-0.01459,-0.02402,-0.02776,-0.03368,0.01459,0.02402,0.02776,0.0*
%
%ADD173ROTATEDRECTD173*%

G04:AMPARAMS|DCode=174|XSize=102.49mil|YSize=39.5mil|CornerRadius=0mil|HoleSize=0mil|Usage=FLASHONLY|Rotation=192.857|XOffset=0mil|YOffset=0mil|HoleType=Round|Shape=Rectangle|*
%AMROTATEDRECTD174*
4,1,4,0.04557,0.03066,0.05435,-0.00785,-0.04557,-0.03066,-0.05435,0.00785,0.04557,0.03066,0.0*
%
%ADD174ROTATEDRECTD174*%

G04:AMPARAMS|DCode=175|XSize=94.61mil|YSize=55.24mil|CornerRadius=0mil|HoleSize=0mil|Usage=FLASHONLY|Rotation=192.857|XOffset=0mil|YOffset=0mil|HoleType=Round|Shape=Rectangle|*
%AMROTATEDRECTD175*
4,1,4,0.03998,0.03746,0.05227,-0.01640,-0.03998,-0.03746,-0.05227,0.01640,0.03998,0.03746,0.0*
%
%ADD175ROTATEDRECTD175*%

G04:AMPARAMS|DCode=176|XSize=67.06mil|YSize=59.18mil|CornerRadius=0mil|HoleSize=0mil|Usage=FLASHONLY|Rotation=192.857|XOffset=0mil|YOffset=0mil|HoleType=Round|Shape=Rectangle|*
%AMROTATEDRECTD176*
4,1,4,0.02610,0.03631,0.03927,-0.02139,-0.02610,-0.03631,-0.03927,0.02139,0.02610,0.03631,0.0*
%
%ADD176ROTATEDRECTD176*%

G04:AMPARAMS|DCode=177|XSize=59.18mil|YSize=43.43mil|CornerRadius=0mil|HoleSize=0mil|Usage=FLASHONLY|Rotation=167.143|XOffset=0mil|YOffset=0mil|HoleType=Round|Shape=Rectangle|*
%AMROTATEDRECTD177*
4,1,4,0.03368,0.01459,0.02402,-0.02776,-0.03368,-0.01459,-0.02402,0.02776,0.03368,0.01459,0.0*
%
%ADD177ROTATEDRECTD177*%

G04:AMPARAMS|DCode=178|XSize=102.49mil|YSize=39.5mil|CornerRadius=0mil|HoleSize=0mil|Usage=FLASHONLY|Rotation=167.143|XOffset=0mil|YOffset=0mil|HoleType=Round|Shape=Rectangle|*
%AMROTATEDRECTD178*
4,1,4,0.05435,0.00785,0.04557,-0.03066,-0.05435,-0.00785,-0.04557,0.03066,0.05435,0.00785,0.0*
%
%ADD178ROTATEDRECTD178*%

G04:AMPARAMS|DCode=179|XSize=94.61mil|YSize=55.24mil|CornerRadius=0mil|HoleSize=0mil|Usage=FLASHONLY|Rotation=167.143|XOffset=0mil|YOffset=0mil|HoleType=Round|Shape=Rectangle|*
%AMROTATEDRECTD179*
4,1,4,0.05227,0.01640,0.03998,-0.03746,-0.05227,-0.01640,-0.03998,0.03746,0.05227,0.01640,0.0*
%
%ADD179ROTATEDRECTD179*%

G04:AMPARAMS|DCode=180|XSize=67.06mil|YSize=59.18mil|CornerRadius=0mil|HoleSize=0mil|Usage=FLASHONLY|Rotation=167.143|XOffset=0mil|YOffset=0mil|HoleType=Round|Shape=Rectangle|*
%AMROTATEDRECTD180*
4,1,4,0.03927,0.02139,0.02610,-0.03631,-0.03927,-0.02139,-0.02610,0.03631,0.03927,0.02139,0.0*
%
%ADD180ROTATEDRECTD180*%

G04:AMPARAMS|DCode=181|XSize=59.18mil|YSize=43.43mil|CornerRadius=0mil|HoleSize=0mil|Usage=FLASHONLY|Rotation=154.286|XOffset=0mil|YOffset=0mil|HoleType=Round|Shape=Rectangle|*
%AMROTATEDRECTD181*
4,1,4,0.03608,0.00673,0.01724,-0.03241,-0.03608,-0.00673,-0.01724,0.03241,0.03608,0.00673,0.0*
%
%ADD181ROTATEDRECTD181*%

G04:AMPARAMS|DCode=182|XSize=102.49mil|YSize=39.5mil|CornerRadius=0mil|HoleSize=0mil|Usage=FLASHONLY|Rotation=154.286|XOffset=0mil|YOffset=0mil|HoleType=Round|Shape=Rectangle|*
%AMROTATEDRECTD182*
4,1,4,0.05474,-0.00444,0.03760,-0.04003,-0.05474,0.00444,-0.03760,0.04003,0.05474,-0.00444,0.0*
%
%ADD182ROTATEDRECTD182*%

G04:AMPARAMS|DCode=183|XSize=94.61mil|YSize=55.24mil|CornerRadius=0mil|HoleSize=0mil|Usage=FLASHONLY|Rotation=154.286|XOffset=0mil|YOffset=0mil|HoleType=Round|Shape=Rectangle|*
%AMROTATEDRECTD183*
4,1,4,0.05461,0.00436,0.03064,-0.04541,-0.05461,-0.00436,-0.03064,0.04541,0.05461,0.00436,0.0*
%
%ADD183ROTATEDRECTD183*%

G04:AMPARAMS|DCode=184|XSize=67.06mil|YSize=59.18mil|CornerRadius=0mil|HoleSize=0mil|Usage=FLASHONLY|Rotation=154.286|XOffset=0mil|YOffset=0mil|HoleType=Round|Shape=Rectangle|*
%AMROTATEDRECTD184*
4,1,4,0.04305,0.01211,0.01737,-0.04121,-0.04305,-0.01211,-0.01737,0.04121,0.04305,0.01211,0.0*
%
%ADD184ROTATEDRECTD184*%

G04:AMPARAMS|DCode=185|XSize=31.62mil|YSize=35.56mil|CornerRadius=0mil|HoleSize=0mil|Usage=FLASHONLY|Rotation=6.429|XOffset=0mil|YOffset=0mil|HoleType=Round|Shape=Rectangle|*
%AMROTATEDRECTD185*
4,1,4,-0.01372,-0.01944,-0.01770,0.01590,0.01372,0.01944,0.01770,-0.01590,-0.01372,-0.01944,0.0*
%
%ADD185ROTATEDRECTD185*%

G04:AMPARAMS|DCode=186|XSize=59.18mil|YSize=43.43mil|CornerRadius=0mil|HoleSize=0mil|Usage=FLASHONLY|Rotation=64.285|XOffset=0mil|YOffset=0mil|HoleType=Round|Shape=Rectangle|*
%AMROTATEDRECTD186*
4,1,4,0.00673,-0.03608,-0.03241,-0.01724,-0.00673,0.03608,0.03241,0.01724,0.00673,-0.03608,0.0*
%
%ADD186ROTATEDRECTD186*%

G04:AMPARAMS|DCode=187|XSize=102.49mil|YSize=39.5mil|CornerRadius=0mil|HoleSize=0mil|Usage=FLASHONLY|Rotation=64.285|XOffset=0mil|YOffset=0mil|HoleType=Round|Shape=Rectangle|*
%AMROTATEDRECTD187*
4,1,4,-0.00444,-0.05474,-0.04003,-0.03760,0.00444,0.05474,0.04003,0.03760,-0.00444,-0.05474,0.0*
%
%ADD187ROTATEDRECTD187*%

G04:AMPARAMS|DCode=188|XSize=94.61mil|YSize=55.24mil|CornerRadius=0mil|HoleSize=0mil|Usage=FLASHONLY|Rotation=64.285|XOffset=0mil|YOffset=0mil|HoleType=Round|Shape=Rectangle|*
%AMROTATEDRECTD188*
4,1,4,0.00436,-0.05461,-0.04541,-0.03064,-0.00436,0.05461,0.04541,0.03064,0.00436,-0.05461,0.0*
%
%ADD188ROTATEDRECTD188*%

G04:AMPARAMS|DCode=189|XSize=67.06mil|YSize=59.18mil|CornerRadius=0mil|HoleSize=0mil|Usage=FLASHONLY|Rotation=64.285|XOffset=0mil|YOffset=0mil|HoleType=Round|Shape=Rectangle|*
%AMROTATEDRECTD189*
4,1,4,0.01211,-0.04305,-0.04121,-0.01737,-0.01211,0.04305,0.04121,0.01737,0.01211,-0.04305,0.0*
%
%ADD189ROTATEDRECTD189*%

G04:AMPARAMS|DCode=190|XSize=59.18mil|YSize=43.43mil|CornerRadius=0mil|HoleSize=0mil|Usage=FLASHONLY|Rotation=51.428|XOffset=0mil|YOffset=0mil|HoleType=Round|Shape=Rectangle|*
%AMROTATEDRECTD190*
4,1,4,-0.00147,-0.03668,-0.03543,-0.00959,0.00147,0.03668,0.03543,0.00959,-0.00147,-0.03668,0.0*
%
%ADD190ROTATEDRECTD190*%

G04:AMPARAMS|DCode=191|XSize=102.49mil|YSize=39.5mil|CornerRadius=0mil|HoleSize=0mil|Usage=FLASHONLY|Rotation=51.428|XOffset=0mil|YOffset=0mil|HoleType=Round|Shape=Rectangle|*
%AMROTATEDRECTD191*
4,1,4,-0.01651,-0.05238,-0.04739,-0.02775,0.01651,0.05238,0.04739,0.02775,-0.01651,-0.05238,0.0*
%
%ADD191ROTATEDRECTD191*%

G04:AMPARAMS|DCode=192|XSize=94.61mil|YSize=55.24mil|CornerRadius=0mil|HoleSize=0mil|Usage=FLASHONLY|Rotation=51.428|XOffset=0mil|YOffset=0mil|HoleType=Round|Shape=Rectangle|*
%AMROTATEDRECTD192*
4,1,4,-0.00790,-0.05421,-0.05109,-0.01976,0.00790,0.05421,0.05109,0.01976,-0.00790,-0.05421,0.0*
%
%ADD192ROTATEDRECTD192*%

G04:AMPARAMS|DCode=193|XSize=67.06mil|YSize=59.18mil|CornerRadius=0mil|HoleSize=0mil|Usage=FLASHONLY|Rotation=51.428|XOffset=0mil|YOffset=0mil|HoleType=Round|Shape=Rectangle|*
%AMROTATEDRECTD193*
4,1,4,0.00223,-0.04466,-0.04404,-0.00776,-0.00223,0.04466,0.04404,0.00776,0.00223,-0.04466,0.0*
%
%ADD193ROTATEDRECTD193*%

G04:AMPARAMS|DCode=194|XSize=31.62mil|YSize=35.56mil|CornerRadius=0mil|HoleSize=0mil|Usage=FLASHONLY|Rotation=276.429|XOffset=0mil|YOffset=0mil|HoleType=Round|Shape=Rectangle|*
%AMROTATEDRECTD194*
4,1,4,-0.01944,0.01372,0.01590,0.01770,0.01944,-0.01372,-0.01590,-0.01770,-0.01944,0.01372,0.0*
%
%ADD194ROTATEDRECTD194*%

G04:AMPARAMS|DCode=195|XSize=31.62mil|YSize=35.56mil|CornerRadius=0mil|HoleSize=0mil|Usage=FLASHONLY|Rotation=263.571|XOffset=0mil|YOffset=0mil|HoleType=Round|Shape=Rectangle|*
%AMROTATEDRECTD195*
4,1,4,-0.01590,0.01770,0.01944,0.01372,0.01590,-0.01770,-0.01944,-0.01372,-0.01590,0.01770,0.0*
%
%ADD195ROTATEDRECTD195*%

G04:AMPARAMS|DCode=196|XSize=31.62mil|YSize=35.56mil|CornerRadius=0mil|HoleSize=0mil|Usage=FLASHONLY|Rotation=168.750|XOffset=0mil|YOffset=0mil|HoleType=Round|Shape=Rectangle|*
%AMROTATEDRECTD196*
4,1,4,0.01898,0.01435,0.01204,-0.02052,-0.01898,-0.01435,-0.01204,0.02052,0.01898,0.01435,0.0*
%
%ADD196ROTATEDRECTD196*%

G04:AMPARAMS|DCode=197|XSize=59.18mil|YSize=43.43mil|CornerRadius=0mil|HoleSize=0mil|Usage=FLASHONLY|Rotation=67.500|XOffset=0mil|YOffset=0mil|HoleType=Round|Shape=Rectangle|*
%AMROTATEDRECTD197*
4,1,4,0.00874,-0.03565,-0.03139,-0.01903,-0.00874,0.03565,0.03139,0.01903,0.00874,-0.03565,0.0*
%
%ADD197ROTATEDRECTD197*%

G04:AMPARAMS|DCode=198|XSize=102.49mil|YSize=39.5mil|CornerRadius=0mil|HoleSize=0mil|Usage=FLASHONLY|Rotation=67.500|XOffset=0mil|YOffset=0mil|HoleType=Round|Shape=Rectangle|*
%AMROTATEDRECTD198*
4,1,4,-0.00136,-0.05490,-0.03786,-0.03979,0.00136,0.05490,0.03786,0.03979,-0.00136,-0.05490,0.0*
%
%ADD198ROTATEDRECTD198*%

G04:AMPARAMS|DCode=199|XSize=94.61mil|YSize=55.24mil|CornerRadius=0mil|HoleSize=0mil|Usage=FLASHONLY|Rotation=67.500|XOffset=0mil|YOffset=0mil|HoleType=Round|Shape=Rectangle|*
%AMROTATEDRECTD199*
4,1,4,0.00742,-0.05428,-0.04362,-0.03314,-0.00742,0.05428,0.04362,0.03314,0.00742,-0.05428,0.0*
%
%ADD199ROTATEDRECTD199*%

G04:AMPARAMS|DCode=200|XSize=67.06mil|YSize=59.18mil|CornerRadius=0mil|HoleSize=0mil|Usage=FLASHONLY|Rotation=67.500|XOffset=0mil|YOffset=0mil|HoleType=Round|Shape=Rectangle|*
%AMROTATEDRECTD200*
4,1,4,0.01451,-0.04230,-0.04017,-0.01965,-0.01451,0.04230,0.04017,0.01965,0.01451,-0.04230,0.0*
%
%ADD200ROTATEDRECTD200*%

G04:AMPARAMS|DCode=201|XSize=59.18mil|YSize=43.43mil|CornerRadius=0mil|HoleSize=0mil|Usage=FLASHONLY|Rotation=45.000|XOffset=0mil|YOffset=0mil|HoleType=Round|Shape=Rectangle|*
%AMROTATEDRECTD201*
4,1,4,-0.00557,-0.03628,-0.03628,-0.00557,0.00557,0.03628,0.03628,0.00557,-0.00557,-0.03628,0.0*
%
%ADD201ROTATEDRECTD201*%

G04:AMPARAMS|DCode=202|XSize=102.49mil|YSize=39.5mil|CornerRadius=0mil|HoleSize=0mil|Usage=FLASHONLY|Rotation=45.000|XOffset=0mil|YOffset=0mil|HoleType=Round|Shape=Rectangle|*
%AMROTATEDRECTD202*
4,1,4,-0.02227,-0.05020,-0.05020,-0.02227,0.02227,0.05020,0.05020,0.02227,-0.02227,-0.05020,0.0*
%
%ADD202ROTATEDRECTD202*%

G04:AMPARAMS|DCode=203|XSize=94.61mil|YSize=55.24mil|CornerRadius=0mil|HoleSize=0mil|Usage=FLASHONLY|Rotation=45.000|XOffset=0mil|YOffset=0mil|HoleType=Round|Shape=Rectangle|*
%AMROTATEDRECTD203*
4,1,4,-0.01392,-0.05298,-0.05298,-0.01392,0.01392,0.05298,0.05298,0.01392,-0.01392,-0.05298,0.0*
%
%ADD203ROTATEDRECTD203*%

G04:AMPARAMS|DCode=204|XSize=67.06mil|YSize=59.18mil|CornerRadius=0mil|HoleSize=0mil|Usage=FLASHONLY|Rotation=45.000|XOffset=0mil|YOffset=0mil|HoleType=Round|Shape=Rectangle|*
%AMROTATEDRECTD204*
4,1,4,-0.00278,-0.04463,-0.04463,-0.00278,0.00278,0.04463,0.04463,0.00278,-0.00278,-0.04463,0.0*
%
%ADD204ROTATEDRECTD204*%

G04:AMPARAMS|DCode=205|XSize=59.18mil|YSize=43.43mil|CornerRadius=0mil|HoleSize=0mil|Usage=FLASHONLY|Rotation=22.500|XOffset=0mil|YOffset=0mil|HoleType=Round|Shape=Rectangle|*
%AMROTATEDRECTD205*
4,1,4,-0.01903,-0.03139,-0.03565,0.00874,0.01903,0.03139,0.03565,-0.00874,-0.01903,-0.03139,0.0*
%
%ADD205ROTATEDRECTD205*%

G04:AMPARAMS|DCode=206|XSize=102.49mil|YSize=39.5mil|CornerRadius=0mil|HoleSize=0mil|Usage=FLASHONLY|Rotation=22.500|XOffset=0mil|YOffset=0mil|HoleType=Round|Shape=Rectangle|*
%AMROTATEDRECTD206*
4,1,4,-0.03979,-0.03786,-0.05490,-0.00136,0.03979,0.03786,0.05490,0.00136,-0.03979,-0.03786,0.0*
%
%ADD206ROTATEDRECTD206*%

G04:AMPARAMS|DCode=207|XSize=94.61mil|YSize=55.24mil|CornerRadius=0mil|HoleSize=0mil|Usage=FLASHONLY|Rotation=22.500|XOffset=0mil|YOffset=0mil|HoleType=Round|Shape=Rectangle|*
%AMROTATEDRECTD207*
4,1,4,-0.03314,-0.04362,-0.05428,0.00742,0.03314,0.04362,0.05428,-0.00742,-0.03314,-0.04362,0.0*
%
%ADD207ROTATEDRECTD207*%

G04:AMPARAMS|DCode=208|XSize=67.06mil|YSize=59.18mil|CornerRadius=0mil|HoleSize=0mil|Usage=FLASHONLY|Rotation=22.500|XOffset=0mil|YOffset=0mil|HoleType=Round|Shape=Rectangle|*
%AMROTATEDRECTD208*
4,1,4,-0.01965,-0.04017,-0.04230,0.01451,0.01965,0.04017,0.04230,-0.01451,-0.01965,-0.04017,0.0*
%
%ADD208ROTATEDRECTD208*%

G04:AMPARAMS|DCode=209|XSize=31.62mil|YSize=35.56mil|CornerRadius=0mil|HoleSize=0mil|Usage=FLASHONLY|Rotation=146.250|XOffset=0mil|YOffset=0mil|HoleType=Round|Shape=Rectangle|*
%AMROTATEDRECTD209*
4,1,4,0.02302,0.00600,0.00327,-0.02357,-0.02302,-0.00600,-0.00327,0.02357,0.02302,0.00600,0.0*
%
%ADD209ROTATEDRECTD209*%

G04:AMPARAMS|DCode=210|XSize=31.62mil|YSize=35.56mil|CornerRadius=0mil|HoleSize=0mil|Usage=FLASHONLY|Rotation=123.750|XOffset=0mil|YOffset=0mil|HoleType=Round|Shape=Rectangle|*
%AMROTATEDRECTD210*
4,1,4,0.02357,-0.00327,-0.00600,-0.02302,-0.02357,0.00327,0.00600,0.02302,0.02357,-0.00327,0.0*
%
%ADD210ROTATEDRECTD210*%

G04:AMPARAMS|DCode=211|XSize=31.62mil|YSize=35.56mil|CornerRadius=0mil|HoleSize=0mil|Usage=FLASHONLY|Rotation=101.250|XOffset=0mil|YOffset=0mil|HoleType=Round|Shape=Rectangle|*
%AMROTATEDRECTD211*
4,1,4,0.02052,-0.01204,-0.01435,-0.01898,-0.02052,0.01204,0.01435,0.01898,0.02052,-0.01204,0.0*
%
%ADD211ROTATEDRECTD211*%

G04:AMPARAMS|DCode=212|XSize=59.18mil|YSize=43.43mil|CornerRadius=0mil|HoleSize=0mil|Usage=FLASHONLY|Rotation=218.571|XOffset=0mil|YOffset=0mil|HoleType=Round|Shape=Rectangle|*
%AMROTATEDRECTD212*
4,1,4,0.00960,0.03543,0.03668,0.00147,-0.00960,-0.03543,-0.03668,-0.00147,0.00960,0.03543,0.0*
%
%ADD212ROTATEDRECTD212*%

G04:AMPARAMS|DCode=213|XSize=102.49mil|YSize=39.5mil|CornerRadius=0mil|HoleSize=0mil|Usage=FLASHONLY|Rotation=218.571|XOffset=0mil|YOffset=0mil|HoleType=Round|Shape=Rectangle|*
%AMROTATEDRECTD213*
4,1,4,0.02775,0.04739,0.05238,0.01651,-0.02775,-0.04739,-0.05238,-0.01651,0.02775,0.04739,0.0*
%
%ADD213ROTATEDRECTD213*%

G04:AMPARAMS|DCode=214|XSize=94.61mil|YSize=55.24mil|CornerRadius=0mil|HoleSize=0mil|Usage=FLASHONLY|Rotation=218.571|XOffset=0mil|YOffset=0mil|HoleType=Round|Shape=Rectangle|*
%AMROTATEDRECTD214*
4,1,4,0.01977,0.05109,0.05421,0.00790,-0.01977,-0.05109,-0.05421,-0.00790,0.01977,0.05109,0.0*
%
%ADD214ROTATEDRECTD214*%

G04:AMPARAMS|DCode=215|XSize=67.06mil|YSize=59.18mil|CornerRadius=0mil|HoleSize=0mil|Usage=FLASHONLY|Rotation=218.571|XOffset=0mil|YOffset=0mil|HoleType=Round|Shape=Rectangle|*
%AMROTATEDRECTD215*
4,1,4,0.00776,0.04404,0.04466,-0.00223,-0.00776,-0.04404,-0.04466,0.00223,0.00776,0.04404,0.0*
%
%ADD215ROTATEDRECTD215*%

G04:AMPARAMS|DCode=216|XSize=59.18mil|YSize=43.43mil|CornerRadius=0mil|HoleSize=0mil|Usage=FLASHONLY|Rotation=205.714|XOffset=0mil|YOffset=0mil|HoleType=Round|Shape=Rectangle|*
%AMROTATEDRECTD216*
4,1,4,0.01724,0.03241,0.03608,-0.00673,-0.01724,-0.03241,-0.03608,0.00673,0.01724,0.03241,0.0*
%
%ADD216ROTATEDRECTD216*%

G04:AMPARAMS|DCode=217|XSize=102.49mil|YSize=39.5mil|CornerRadius=0mil|HoleSize=0mil|Usage=FLASHONLY|Rotation=205.714|XOffset=0mil|YOffset=0mil|HoleType=Round|Shape=Rectangle|*
%AMROTATEDRECTD217*
4,1,4,0.03760,0.04003,0.05474,0.00444,-0.03760,-0.04003,-0.05474,-0.00444,0.03760,0.04003,0.0*
%
%ADD217ROTATEDRECTD217*%

G04:AMPARAMS|DCode=218|XSize=94.61mil|YSize=55.24mil|CornerRadius=0mil|HoleSize=0mil|Usage=FLASHONLY|Rotation=205.714|XOffset=0mil|YOffset=0mil|HoleType=Round|Shape=Rectangle|*
%AMROTATEDRECTD218*
4,1,4,0.03064,0.04541,0.05461,-0.00436,-0.03064,-0.04541,-0.05461,0.00436,0.03064,0.04541,0.0*
%
%ADD218ROTATEDRECTD218*%

G04:AMPARAMS|DCode=219|XSize=67.06mil|YSize=59.18mil|CornerRadius=0mil|HoleSize=0mil|Usage=FLASHONLY|Rotation=205.714|XOffset=0mil|YOffset=0mil|HoleType=Round|Shape=Rectangle|*
%AMROTATEDRECTD219*
4,1,4,0.01737,0.04121,0.04305,-0.01211,-0.01737,-0.04121,-0.04305,0.01211,0.01737,0.04121,0.0*
%
%ADD219ROTATEDRECTD219*%

G04:AMPARAMS|DCode=220|XSize=31.62mil|YSize=35.56mil|CornerRadius=0mil|HoleSize=0mil|Usage=FLASHONLY|Rotation=78.750|XOffset=0mil|YOffset=0mil|HoleType=Round|Shape=Rectangle|*
%AMROTATEDRECTD220*
4,1,4,0.01435,-0.01898,-0.02052,-0.01204,-0.01435,0.01898,0.02052,0.01204,0.01435,-0.01898,0.0*
%
%ADD220ROTATEDRECTD220*%

G04:AMPARAMS|DCode=221|XSize=31.62mil|YSize=35.56mil|CornerRadius=0mil|HoleSize=0mil|Usage=FLASHONLY|Rotation=56.250|XOffset=0mil|YOffset=0mil|HoleType=Round|Shape=Rectangle|*
%AMROTATEDRECTD221*
4,1,4,0.00600,-0.02302,-0.02357,-0.00327,-0.00600,0.02302,0.02357,0.00327,0.00600,-0.02302,0.0*
%
%ADD221ROTATEDRECTD221*%

G04:AMPARAMS|DCode=222|XSize=31.62mil|YSize=35.56mil|CornerRadius=0mil|HoleSize=0mil|Usage=FLASHONLY|Rotation=33.750|XOffset=0mil|YOffset=0mil|HoleType=Round|Shape=Rectangle|*
%AMROTATEDRECTD222*
4,1,4,-0.00327,-0.02357,-0.02302,0.00600,0.00327,0.02357,0.02302,-0.00600,-0.00327,-0.02357,0.0*
%
%ADD222ROTATEDRECTD222*%

G04:AMPARAMS|DCode=223|XSize=31.62mil|YSize=35.56mil|CornerRadius=0mil|HoleSize=0mil|Usage=FLASHONLY|Rotation=11.250|XOffset=0mil|YOffset=0mil|HoleType=Round|Shape=Rectangle|*
%AMROTATEDRECTD223*
4,1,4,-0.01204,-0.02052,-0.01898,0.01435,0.01204,0.02052,0.01898,-0.01435,-0.01204,-0.02052,0.0*
%
%ADD223ROTATEDRECTD223*%

G04:AMPARAMS|DCode=224|XSize=59.18mil|YSize=43.43mil|CornerRadius=0mil|HoleSize=0mil|Usage=FLASHONLY|Rotation=337.500|XOffset=0mil|YOffset=0mil|HoleType=Round|Shape=Rectangle|*
%AMROTATEDRECTD224*
4,1,4,-0.03565,-0.00874,-0.01903,0.03139,0.03565,0.00874,0.01903,-0.03139,-0.03565,-0.00874,0.0*
%
%ADD224ROTATEDRECTD224*%

G04:AMPARAMS|DCode=225|XSize=102.49mil|YSize=39.5mil|CornerRadius=0mil|HoleSize=0mil|Usage=FLASHONLY|Rotation=337.500|XOffset=0mil|YOffset=0mil|HoleType=Round|Shape=Rectangle|*
%AMROTATEDRECTD225*
4,1,4,-0.05490,0.00136,-0.03979,0.03786,0.05490,-0.00136,0.03979,-0.03786,-0.05490,0.00136,0.0*
%
%ADD225ROTATEDRECTD225*%

G04:AMPARAMS|DCode=226|XSize=94.61mil|YSize=55.24mil|CornerRadius=0mil|HoleSize=0mil|Usage=FLASHONLY|Rotation=337.500|XOffset=0mil|YOffset=0mil|HoleType=Round|Shape=Rectangle|*
%AMROTATEDRECTD226*
4,1,4,-0.05428,-0.00742,-0.03314,0.04362,0.05428,0.00742,0.03314,-0.04362,-0.05428,-0.00742,0.0*
%
%ADD226ROTATEDRECTD226*%

G04:AMPARAMS|DCode=227|XSize=67.06mil|YSize=59.18mil|CornerRadius=0mil|HoleSize=0mil|Usage=FLASHONLY|Rotation=337.500|XOffset=0mil|YOffset=0mil|HoleType=Round|Shape=Rectangle|*
%AMROTATEDRECTD227*
4,1,4,-0.04230,-0.01451,-0.01965,0.04017,0.04230,0.01451,0.01965,-0.04017,-0.04230,-0.01451,0.0*
%
%ADD227ROTATEDRECTD227*%

G04:AMPARAMS|DCode=228|XSize=59.18mil|YSize=43.43mil|CornerRadius=0mil|HoleSize=0mil|Usage=FLASHONLY|Rotation=315.000|XOffset=0mil|YOffset=0mil|HoleType=Round|Shape=Rectangle|*
%AMROTATEDRECTD228*
4,1,4,-0.03628,0.00557,-0.00557,0.03628,0.03628,-0.00557,0.00557,-0.03628,-0.03628,0.00557,0.0*
%
%ADD228ROTATEDRECTD228*%

G04:AMPARAMS|DCode=229|XSize=102.49mil|YSize=39.5mil|CornerRadius=0mil|HoleSize=0mil|Usage=FLASHONLY|Rotation=315.000|XOffset=0mil|YOffset=0mil|HoleType=Round|Shape=Rectangle|*
%AMROTATEDRECTD229*
4,1,4,-0.05020,0.02227,-0.02227,0.05020,0.05020,-0.02227,0.02227,-0.05020,-0.05020,0.02227,0.0*
%
%ADD229ROTATEDRECTD229*%

G04:AMPARAMS|DCode=230|XSize=94.61mil|YSize=55.24mil|CornerRadius=0mil|HoleSize=0mil|Usage=FLASHONLY|Rotation=315.000|XOffset=0mil|YOffset=0mil|HoleType=Round|Shape=Rectangle|*
%AMROTATEDRECTD230*
4,1,4,-0.05298,0.01392,-0.01392,0.05298,0.05298,-0.01392,0.01392,-0.05298,-0.05298,0.01392,0.0*
%
%ADD230ROTATEDRECTD230*%

G04:AMPARAMS|DCode=231|XSize=67.06mil|YSize=59.18mil|CornerRadius=0mil|HoleSize=0mil|Usage=FLASHONLY|Rotation=315.000|XOffset=0mil|YOffset=0mil|HoleType=Round|Shape=Rectangle|*
%AMROTATEDRECTD231*
4,1,4,-0.04463,0.00278,-0.00278,0.04463,0.04463,-0.00278,0.00278,-0.04463,-0.04463,0.00278,0.0*
%
%ADD231ROTATEDRECTD231*%

G04:AMPARAMS|DCode=232|XSize=59.18mil|YSize=43.43mil|CornerRadius=0mil|HoleSize=0mil|Usage=FLASHONLY|Rotation=292.500|XOffset=0mil|YOffset=0mil|HoleType=Round|Shape=Rectangle|*
%AMROTATEDRECTD232*
4,1,4,-0.03139,0.01903,0.00874,0.03565,0.03139,-0.01903,-0.00874,-0.03565,-0.03139,0.01903,0.0*
%
%ADD232ROTATEDRECTD232*%

G04:AMPARAMS|DCode=233|XSize=102.49mil|YSize=39.5mil|CornerRadius=0mil|HoleSize=0mil|Usage=FLASHONLY|Rotation=292.500|XOffset=0mil|YOffset=0mil|HoleType=Round|Shape=Rectangle|*
%AMROTATEDRECTD233*
4,1,4,-0.03786,0.03979,-0.00136,0.05490,0.03786,-0.03979,0.00136,-0.05490,-0.03786,0.03979,0.0*
%
%ADD233ROTATEDRECTD233*%

G04:AMPARAMS|DCode=234|XSize=94.61mil|YSize=55.24mil|CornerRadius=0mil|HoleSize=0mil|Usage=FLASHONLY|Rotation=292.500|XOffset=0mil|YOffset=0mil|HoleType=Round|Shape=Rectangle|*
%AMROTATEDRECTD234*
4,1,4,-0.04362,0.03314,0.00742,0.05428,0.04362,-0.03314,-0.00742,-0.05428,-0.04362,0.03314,0.0*
%
%ADD234ROTATEDRECTD234*%

G04:AMPARAMS|DCode=235|XSize=67.06mil|YSize=59.18mil|CornerRadius=0mil|HoleSize=0mil|Usage=FLASHONLY|Rotation=292.500|XOffset=0mil|YOffset=0mil|HoleType=Round|Shape=Rectangle|*
%AMROTATEDRECTD235*
4,1,4,-0.04017,0.01965,0.01451,0.04230,0.04017,-0.01965,-0.01451,-0.04230,-0.04017,0.01965,0.0*
%
%ADD235ROTATEDRECTD235*%

%ADD236R,0.03162X0.03556*%
%ADD237R,0.03556X0.03162*%
G04:AMPARAMS|DCode=238|XSize=59.18mil|YSize=43.43mil|CornerRadius=0mil|HoleSize=0mil|Usage=FLASHONLY|Rotation=330.000|XOffset=0mil|YOffset=0mil|HoleType=Round|Shape=Rectangle|*
%AMROTATEDRECTD238*
4,1,4,-0.03648,-0.00401,-0.01477,0.03360,0.03648,0.00401,0.01477,-0.03360,-0.03648,-0.00401,0.0*
%
%ADD238ROTATEDRECTD238*%

G04:AMPARAMS|DCode=239|XSize=102.49mil|YSize=39.5mil|CornerRadius=0mil|HoleSize=0mil|Usage=FLASHONLY|Rotation=330.000|XOffset=0mil|YOffset=0mil|HoleType=Round|Shape=Rectangle|*
%AMROTATEDRECTD239*
4,1,4,-0.05425,0.00852,-0.03451,0.04272,0.05425,-0.00852,0.03451,-0.04272,-0.05425,0.00852,0.0*
%
%ADD239ROTATEDRECTD239*%

G04:AMPARAMS|DCode=240|XSize=94.61mil|YSize=55.24mil|CornerRadius=0mil|HoleSize=0mil|Usage=FLASHONLY|Rotation=330.000|XOffset=0mil|YOffset=0mil|HoleType=Round|Shape=Rectangle|*
%AMROTATEDRECTD240*
4,1,4,-0.05478,-0.00027,-0.02716,0.04758,0.05478,0.00027,0.02716,-0.04758,-0.05478,-0.00027,0.0*
%
%ADD240ROTATEDRECTD240*%

G04:AMPARAMS|DCode=241|XSize=67.06mil|YSize=59.18mil|CornerRadius=0mil|HoleSize=0mil|Usage=FLASHONLY|Rotation=330.000|XOffset=0mil|YOffset=0mil|HoleType=Round|Shape=Rectangle|*
%AMROTATEDRECTD241*
4,1,4,-0.04383,-0.00886,-0.01424,0.04239,0.04383,0.00886,0.01424,-0.04239,-0.04383,-0.00886,0.0*
%
%ADD241ROTATEDRECTD241*%

G04:AMPARAMS|DCode=242|XSize=59.18mil|YSize=43.43mil|CornerRadius=0mil|HoleSize=0mil|Usage=FLASHONLY|Rotation=300.000|XOffset=0mil|YOffset=0mil|HoleType=Round|Shape=Rectangle|*
%AMROTATEDRECTD242*
4,1,4,-0.03360,0.01477,0.00401,0.03648,0.03360,-0.01477,-0.00401,-0.03648,-0.03360,0.01477,0.0*
%
%ADD242ROTATEDRECTD242*%

G04:AMPARAMS|DCode=243|XSize=102.49mil|YSize=39.5mil|CornerRadius=0mil|HoleSize=0mil|Usage=FLASHONLY|Rotation=300.000|XOffset=0mil|YOffset=0mil|HoleType=Round|Shape=Rectangle|*
%AMROTATEDRECTD243*
4,1,4,-0.04272,0.03451,-0.00852,0.05425,0.04272,-0.03451,0.00852,-0.05425,-0.04272,0.03451,0.0*
%
%ADD243ROTATEDRECTD243*%

G04:AMPARAMS|DCode=244|XSize=94.61mil|YSize=55.24mil|CornerRadius=0mil|HoleSize=0mil|Usage=FLASHONLY|Rotation=300.000|XOffset=0mil|YOffset=0mil|HoleType=Round|Shape=Rectangle|*
%AMROTATEDRECTD244*
4,1,4,-0.04758,0.02716,0.00027,0.05478,0.04758,-0.02716,-0.00027,-0.05478,-0.04758,0.02716,0.0*
%
%ADD244ROTATEDRECTD244*%

G04:AMPARAMS|DCode=245|XSize=67.06mil|YSize=59.18mil|CornerRadius=0mil|HoleSize=0mil|Usage=FLASHONLY|Rotation=300.000|XOffset=0mil|YOffset=0mil|HoleType=Round|Shape=Rectangle|*
%AMROTATEDRECTD245*
4,1,4,-0.04239,0.01424,0.00886,0.04383,0.04239,-0.01424,-0.00886,-0.04383,-0.04239,0.01424,0.0*
%
%ADD245ROTATEDRECTD245*%

G04:AMPARAMS|DCode=246|XSize=59.18mil|YSize=43.43mil|CornerRadius=0mil|HoleSize=0mil|Usage=FLASHONLY|Rotation=240.000|XOffset=0mil|YOffset=0mil|HoleType=Round|Shape=Rectangle|*
%AMROTATEDRECTD246*
4,1,4,-0.00401,0.03648,0.03360,0.01477,0.00401,-0.03648,-0.03360,-0.01477,-0.00401,0.03648,0.0*
%
%ADD246ROTATEDRECTD246*%

G04:AMPARAMS|DCode=247|XSize=102.49mil|YSize=39.5mil|CornerRadius=0mil|HoleSize=0mil|Usage=FLASHONLY|Rotation=240.000|XOffset=0mil|YOffset=0mil|HoleType=Round|Shape=Rectangle|*
%AMROTATEDRECTD247*
4,1,4,0.00852,0.05425,0.04272,0.03451,-0.00852,-0.05425,-0.04272,-0.03451,0.00852,0.05425,0.0*
%
%ADD247ROTATEDRECTD247*%

G04:AMPARAMS|DCode=248|XSize=94.61mil|YSize=55.24mil|CornerRadius=0mil|HoleSize=0mil|Usage=FLASHONLY|Rotation=240.000|XOffset=0mil|YOffset=0mil|HoleType=Round|Shape=Rectangle|*
%AMROTATEDRECTD248*
4,1,4,-0.00027,0.05478,0.04758,0.02716,0.00027,-0.05478,-0.04758,-0.02716,-0.00027,0.05478,0.0*
%
%ADD248ROTATEDRECTD248*%

G04:AMPARAMS|DCode=249|XSize=67.06mil|YSize=59.18mil|CornerRadius=0mil|HoleSize=0mil|Usage=FLASHONLY|Rotation=240.000|XOffset=0mil|YOffset=0mil|HoleType=Round|Shape=Rectangle|*
%AMROTATEDRECTD249*
4,1,4,-0.00886,0.04383,0.04239,0.01424,0.00886,-0.04383,-0.04239,-0.01424,-0.00886,0.04383,0.0*
%
%ADD249ROTATEDRECTD249*%

G04:AMPARAMS|DCode=250|XSize=59.18mil|YSize=43.43mil|CornerRadius=0mil|HoleSize=0mil|Usage=FLASHONLY|Rotation=210.000|XOffset=0mil|YOffset=0mil|HoleType=Round|Shape=Rectangle|*
%AMROTATEDRECTD250*
4,1,4,0.01477,0.03360,0.03648,-0.00401,-0.01477,-0.03360,-0.03648,0.00401,0.01477,0.03360,0.0*
%
%ADD250ROTATEDRECTD250*%

G04:AMPARAMS|DCode=251|XSize=102.49mil|YSize=39.5mil|CornerRadius=0mil|HoleSize=0mil|Usage=FLASHONLY|Rotation=210.000|XOffset=0mil|YOffset=0mil|HoleType=Round|Shape=Rectangle|*
%AMROTATEDRECTD251*
4,1,4,0.03451,0.04272,0.05425,0.00852,-0.03451,-0.04272,-0.05425,-0.00852,0.03451,0.04272,0.0*
%
%ADD251ROTATEDRECTD251*%

G04:AMPARAMS|DCode=252|XSize=94.61mil|YSize=55.24mil|CornerRadius=0mil|HoleSize=0mil|Usage=FLASHONLY|Rotation=210.000|XOffset=0mil|YOffset=0mil|HoleType=Round|Shape=Rectangle|*
%AMROTATEDRECTD252*
4,1,4,0.02716,0.04758,0.05478,-0.00027,-0.02716,-0.04758,-0.05478,0.00027,0.02716,0.04758,0.0*
%
%ADD252ROTATEDRECTD252*%

G04:AMPARAMS|DCode=253|XSize=67.06mil|YSize=59.18mil|CornerRadius=0mil|HoleSize=0mil|Usage=FLASHONLY|Rotation=210.000|XOffset=0mil|YOffset=0mil|HoleType=Round|Shape=Rectangle|*
%AMROTATEDRECTD253*
4,1,4,0.01424,0.04239,0.04383,-0.00886,-0.01424,-0.04239,-0.04383,0.00886,0.01424,0.04239,0.0*
%
%ADD253ROTATEDRECTD253*%

G04:AMPARAMS|DCode=254|XSize=31.62mil|YSize=35.56mil|CornerRadius=0mil|HoleSize=0mil|Usage=FLASHONLY|Rotation=15.000|XOffset=0mil|YOffset=0mil|HoleType=Round|Shape=Rectangle|*
%AMROTATEDRECTD254*
4,1,4,-0.01067,-0.02127,-0.01987,0.01308,0.01067,0.02127,0.01987,-0.01308,-0.01067,-0.02127,0.0*
%
%ADD254ROTATEDRECTD254*%

G04:AMPARAMS|DCode=255|XSize=31.62mil|YSize=35.56mil|CornerRadius=0mil|HoleSize=0mil|Usage=FLASHONLY|Rotation=345.000|XOffset=0mil|YOffset=0mil|HoleType=Round|Shape=Rectangle|*
%AMROTATEDRECTD255*
4,1,4,-0.01987,-0.01308,-0.01067,0.02127,0.01987,0.01308,0.01067,-0.02127,-0.01987,-0.01308,0.0*
%
%ADD255ROTATEDRECTD255*%

G04:AMPARAMS|DCode=256|XSize=31.62mil|YSize=35.56mil|CornerRadius=0mil|HoleSize=0mil|Usage=FLASHONLY|Rotation=285.000|XOffset=0mil|YOffset=0mil|HoleType=Round|Shape=Rectangle|*
%AMROTATEDRECTD256*
4,1,4,-0.02127,0.01067,0.01308,0.01987,0.02127,-0.01067,-0.01308,-0.01987,-0.02127,0.01067,0.0*
%
%ADD256ROTATEDRECTD256*%

G04:AMPARAMS|DCode=257|XSize=31.62mil|YSize=35.56mil|CornerRadius=0mil|HoleSize=0mil|Usage=FLASHONLY|Rotation=255.000|XOffset=0mil|YOffset=0mil|HoleType=Round|Shape=Rectangle|*
%AMROTATEDRECTD257*
4,1,4,-0.01308,0.01987,0.02127,0.01067,0.01308,-0.01987,-0.02127,-0.01067,-0.01308,0.01987,0.0*
%
%ADD257ROTATEDRECTD257*%

%ADD258C,0.06706*%
%ADD259C,0.03162*%
D134*
X5709Y119488D02*
D03*
X-5709Y-119488D02*
D03*
X5709Y85039D02*
D03*
X-5709Y-50197D02*
D03*
X5709Y50197D02*
D03*
X-5709Y-85039D02*
D03*
D135*
X-3937Y119291D02*
D03*
X3937Y-119291D02*
D03*
X-3937Y84842D02*
D03*
X3937Y-50000D02*
D03*
X-3937Y50000D02*
D03*
X3937Y-84842D02*
D03*
D136*
Y125591D02*
D03*
X-3937Y-125591D02*
D03*
X3937Y91142D02*
D03*
X-3937Y-56299D02*
D03*
X3937Y56299D02*
D03*
X-3937Y-91142D02*
D03*
D137*
X-5709Y125394D02*
D03*
X5709Y-125394D02*
D03*
X-5709Y90945D02*
D03*
X5709Y-56102D02*
D03*
X-5709Y56102D02*
D03*
X5709Y-90945D02*
D03*
D138*
X-119697Y13480D02*
D03*
X-123610Y13921D02*
D03*
X119697Y-13480D02*
D03*
X123610Y-13921D02*
D03*
D139*
X-113693Y39783D02*
D03*
X-117409Y41083D02*
D03*
X113693Y-39783D02*
D03*
X117409Y-41083D02*
D03*
D140*
X-101995Y64110D02*
D03*
X-105328Y66205D02*
D03*
X101995Y-64110D02*
D03*
X105328Y-66205D02*
D03*
D141*
X-85183Y85183D02*
D03*
X-87967Y87967D02*
D03*
X85183Y-85183D02*
D03*
X87967Y-87967D02*
D03*
X36206Y-36206D02*
D03*
X38990Y-38990D02*
D03*
X-36206Y36206D02*
D03*
X-38990Y38990D02*
D03*
D142*
X-64110Y101995D02*
D03*
X-66205Y105328D02*
D03*
X64110Y-101995D02*
D03*
X66205Y-105328D02*
D03*
D143*
X-39783Y113693D02*
D03*
X-41083Y117409D02*
D03*
X39783Y-113693D02*
D03*
X41083Y-117409D02*
D03*
D144*
X64110Y101995D02*
D03*
X66205Y105328D02*
D03*
X-64110Y-101995D02*
D03*
X-66205Y-105328D02*
D03*
D145*
X85183Y85183D02*
D03*
X87967Y87967D02*
D03*
X-85183Y-85183D02*
D03*
X-87967Y-87967D02*
D03*
X36206Y36206D02*
D03*
X38990Y38990D02*
D03*
X-36206Y-36206D02*
D03*
X-38990Y-38990D02*
D03*
D146*
X101995Y64110D02*
D03*
X105328Y66205D02*
D03*
X-101995Y-64110D02*
D03*
X-105328Y-66205D02*
D03*
D147*
X113693Y39783D02*
D03*
X117409Y41083D02*
D03*
X-113693Y-39783D02*
D03*
X-117409Y-41083D02*
D03*
D148*
X78961Y89841D02*
D03*
X-78961Y-89841D02*
D03*
D149*
X71297Y95701D02*
D03*
X-71297Y-95701D02*
D03*
D150*
X81380Y95717D02*
D03*
X-81380Y-95717D02*
D03*
D151*
X73716Y101576D02*
D03*
X-73716Y-101576D02*
D03*
D152*
X96959Y70034D02*
D03*
X-96959Y-70034D02*
D03*
D153*
X90791Y77453D02*
D03*
X-90791Y-77453D02*
D03*
D154*
X100626Y75224D02*
D03*
X-100626Y-75224D02*
D03*
D155*
X94458Y82643D02*
D03*
X-94458Y-82643D02*
D03*
D156*
X110132Y46686D02*
D03*
X-110132Y-46686D02*
D03*
D157*
X105769Y55291D02*
D03*
X-105769Y-55291D02*
D03*
D158*
X114861Y50930D02*
D03*
X-114861Y-50930D02*
D03*
D159*
X110498Y59535D02*
D03*
X-110498Y-59535D02*
D03*
D160*
X117762Y21022D02*
D03*
X-117762Y-21022D02*
D03*
D161*
X115423Y30382D02*
D03*
X-115423Y-30382D02*
D03*
D162*
X123317Y24107D02*
D03*
X-123317Y-24107D02*
D03*
D163*
X120978Y33467D02*
D03*
X-120978Y-33467D02*
D03*
D164*
X119488Y-5709D02*
D03*
X-119488Y5709D02*
D03*
X-85039D02*
D03*
X85039Y-5709D02*
D03*
X50197D02*
D03*
X-50197Y5709D02*
D03*
D165*
X119291Y3937D02*
D03*
X-119291Y-3937D02*
D03*
X-84842D02*
D03*
X84842Y3937D02*
D03*
X50000D02*
D03*
X-50000Y-3937D02*
D03*
D166*
X125591D02*
D03*
X-125591Y3937D02*
D03*
X-91142D02*
D03*
X91142Y-3937D02*
D03*
X56299D02*
D03*
X-56299Y3937D02*
D03*
D167*
X125394Y5709D02*
D03*
X-125394Y-5709D02*
D03*
X-90945D02*
D03*
X90945Y5709D02*
D03*
X56102D02*
D03*
X-56102Y-5709D02*
D03*
D168*
X115221Y-32153D02*
D03*
X-115221Y32153D02*
D03*
D169*
X117175Y-22705D02*
D03*
X-117175Y22705D02*
D03*
D170*
X121565Y-31783D02*
D03*
X-121565Y31783D02*
D03*
D171*
X123519Y-22336D02*
D03*
X-123519Y22336D02*
D03*
D172*
X39783Y113693D02*
D03*
X41083Y117409D02*
D03*
X-39783Y-113693D02*
D03*
X-41083Y-117409D02*
D03*
D173*
X21022Y-117762D02*
D03*
X-21022Y117762D02*
D03*
D174*
X30382Y-115423D02*
D03*
X-30382Y115423D02*
D03*
D175*
X24107Y-123317D02*
D03*
X-24107Y123317D02*
D03*
D176*
X33467Y-120978D02*
D03*
X-33467Y120978D02*
D03*
D177*
X-32153Y-115221D02*
D03*
X32153Y115221D02*
D03*
D178*
X-22705Y-117175D02*
D03*
X22705Y117175D02*
D03*
D179*
X-31783Y-121565D02*
D03*
X31783Y121565D02*
D03*
D180*
X-22336Y-123519D02*
D03*
X22336Y123519D02*
D03*
D181*
X-56972Y-105178D02*
D03*
X56972Y105178D02*
D03*
D182*
X-48197Y-109185D02*
D03*
X48197Y109185D02*
D03*
D183*
X-58024Y-111444D02*
D03*
X58024Y111444D02*
D03*
D184*
X-49248Y-115452D02*
D03*
X49248Y115452D02*
D03*
D185*
X119697Y13480D02*
D03*
X123610Y13921D02*
D03*
X-119697Y-13480D02*
D03*
X-123610Y-13921D02*
D03*
D186*
X-105178Y56972D02*
D03*
X105178Y-56972D02*
D03*
D187*
X-109186Y48197D02*
D03*
X109185Y-48197D02*
D03*
D188*
X-111444Y58024D02*
D03*
X111444Y-58024D02*
D03*
D189*
X-115452Y49248D02*
D03*
X115452Y-49248D02*
D03*
D190*
X-89841Y78961D02*
D03*
X89841Y-78961D02*
D03*
D191*
X-95701Y71297D02*
D03*
X95701Y-71297D02*
D03*
D192*
X-95716Y81380D02*
D03*
X95717Y-81380D02*
D03*
D193*
X-101576Y73716D02*
D03*
X101576Y-73716D02*
D03*
D194*
X13480Y-119697D02*
D03*
X13921Y-123610D02*
D03*
X-13480Y119697D02*
D03*
X-13921Y123610D02*
D03*
D195*
X-13480Y-119697D02*
D03*
X-13921Y-123610D02*
D03*
X13480Y119697D02*
D03*
X13921Y123610D02*
D03*
D196*
X-84368Y16781D02*
D03*
X-88230Y17549D02*
D03*
X84368Y-16781D02*
D03*
X88230Y-17549D02*
D03*
D197*
X-76387Y37806D02*
D03*
X76387Y-37806D02*
D03*
D198*
X-79896Y28819D02*
D03*
X79896Y-28819D02*
D03*
D199*
X-82702Y38504D02*
D03*
X82702Y-38504D02*
D03*
D200*
X-86212Y29517D02*
D03*
X86212Y-29517D02*
D03*
D201*
X-56080Y64153D02*
D03*
X56080Y-64153D02*
D03*
X-4309Y12382D02*
D03*
X4309Y-12382D02*
D03*
D202*
X-62761Y57194D02*
D03*
X62761Y-57194D02*
D03*
X-10990Y5422D02*
D03*
X10990Y-5422D02*
D03*
D203*
X-61648Y67216D02*
D03*
X61648Y-67216D02*
D03*
X-9876Y15444D02*
D03*
X9876Y-15444D02*
D03*
D204*
X-68329Y60256D02*
D03*
X68329Y-60256D02*
D03*
X-16558Y8484D02*
D03*
X16558Y-8484D02*
D03*
D205*
X-27257Y80756D02*
D03*
X27257Y-80756D02*
D03*
D206*
X-36093Y76883D02*
D03*
X36093Y-76883D02*
D03*
D207*
X-31229Y85716D02*
D03*
X31229Y-85716D02*
D03*
D208*
X-40066Y81843D02*
D03*
X40066Y-81843D02*
D03*
D209*
X-71513Y47804D02*
D03*
X-74786Y49991D02*
D03*
X71513Y-47804D02*
D03*
X74786Y-49991D02*
D03*
D210*
X-47804Y71513D02*
D03*
X-49991Y74786D02*
D03*
X47804Y-71513D02*
D03*
X49991Y-74786D02*
D03*
D211*
X-16781Y84368D02*
D03*
X-17549Y88230D02*
D03*
X16781Y-84368D02*
D03*
X17549Y-88230D02*
D03*
D212*
X70034Y-96959D02*
D03*
X-70034Y96959D02*
D03*
D213*
X77453Y-90791D02*
D03*
X-77453Y90791D02*
D03*
D214*
X75224Y-100626D02*
D03*
X-75224Y100626D02*
D03*
D215*
X82643Y-94458D02*
D03*
X-82643Y94458D02*
D03*
D216*
X46686Y-110132D02*
D03*
X-46686Y110132D02*
D03*
D217*
X55291Y-105769D02*
D03*
X-55291Y105769D02*
D03*
D218*
X50930Y-114861D02*
D03*
X-50930Y114861D02*
D03*
D219*
X59535Y-110498D02*
D03*
X-59535Y110498D02*
D03*
D220*
X16781Y84368D02*
D03*
X17549Y88230D02*
D03*
X-16781Y-84368D02*
D03*
X-17549Y-88230D02*
D03*
D221*
X47804Y71513D02*
D03*
X49991Y74786D02*
D03*
X-47804Y-71513D02*
D03*
X-49991Y-74786D02*
D03*
D222*
X71513Y47804D02*
D03*
X74786Y49991D02*
D03*
X-71513Y-47804D02*
D03*
X-74786Y-49991D02*
D03*
D223*
X84368Y16781D02*
D03*
X88230Y17549D02*
D03*
X-84368Y-16781D02*
D03*
X-88230Y-17549D02*
D03*
D224*
X37806Y76387D02*
D03*
X-37806Y-76387D02*
D03*
D225*
X28819Y79896D02*
D03*
X-28819Y-79896D02*
D03*
D226*
X38504Y82702D02*
D03*
X-38504Y-82702D02*
D03*
D227*
X29517Y86212D02*
D03*
X-29517Y-86212D02*
D03*
D228*
X64153Y56080D02*
D03*
X12382Y4309D02*
D03*
X-12382Y-4309D02*
D03*
X-64153Y-56080D02*
D03*
D229*
X57194Y62761D02*
D03*
X5422Y10990D02*
D03*
X-5422Y-10990D02*
D03*
X-57194Y-62761D02*
D03*
D230*
X67216Y61648D02*
D03*
X15444Y9876D02*
D03*
X-15444Y-9876D02*
D03*
X-67216Y-61648D02*
D03*
D231*
X60256Y68329D02*
D03*
X8484Y16558D02*
D03*
X-8484Y-16558D02*
D03*
X-60256Y-68329D02*
D03*
D232*
X80756Y27257D02*
D03*
X-80756Y-27257D02*
D03*
D233*
X76883Y36093D02*
D03*
X-76883Y-36093D02*
D03*
D234*
X85716Y31229D02*
D03*
X-85716Y-31229D02*
D03*
D235*
X81843Y40066D02*
D03*
X-81843Y-40066D02*
D03*
D236*
X18032Y0D02*
D03*
X21969D02*
D03*
X-18032D02*
D03*
X-21969D02*
D03*
D237*
X0Y-18000D02*
D03*
Y-21937D02*
D03*
Y18032D02*
D03*
Y21969D02*
D03*
D238*
X30042Y40612D02*
D03*
X-30042Y-40612D02*
D03*
D239*
X21590Y45265D02*
D03*
X-21590Y-45265D02*
D03*
D240*
X31559Y46783D02*
D03*
X-31559Y-46783D02*
D03*
D241*
X23107Y51435D02*
D03*
X-23107Y-51435D02*
D03*
D242*
X46321Y20155D02*
D03*
X-46321Y-20155D02*
D03*
D243*
X41328Y28410D02*
D03*
X-41328Y-28410D02*
D03*
D244*
X50720Y24740D02*
D03*
X-50720Y-24740D02*
D03*
D245*
X45726Y32995D02*
D03*
X-45726Y-32995D02*
D03*
D246*
X40612Y-30042D02*
D03*
X-40612Y30042D02*
D03*
D247*
X45265Y-21590D02*
D03*
X-45265Y21590D02*
D03*
D248*
X46783Y-31559D02*
D03*
X-46783Y31559D02*
D03*
D249*
X51435Y-23107D02*
D03*
X-51435Y23107D02*
D03*
D250*
X20155Y-46321D02*
D03*
X-20155Y46321D02*
D03*
D251*
X28410Y-41328D02*
D03*
X-28410Y41328D02*
D03*
D252*
X24740Y-50720D02*
D03*
X-24740Y50720D02*
D03*
D253*
X32995Y-45726D02*
D03*
X-32995Y45726D02*
D03*
D254*
X49437Y13231D02*
D03*
X53240Y14250D02*
D03*
X-49437Y-13231D02*
D03*
X-53240Y-14250D02*
D03*
D255*
X49437Y-13231D02*
D03*
X53240Y-14250D02*
D03*
X-49437Y13231D02*
D03*
X-53240Y14250D02*
D03*
D256*
X13231Y-49437D02*
D03*
X14250Y-53240D02*
D03*
X-13231Y49437D02*
D03*
X-14250Y53240D02*
D03*
D257*
X-13231Y-49437D02*
D03*
X-14250Y-53240D02*
D03*
X13231Y49437D02*
D03*
X14250Y53240D02*
D03*
D258*
X-112402Y787D02*
D03*
X-105315D02*
D03*
X-98228D02*
D03*
X112205D02*
D03*
X105118D02*
D03*
X98032D02*
D03*
D259*
X126772Y-2756D02*
D03*
X-123622Y-3543D02*
D03*
X-119266Y-4056D02*
D03*
X90945Y-2756D02*
D03*
X31102Y0D02*
D03*
X-23391Y878D02*
D03*
X118701Y13287D02*
D03*
X-55291Y105769D02*
D03*
X-50930Y114861D02*
D03*
X-39370Y112500D02*
D03*
X-41437Y118504D02*
D03*
X-30382Y115423D02*
D03*
X-24107Y123317D02*
D03*
X-13287Y118602D02*
D03*
X-13976Y124705D02*
D03*
X-3937Y119291D02*
D03*
X3937Y125591D02*
D03*
X13386Y118602D02*
D03*
X13976Y124705D02*
D03*
X22705Y117175D02*
D03*
X31783Y121565D02*
D03*
X39370Y112598D02*
D03*
X41437Y118405D02*
D03*
X48197Y109185D02*
D03*
X58024Y111444D02*
D03*
X63484Y101083D02*
D03*
X66831Y106299D02*
D03*
X71297Y95701D02*
D03*
X81380Y95717D02*
D03*
X88681Y88779D02*
D03*
X84350Y84350D02*
D03*
X90791Y77453D02*
D03*
X100626Y75224D02*
D03*
X101083Y63484D02*
D03*
X106201Y66732D02*
D03*
X105769Y55291D02*
D03*
X114861Y50930D02*
D03*
X118209Y41437D02*
D03*
X112697Y39370D02*
D03*
X115423Y30382D02*
D03*
X123317Y24107D02*
D03*
X118504Y-41535D02*
D03*
X106201Y-66634D02*
D03*
X88712Y-88171D02*
D03*
X66807Y-106496D02*
D03*
X41437Y-118297D02*
D03*
X14075Y-125101D02*
D03*
X-14075Y-124705D02*
D03*
X-71297Y-95701D02*
D03*
X-41437Y-118602D02*
D03*
X-67002Y-106569D02*
D03*
X-88655Y-88754D02*
D03*
X-106595Y-66929D02*
D03*
X-118677Y-41535D02*
D03*
X-63386Y100984D02*
D03*
X-66732Y106299D02*
D03*
X-75224Y100626D02*
D03*
X-77453Y90791D02*
D03*
X-88681Y88779D02*
D03*
X-84252Y84252D02*
D03*
X-111444Y58024D02*
D03*
X-109186Y48197D02*
D03*
X-95716Y81380D02*
D03*
X-95701Y71297D02*
D03*
X-101083Y63484D02*
D03*
X-106299Y66831D02*
D03*
X-118504Y41457D02*
D03*
X-112598Y39469D02*
D03*
X-117175Y22705D02*
D03*
X-121565Y31783D02*
D03*
X-124976Y14075D02*
D03*
X-118602Y-13287D02*
D03*
X-124803Y-14075D02*
D03*
X-123317Y-24107D02*
D03*
X-115423Y-30382D02*
D03*
X-112598Y-39370D02*
D03*
X-114861Y-50930D02*
D03*
X-105769Y-55291D02*
D03*
X-100984Y-63386D02*
D03*
X-100626Y-75224D02*
D03*
X-90791Y-77453D02*
D03*
X-84153Y-84350D02*
D03*
X-81380Y-95717D02*
D03*
X-63484Y-100886D02*
D03*
X-58024Y-111444D02*
D03*
X-48197Y-109185D02*
D03*
X-39370Y-112697D02*
D03*
X-22705Y-117175D02*
D03*
X-31783Y-121565D02*
D03*
X-13386Y-118602D02*
D03*
X3937Y-119291D02*
D03*
X-3937Y-125591D02*
D03*
X24107Y-123317D02*
D03*
X30382Y-115423D02*
D03*
X13386Y-118799D02*
D03*
X39370Y-112598D02*
D03*
X55291Y-105769D02*
D03*
X50930Y-114861D02*
D03*
X63583Y-101181D02*
D03*
X77453Y-90791D02*
D03*
X75224Y-100626D02*
D03*
X84350Y-84252D02*
D03*
X95701Y-71297D02*
D03*
X95717Y-81380D02*
D03*
X100984Y-63386D02*
D03*
X111444Y-58024D02*
D03*
X109185Y-48197D02*
D03*
X124902Y-14075D02*
D03*
X112697Y-39370D02*
D03*
X121565Y-31783D02*
D03*
X117175Y-22705D02*
D03*
X118701Y-13287D02*
D03*
X125049Y14339D02*
D03*
X-125591Y2756D02*
D03*
X56299Y-2756D02*
D03*
X-15354Y-9843D02*
D03*
X67216Y61648D02*
D03*
X75590Y50394D02*
D03*
X85716Y31229D02*
D03*
X88976Y17717D02*
D03*
Y-17717D02*
D03*
X82702Y-38504D02*
D03*
X75590Y-50394D02*
D03*
X62026Y-67168D02*
D03*
X50394Y-75590D02*
D03*
X31229Y-85716D02*
D03*
X17717Y-88976D02*
D03*
X-3937Y-91142D02*
D03*
X-17717Y-88976D02*
D03*
X-38504Y-82702D02*
D03*
X-50394Y-75590D02*
D03*
X-67216Y-61648D02*
D03*
X-75590Y-50394D02*
D03*
X-85716Y-31229D02*
D03*
X-88976Y-17717D02*
D03*
X-90945Y3150D02*
D03*
X-88976Y17717D02*
D03*
X-82702Y38504D02*
D03*
X-75590Y50394D02*
D03*
X-61648Y67216D02*
D03*
X-31229Y85716D02*
D03*
X3937Y91142D02*
D03*
X38504Y82702D02*
D03*
X50394Y75590D02*
D03*
X17717Y88976D02*
D03*
X-17717D02*
D03*
X-50394Y75590D02*
D03*
X-56299Y2756D02*
D03*
X-3937Y-56299D02*
D03*
X14567Y-54331D02*
D03*
X-14567D02*
D03*
X-39764Y-39764D02*
D03*
X-31559Y-46783D02*
D03*
X-50720Y-24740D02*
D03*
X-54331Y-14567D02*
D03*
X24740Y-50720D02*
D03*
X39764Y-39764D02*
D03*
X46783Y-31559D02*
D03*
X54331Y-14567D02*
D03*
Y14567D02*
D03*
X50720Y24740D02*
D03*
X39764Y39764D02*
D03*
X31559Y46783D02*
D03*
X14567Y54331D02*
D03*
X3937Y56299D02*
D03*
X-24740Y50720D02*
D03*
X-14567Y54331D02*
D03*
X-39764Y39764D02*
D03*
X-46850Y31496D02*
D03*
X-54331Y14567D02*
D03*
X10236Y-15354D02*
D03*
X-9843Y15748D02*
D03*
X15354Y9843D02*
D03*
X-4779Y-2811D02*
D03*
X2380Y347D02*
D03*
X0Y8661D02*
D03*
X-118504Y13189D02*
D03*
X119291Y3937D02*
D03*
X8268Y-819D02*
D03*
X16142Y-8268D02*
D03*
X50000Y3150D02*
D03*
X-8661Y-17323D02*
D03*
X-16535Y-83465D02*
D03*
X-70472Y-47244D02*
D03*
X-83472Y-16535D02*
D03*
X-47244Y70472D02*
D03*
X-83071Y16535D02*
D03*
X-79896Y28819D02*
D03*
X-62761Y57194D02*
D03*
X-36093Y76883D02*
D03*
X-3937Y84842D02*
D03*
X28819Y79896D02*
D03*
X57194Y62761D02*
D03*
X76883Y36093D02*
D03*
X84842Y3937D02*
D03*
X79896Y-28819D02*
D03*
X62761Y-57194D02*
D03*
X36093Y-76883D02*
D03*
X3937Y-84842D02*
D03*
X-28819Y-79896D02*
D03*
X-57194Y-62761D02*
D03*
X-76883Y-36093D02*
D03*
X-47244Y-70472D02*
D03*
X16535Y-83465D02*
D03*
X47244Y-70866D02*
D03*
X70866Y-47244D02*
D03*
X83071Y-16535D02*
D03*
Y16535D02*
D03*
X70472Y47244D02*
D03*
X47244Y70472D02*
D03*
X16535Y83071D02*
D03*
X-16535D02*
D03*
X-70472Y47244D02*
D03*
X-85039Y-2756D02*
D03*
X0Y-8980D02*
D03*
X48819Y12992D02*
D03*
Y-12992D02*
D03*
X35827Y-35827D02*
D03*
X12992Y-48819D02*
D03*
X-12992D02*
D03*
X-45276Y21654D02*
D03*
X-35827Y35827D02*
D03*
X-28740Y40945D02*
D03*
X-12992Y48819D02*
D03*
X12992D02*
D03*
X35827Y35827D02*
D03*
X-3937Y50000D02*
D03*
X21654Y44882D02*
D03*
X40945Y29134D02*
D03*
X45276Y-21260D02*
D03*
X28740Y-40945D02*
D03*
X3937Y-50000D02*
D03*
X-21654Y-45276D02*
D03*
X-41339Y-28346D02*
D03*
X-35827Y-35827D02*
D03*
X-48819Y-12992D02*
D03*
X-50000Y-2756D02*
D03*
X-48392Y12878D02*
D03*
X8661Y17323D02*
D03*
M02*
