G04*
G04 #@! TF.GenerationSoftware,Altium Limited,Altium Designer,20.2.4 (192)*
G04*
G04 Layer_Physical_Order=2*
G04 Layer_Color=16711680*
%FSLAX25Y25*%
%MOIN*%
G70*
G04*
G04 #@! TF.SameCoordinates,D12834CA-4DE5-443E-9A18-81BA23B25CB7*
G04*
G04*
G04 #@! TF.FilePolarity,Positive*
G04*
G01*
G75*
%ADD260C,0.02000*%
%ADD261C,0.01000*%
%ADD262C,0.05906*%
%ADD263C,0.02362*%
D260*
X126858Y0D02*
G03*
X126858Y0I-126858J0D01*
G01*
X-119131Y-6900D02*
G03*
X118662Y-13245I119165J6901D01*
G01*
X119291Y3937D02*
G03*
X-118624Y13202I-119291J-3937D01*
G01*
X54425Y14668D02*
G03*
X-56299Y2756I-54425J-14668D01*
G01*
X89235Y17768D02*
G03*
X-90945Y2756I-89235J-17768D01*
G01*
X-54331Y-14567D02*
G03*
X55801Y-3367I54159J14521D01*
G01*
X-89286Y-18086D02*
G03*
X90878Y-3543I89235J17768D01*
G01*
X84609Y3937D02*
G03*
X-83071Y16535I-84609J-3937D01*
G01*
X-50000Y-2756D02*
G03*
X48392Y-12878I50000J2756D01*
G01*
X49989Y4331D02*
G03*
X-48392Y12878I-49939J-4344D01*
G01*
X-85039Y-2756D02*
G03*
X83447Y-16610I85039J2756D01*
G01*
X116535Y-5906D02*
X119685Y-2756D01*
X126772D01*
X112205Y-5906D02*
X116535D01*
X-1969Y15748D02*
X-1969Y45276D01*
X1969Y15748D02*
X1969Y45276D01*
X-2025Y-78687D02*
Y-60971D01*
X1912Y-78687D02*
Y-60971D01*
X-2025Y-45223D02*
X-1969Y-17717D01*
X1912Y-45223D02*
X1969Y-17717D01*
X-2025Y-114120D02*
Y-96404D01*
X1912Y-114120D02*
Y-96404D01*
X-1969Y96457D02*
Y114173D01*
X1969Y96457D02*
Y114173D01*
X-1969Y61024D02*
Y78740D01*
X1969Y61024D02*
Y78740D01*
X-119260Y-4056D02*
X-119259Y-4056D01*
X-49973Y-2783D02*
X-4806D01*
X118662Y-13245D02*
X118701Y-13287D01*
X-119266Y-4056D02*
X-119260D01*
X-50000Y-2756D02*
X-49973Y-2783D01*
X-50000Y-2756D02*
X-50000D01*
X56201Y-2756D02*
X90878D01*
X94192Y-5906D02*
X112205D01*
X90878Y-2756D02*
X91043D01*
X91354Y-3067D01*
X94192Y-5906D01*
X55801Y-3150D02*
X55808D01*
X50000Y3150D02*
X83687D01*
X22431Y-3150D02*
X55801D01*
X55808D02*
X56201Y-2756D01*
X21260Y-4321D02*
X22431Y-3150D01*
X21260Y-7480D02*
Y-4321D01*
X5085Y3150D02*
X50000D01*
X2380Y445D02*
X5085Y3150D01*
X-98032Y-5906D02*
X-94882D01*
X-91732Y-2756D02*
X-85039D01*
X-94882Y-5906D02*
X-91732Y-2756D01*
X-85039D02*
X-50000D01*
X-116142Y-5906D02*
X-98032D01*
X-119266Y-3897D02*
X-119197Y-3966D01*
X-118081D01*
X-116142Y-5906D01*
X-98032D02*
Y0D01*
X-119266Y-3897D02*
X-119131Y-6900D01*
X-125591Y2756D02*
X-119291D01*
X-116142Y5906D02*
X-112598D01*
X-119291Y2756D02*
X-116142Y5906D01*
X-112598D02*
X-93799D01*
X-112598Y394D02*
Y5906D01*
X-91043Y3150D02*
X-90945D01*
X-93799Y5906D02*
X-91043Y3150D01*
X112205Y-5906D02*
Y0D01*
X97638Y5906D02*
X117225D01*
X86909D02*
X97638D01*
Y394D02*
X98032Y0D01*
X97638Y394D02*
Y5906D01*
X84940Y3937D02*
X86909Y5906D01*
X117225D02*
X119193Y3937D01*
X16142Y-12598D02*
X21260Y-7480D01*
X12164Y-12598D02*
X16142D01*
X88712Y-88834D02*
Y-88171D01*
Y-88834D02*
X88907Y-89029D01*
X41437Y-118589D02*
X41594Y-118746D01*
X41437Y-118589D02*
Y-118297D01*
X-88919Y-89017D02*
Y-89017D01*
X-88655Y-88754D01*
X-90945Y2756D02*
X-56299D01*
X-19291D01*
X12164Y-13427D02*
Y-12598D01*
Y-11770D01*
X-2491Y2657D02*
X-553D01*
X-2491Y-600D02*
Y2657D01*
Y-600D02*
X226Y-3317D01*
Y-3248D02*
X3642D01*
X-19193Y2657D02*
X-2491D01*
X-19291Y2756D02*
X-19193Y2657D01*
X-19291Y2756D02*
X-19291D01*
X-553Y2657D02*
X6632Y9843D01*
X15354D01*
X3642Y-3248D02*
X3937Y-3543D01*
X3937D01*
X12164Y-11770D01*
X10236Y-15354D02*
X12164Y-13427D01*
X-2756Y-6299D02*
X226Y-3317D01*
X-11811Y-6299D02*
X-2756D01*
X-15354Y-9843D02*
X-11811Y-6299D01*
X-19291Y6299D02*
X-9843Y15748D01*
X-19291Y2756D02*
Y6299D01*
X119193Y3937D02*
X119291D01*
X83687Y3150D02*
X84474Y3937D01*
X84609D01*
X-4806Y-2783D02*
X-4779Y-2811D01*
X2380Y347D02*
Y445D01*
D261*
X105118Y787D02*
Y1575D01*
Y-2957D02*
Y787D01*
X-124016Y-3150D02*
X-123622Y-3543D01*
X-124016Y-3150D02*
Y-2161D01*
X-123430Y-1575D02*
X-116929D01*
X-124016Y-2161D02*
X-123430Y-1575D01*
X-116929D02*
X-114961Y-3543D01*
X-105512Y-2957D02*
Y394D01*
X-106098Y-3543D02*
X-105512Y-2957D01*
X-114961Y-3543D02*
X-106098D01*
X-105512Y394D02*
X-105118Y787D01*
X95276Y-3543D02*
X104532D01*
X105118Y-2957D01*
X31102Y0D02*
X91732D01*
X95276Y-3543D01*
X0Y8661D02*
X8661Y17323D01*
X0Y8661D02*
X0D01*
X8480Y-819D02*
X15732Y-8071D01*
X8268Y-819D02*
X8480D01*
X15732Y-8071D02*
X16339D01*
X-160Y-8980D02*
X0D01*
X-8502Y-17323D02*
X-160Y-8980D01*
X-8661Y-17323D02*
X-8502D01*
D262*
X-112402Y787D02*
D03*
X-105315D02*
D03*
X-98228D02*
D03*
X112205D02*
D03*
X105118D02*
D03*
X98032D02*
D03*
D263*
X126772Y-2756D02*
D03*
X-123622Y-3543D02*
D03*
X-119266Y-4056D02*
D03*
X90945Y-2756D02*
D03*
X31102Y0D02*
D03*
X-23391Y878D02*
D03*
X118701Y13287D02*
D03*
X-55291Y105769D02*
D03*
X-50930Y114861D02*
D03*
X-39370Y112500D02*
D03*
X-41437Y118504D02*
D03*
X-30382Y115423D02*
D03*
X-24107Y123317D02*
D03*
X-13287Y118602D02*
D03*
X-13976Y124705D02*
D03*
X-3937Y119291D02*
D03*
X3937Y125591D02*
D03*
X13386Y118602D02*
D03*
X13976Y124705D02*
D03*
X22705Y117175D02*
D03*
X31783Y121565D02*
D03*
X39370Y112598D02*
D03*
X41437Y118405D02*
D03*
X48197Y109185D02*
D03*
X58024Y111444D02*
D03*
X63484Y101083D02*
D03*
X66831Y106299D02*
D03*
X71297Y95701D02*
D03*
X81380Y95717D02*
D03*
X88681Y88779D02*
D03*
X84350Y84350D02*
D03*
X90791Y77453D02*
D03*
X100626Y75224D02*
D03*
X101083Y63484D02*
D03*
X106201Y66732D02*
D03*
X105769Y55291D02*
D03*
X114861Y50930D02*
D03*
X118209Y41437D02*
D03*
X112697Y39370D02*
D03*
X115423Y30382D02*
D03*
X123317Y24107D02*
D03*
X118504Y-41535D02*
D03*
X106201Y-66634D02*
D03*
X88712Y-88171D02*
D03*
X66807Y-106496D02*
D03*
X41437Y-118297D02*
D03*
X14075Y-125101D02*
D03*
X-14075Y-124705D02*
D03*
X-71297Y-95701D02*
D03*
X-41437Y-118602D02*
D03*
X-67002Y-106569D02*
D03*
X-88655Y-88754D02*
D03*
X-106595Y-66929D02*
D03*
X-118677Y-41535D02*
D03*
X-63386Y100984D02*
D03*
X-66732Y106299D02*
D03*
X-75224Y100626D02*
D03*
X-77453Y90791D02*
D03*
X-88681Y88779D02*
D03*
X-84252Y84252D02*
D03*
X-111444Y58024D02*
D03*
X-109186Y48197D02*
D03*
X-95716Y81380D02*
D03*
X-95701Y71297D02*
D03*
X-101083Y63484D02*
D03*
X-106299Y66831D02*
D03*
X-118504Y41457D02*
D03*
X-112598Y39469D02*
D03*
X-117175Y22705D02*
D03*
X-121565Y31783D02*
D03*
X-124976Y14075D02*
D03*
X-118602Y-13287D02*
D03*
X-124803Y-14075D02*
D03*
X-123317Y-24107D02*
D03*
X-115423Y-30382D02*
D03*
X-112598Y-39370D02*
D03*
X-114861Y-50930D02*
D03*
X-105769Y-55291D02*
D03*
X-100984Y-63386D02*
D03*
X-100626Y-75224D02*
D03*
X-90791Y-77453D02*
D03*
X-84153Y-84350D02*
D03*
X-81380Y-95717D02*
D03*
X-63484Y-100886D02*
D03*
X-58024Y-111444D02*
D03*
X-48197Y-109185D02*
D03*
X-39370Y-112697D02*
D03*
X-22705Y-117175D02*
D03*
X-31783Y-121565D02*
D03*
X-13386Y-118602D02*
D03*
X3937Y-119291D02*
D03*
X-3937Y-125591D02*
D03*
X24107Y-123317D02*
D03*
X30382Y-115423D02*
D03*
X13386Y-118799D02*
D03*
X39370Y-112598D02*
D03*
X55291Y-105769D02*
D03*
X50930Y-114861D02*
D03*
X63583Y-101181D02*
D03*
X77453Y-90791D02*
D03*
X75224Y-100626D02*
D03*
X84350Y-84252D02*
D03*
X95701Y-71297D02*
D03*
X95717Y-81380D02*
D03*
X100984Y-63386D02*
D03*
X111444Y-58024D02*
D03*
X109185Y-48197D02*
D03*
X124902Y-14075D02*
D03*
X112697Y-39370D02*
D03*
X121565Y-31783D02*
D03*
X117175Y-22705D02*
D03*
X118701Y-13287D02*
D03*
X125049Y14339D02*
D03*
X-125591Y2756D02*
D03*
X56299Y-2756D02*
D03*
X-15354Y-9843D02*
D03*
X67216Y61648D02*
D03*
X75590Y50394D02*
D03*
X85716Y31229D02*
D03*
X88976Y17717D02*
D03*
Y-17717D02*
D03*
X82702Y-38504D02*
D03*
X75590Y-50394D02*
D03*
X62026Y-67168D02*
D03*
X50394Y-75590D02*
D03*
X31229Y-85716D02*
D03*
X17717Y-88976D02*
D03*
X-3937Y-91142D02*
D03*
X-17717Y-88976D02*
D03*
X-38504Y-82702D02*
D03*
X-50394Y-75590D02*
D03*
X-67216Y-61648D02*
D03*
X-75590Y-50394D02*
D03*
X-85716Y-31229D02*
D03*
X-88976Y-17717D02*
D03*
X-90945Y3150D02*
D03*
X-88976Y17717D02*
D03*
X-82702Y38504D02*
D03*
X-75590Y50394D02*
D03*
X-61648Y67216D02*
D03*
X-31229Y85716D02*
D03*
X3937Y91142D02*
D03*
X38504Y82702D02*
D03*
X50394Y75590D02*
D03*
X17717Y88976D02*
D03*
X-17717D02*
D03*
X-50394Y75590D02*
D03*
X-56299Y2756D02*
D03*
X-3937Y-56299D02*
D03*
X14567Y-54331D02*
D03*
X-14567D02*
D03*
X-39764Y-39764D02*
D03*
X-31559Y-46783D02*
D03*
X-50720Y-24740D02*
D03*
X-54331Y-14567D02*
D03*
X24740Y-50720D02*
D03*
X39764Y-39764D02*
D03*
X46783Y-31559D02*
D03*
X54331Y-14567D02*
D03*
Y14567D02*
D03*
X50720Y24740D02*
D03*
X39764Y39764D02*
D03*
X31559Y46783D02*
D03*
X14567Y54331D02*
D03*
X3937Y56299D02*
D03*
X-24740Y50720D02*
D03*
X-14567Y54331D02*
D03*
X-39764Y39764D02*
D03*
X-46850Y31496D02*
D03*
X-54331Y14567D02*
D03*
X10236Y-15354D02*
D03*
X-9843Y15748D02*
D03*
X15354Y9843D02*
D03*
X-4779Y-2811D02*
D03*
X2380Y347D02*
D03*
X0Y8661D02*
D03*
X-118504Y13189D02*
D03*
X119291Y3937D02*
D03*
X8268Y-819D02*
D03*
X16142Y-8268D02*
D03*
X50000Y3150D02*
D03*
X-8661Y-17323D02*
D03*
X-16535Y-83465D02*
D03*
X-70472Y-47244D02*
D03*
X-83472Y-16535D02*
D03*
X-47244Y70472D02*
D03*
X-83071Y16535D02*
D03*
X-79896Y28819D02*
D03*
X-62761Y57194D02*
D03*
X-36093Y76883D02*
D03*
X-3937Y84842D02*
D03*
X28819Y79896D02*
D03*
X57194Y62761D02*
D03*
X76883Y36093D02*
D03*
X84842Y3937D02*
D03*
X79896Y-28819D02*
D03*
X62761Y-57194D02*
D03*
X36093Y-76883D02*
D03*
X3937Y-84842D02*
D03*
X-28819Y-79896D02*
D03*
X-57194Y-62761D02*
D03*
X-76883Y-36093D02*
D03*
X-47244Y-70472D02*
D03*
X16535Y-83465D02*
D03*
X47244Y-70866D02*
D03*
X70866Y-47244D02*
D03*
X83071Y-16535D02*
D03*
Y16535D02*
D03*
X70472Y47244D02*
D03*
X47244Y70472D02*
D03*
X16535Y83071D02*
D03*
X-16535D02*
D03*
X-70472Y47244D02*
D03*
X-85039Y-2756D02*
D03*
X0Y-8980D02*
D03*
X48819Y12992D02*
D03*
Y-12992D02*
D03*
X35827Y-35827D02*
D03*
X12992Y-48819D02*
D03*
X-12992D02*
D03*
X-45276Y21654D02*
D03*
X-35827Y35827D02*
D03*
X-28740Y40945D02*
D03*
X-12992Y48819D02*
D03*
X12992D02*
D03*
X35827Y35827D02*
D03*
X-3937Y50000D02*
D03*
X21654Y44882D02*
D03*
X40945Y29134D02*
D03*
X45276Y-21260D02*
D03*
X28740Y-40945D02*
D03*
X3937Y-50000D02*
D03*
X-21654Y-45276D02*
D03*
X-41339Y-28346D02*
D03*
X-35827Y-35827D02*
D03*
X-48819Y-12992D02*
D03*
X-50000Y-2756D02*
D03*
X-48392Y12878D02*
D03*
X8661Y17323D02*
D03*
M02*
