G04*
G04 #@! TF.GenerationSoftware,Altium Limited,Altium Designer,20.2.4 (192)*
G04*
G04 Layer_Color=8388736*
%FSLAX25Y25*%
%MOIN*%
G70*
G04*
G04 #@! TF.SameCoordinates,D12834CA-4DE5-443E-9A18-81BA23B25CB7*
G04*
G04*
G04 #@! TF.FilePolarity,Positive*
G04*
G01*
G75*
%ADD261C,0.01000*%
D261*
X5943Y-95090D02*
G03*
X94946Y-7912I-5943J95090D01*
G01*
X5938Y-114807D02*
G03*
X114688Y-7909I-5938J114807D01*
G01*
X94946Y7912D02*
G03*
X5943Y95090I-94946J-7912D01*
G01*
X114688Y7909D02*
G03*
X5938Y114807I-114688J-7909D01*
G01*
X-114688Y-7909D02*
G03*
X-5938Y-114807I114688J7909D01*
G01*
X-94946Y-7912D02*
G03*
X-5943Y-95090I94946J7912D01*
G01*
X-60342Y-5906D02*
G03*
X-5906Y-60342I60342J5906D01*
G01*
X-45286Y-5907D02*
G03*
X-5907Y-45286I45286J5907D01*
G01*
X-25304Y-5906D02*
G03*
X-5906Y-25304I25304J5906D01*
G01*
X-80098Y-5906D02*
G03*
X-5906Y-80098I80098J5906D01*
G01*
X-5938Y114807D02*
G03*
X-114688Y7909I5938J-114807D01*
G01*
X-5943Y95090D02*
G03*
X-94946Y7912I5943J-95090D01*
G01*
X-5906Y60342D02*
G03*
X-60342Y5906I5906J-60342D01*
G01*
X-5907Y45286D02*
G03*
X-45286Y5907I5907J-45286D01*
G01*
X-5906Y25304D02*
G03*
X-25304Y5906I5906J-25304D01*
G01*
X-5906Y80098D02*
G03*
X-80098Y5906I5906J-80098D01*
G01*
X60342D02*
G03*
X5906Y60342I-60342J-5906D01*
G01*
X45286Y5907D02*
G03*
X5907Y45286I-45286J-5907D01*
G01*
X25304Y5906D02*
G03*
X5906Y25304I-25304J-5906D01*
G01*
X80098Y5906D02*
G03*
X5906Y80098I-80098J-5906D01*
G01*
Y-80098D02*
G03*
X80098Y-5906I-5906J80098D01*
G01*
X5906Y-25304D02*
G03*
X25304Y-5906I-5906J25304D01*
G01*
X5907Y-45286D02*
G03*
X45286Y-5907I-5907J45286D01*
G01*
X5906Y-60342D02*
G03*
X60342Y-5906I-5906J60342D01*
G01*
X129921Y0D02*
G03*
X129921Y0I-129921J0D01*
G01*
X5943Y-114802D02*
Y-95090D01*
X94946Y-7874D02*
X114688D01*
X5943Y95090D02*
Y114802D01*
X94946Y7874D02*
X114688D01*
X-114688Y-7874D02*
X-94946D01*
X-114688Y7874D02*
X-94946D01*
X-45284Y-5906D02*
X-25304D01*
X-5906Y-45284D02*
Y-25304D01*
Y-80098D02*
Y-60342D01*
X-80098Y-5906D02*
X-60342D01*
X-5943Y-114802D02*
Y-95090D01*
X-5906Y25304D02*
Y45284D01*
X-45284Y5906D02*
X-25304D01*
X-80098D02*
X-60342D01*
X-5906Y60342D02*
Y80098D01*
X-5943Y95090D02*
Y114802D01*
X25304Y5906D02*
X45284D01*
X5906Y25304D02*
Y45284D01*
Y60342D02*
Y80098D01*
X60342Y5906D02*
X80098D01*
X5906Y-80098D02*
Y-60342D01*
X60342Y-5906D02*
X80098D01*
X25304D02*
X45284D01*
X5906Y-45284D02*
Y-25304D01*
M02*
